<svg width="81" height="32" viewBox="0 0 81 32" fill="none" xmlns="http://www.w3.org/2000/svg">
<g id="AmericanExpress">
<g id="Group 469270">
<path id="Vector" d="M74.8189 20.8306H72.6417C72.1909 20.8306 71.8152 20.5323 71.8152 20.1594C71.8152 19.7119 72.1909 19.4881 72.6417 19.4881H76.6204L77.522 17.476H72.6417C70.6147 17.476 69.4878 18.6678 69.4878 20.2339C69.4878 21.8001 70.6147 22.8427 72.3411 22.8427H74.5183C74.9691 22.8427 75.3448 23.141 75.3448 23.5139C75.3448 23.8868 75.0443 24.1851 74.5183 24.1851H69.7132V26.1972H74.5183C76.5453 26.1972 77.6722 25.0055 77.6722 23.3648C77.6722 21.724 76.6204 20.8306 74.8189 20.8306ZM66.0349 20.8306H63.8577C63.4069 20.8306 63.0313 20.5323 63.0313 20.1594C63.0313 19.7119 63.4069 19.4881 63.8577 19.4881H67.8365L68.738 17.476H63.8577C61.8308 17.476 60.7054 18.6678 60.7054 20.2339C60.7054 21.8001 61.8308 22.8427 63.5588 22.8427H65.736C66.1868 22.8427 66.5624 23.141 66.5624 23.5139C66.5624 23.8868 66.2619 24.1851 65.736 24.1851H60.9308V26.1972H65.736C67.7629 26.1972 68.8883 25.0055 68.8883 23.3648C68.9634 21.7255 67.9132 20.8306 66.0349 20.8306ZM52.1469 26.2703H59.6551V24.2582H54.5494V22.8427H59.58V20.8306H54.5494V19.4151H59.6551V17.403H52.1469V26.2718V26.2703ZM47.4919 21.2035H45.0142V19.4151H47.4919C48.1681 19.4151 48.5437 19.8626 48.5437 20.3101C48.5437 20.8321 48.1681 21.205 47.4919 21.205M50.9448 20.2355C50.9448 18.5217 49.7427 17.403 47.7909 17.403H42.6101V26.2718H45.0126V23.2171H45.9142L48.6173 26.2718H51.4707L48.5422 23.068C50.0432 22.6951 50.9448 21.6525 50.9448 20.2355ZM38.107 21.3542H35.5541V19.4167H38.107C38.7831 19.4167 39.1588 19.8641 39.1588 20.3862C39.1588 20.9083 38.8583 21.3557 38.107 21.3557M38.4075 17.4061H33.2266V26.2749H35.6292V23.3679H38.4075C40.4344 23.3679 41.6365 22.1015 41.6365 20.3862C41.5614 18.5978 40.3608 17.4046 38.4075 17.4046M32.7774 17.4046H29.7002L27.4479 20.0879L25.1204 17.4046H21.9665L25.9453 21.8017L21.8914 26.2734H24.9686L27.3712 23.4409L29.7738 26.2734H32.9261L28.8722 21.7271L32.7759 17.4046H32.7774ZM14.0842 26.2734H21.5909V24.2613H16.4101V22.8458H21.4406V20.8337H16.4101V19.4182H21.5909V17.4061H14.0842V26.2749V26.2734ZM73.9173 11.4397L70.2391 6.07458H67.2354V14.8688H69.638V9.27842L73.3914 14.8673H76.2448V6.07458H73.9173V11.4412V11.4397ZM60.1028 11.1414L61.3784 8.15972L62.6541 11.1414H60.1012H60.1028ZM59.8023 6.07303L55.8987 14.9419H58.5266L59.2779 13.1535H63.4069L64.1582 14.9419H66.8614L62.8826 6.07458H59.8038L59.8023 6.07303ZM51.995 10.5447V10.3956C51.995 9.05468 52.7463 8.15972 54.2474 8.15972H56.8753V6H54.022C51.0935 6 49.5924 7.86295 49.5924 10.3225V10.4717C49.5924 13.2296 51.3189 14.7942 53.9468 14.7942H54.7733L55.7484 12.7821H54.3225C52.8966 12.8567 51.995 12.0363 51.995 10.5463M45.9893 14.8688H48.3919V6.07458H45.9893V14.8688ZM41.3344 9.80048H38.8567V8.01211H41.3344C42.0106 8.01211 42.3862 8.45959 42.3862 8.90707C42.3862 9.42913 42.0106 9.80203 41.3344 9.80203M44.7873 8.90707C44.7873 7.19328 43.5852 6.07458 41.6349 6.07458H36.4541V14.9434H38.8567V11.8141H39.7582L42.4614 14.8704H45.3899L42.3878 11.6665C43.8888 11.3682 44.7904 10.2511 44.7904 8.90863M27.3728 14.8704H34.8795V12.8583H29.7738V11.4428H34.7292V9.43069H29.7738V8.01522H34.8795V6.07458H27.3728V14.8688V14.8704ZM19.7909 11.5904L17.7624 6.07458H14.0842V14.8688H16.4116V8.53417L18.7391 14.8688H20.8412L23.1686 8.53417V14.8688H25.5712V6.07458H21.8178L19.7909 11.5889V11.5904ZM6.87795 11.1429L8.15359 8.16127L9.42924 11.1429H6.87639H6.87795ZM6.57587 6.07458L2.67224 14.8688H5.30022L6.05152 13.0805H10.1805L10.9318 14.8688H13.6349L9.65463 6.07458H6.57587Z" fill="#006FCF"/>
</g>
</g>
</svg>
