<svg width="50" height="36" viewBox="0 0 50 36" fill="none" xmlns="http://www.w3.org/2000/svg">
<g id="Group 469317">
<g id="Group 469316">
<path id="Vector" d="M23.3914 0.824219C18.3458 0.824219 14.2574 4.90916 14.2574 9.94792C14.2574 14.9867 18.3453 19.0688 23.3914 19.0688C28.4374 19.0688 32.5254 14.9867 32.5277 9.94792C32.5277 4.90916 28.4369 0.827038 23.3914 0.824219ZM21.317 15.3442C19.1442 14.5098 17.6055 12.4118 17.6003 9.94792C17.6055 7.48445 19.147 5.38607 21.317 4.5516V15.3442ZM25.4634 15.3442V4.55113C27.6362 5.38278 29.1801 7.48633 29.1829 9.94745C29.1801 12.4109 27.6362 14.5126 25.4634 15.3442Z" fill="white"/>
<path id="Vector_2" d="M36.2659 11.5397L36.2846 11.4283C36.3546 10.9583 36.3909 10.4837 36.3932 10.0084C36.3881 8.75298 36.1596 7.57927 35.754 6.50894C34.2785 2.75243 30.347 0.111356 24.8477 0H24.1209C20.4361 0.0742375 17.701 1.28741 15.9052 3.16825C14.4007 4.79255 13.4403 6.96188 13.3157 9.49207V9.54234L13.3077 9.7566V9.82285V10.0348V10.0878L13.3105 10.3049C13.393 13.4309 14.971 16.2096 17.3564 17.9688C19.0009 19.1157 21.1287 19.8416 23.7074 19.9318H24.8533C28.9281 19.7862 32.1142 18.3475 34.0987 16.1142C35.1996 14.816 35.9741 13.2584 36.2663 11.5604C36.2663 11.5524 36.2663 11.5472 36.2691 11.5392H36.2663L36.2659 11.5397ZM23.3914 19.0711C18.3458 19.0711 14.2574 14.9889 14.2574 9.95018C14.2574 4.91142 18.3453 0.829299 23.3914 0.82648C28.4369 0.82648 32.5254 4.91142 32.5277 9.95018C32.5277 14.9889 28.4369 19.0711 23.3914 19.0711ZM25.4634 4.55104V15.346C27.6362 14.5116 29.1801 12.4136 29.1829 9.94971C29.1801 7.48624 27.6362 5.38504 25.4634 4.55339V4.55057V4.55104ZM17.5999 9.94736C17.605 12.4108 19.1465 14.5092 21.3165 15.3437V4.55386C19.1437 5.38833 17.605 7.48624 17.5999 9.95018V9.94736Z" fill="#004C97"/>
</g>
<g id="Group">
<path id="Vector_3" d="M1.03422 23.4695C1.03422 22.5265 0.540665 22.59 0.0686534 22.5796V22.3095L1.30768 22.3278L3.12502 22.3095C5.84143 22.3095 7.32208 24.1212 7.32208 25.9786C7.32208 27.017 6.71475 29.6266 2.99812 29.6266C2.46477 29.6266 1.96888 29.6054 1.47532 29.6054C0.981772 29.6054 0.541601 29.6162 0.0691214 29.6266V29.3536C0.698002 29.2901 1.00284 29.269 1.03468 28.559V23.4747L1.03422 23.4695ZM2.06347 28.3861C2.06347 29.1943 2.64177 29.2868 3.1564 29.2868C5.42467 29.2868 6.16734 27.578 6.16734 26.018C6.16734 24.0578 4.90724 22.6431 2.88293 22.6431C2.45306 22.6431 2.25405 22.6722 2.063 22.6853V28.3861H2.06347ZM7.6878 29.3503H7.88681C8.18135 29.3503 8.39067 29.3503 8.39067 29.0031V26.1632C8.39067 25.7023 8.23427 25.6389 7.8442 25.4293V25.2625L8.96898 24.8838C9.04343 24.8439 9.1043 24.8335 9.15722 24.8335C9.21013 24.8335 9.23167 24.8946 9.23167 24.9792V29.0031C9.23167 29.3503 9.46253 29.3503 9.75707 29.3503H9.93501V29.6233C9.57959 29.6233 9.2106 29.6021 8.83412 29.6021L7.69061 29.6233V29.3503H7.6878ZM8.81257 23.22C8.53911 23.22 8.29795 22.9682 8.29795 22.6957C8.29795 22.4232 8.54988 22.1925 8.81257 22.1925C9.07527 22.1925 9.3272 22.4124 9.3272 22.6957C9.3272 22.979 9.09634 23.22 8.81257 23.22ZM10.9319 26.2271C10.9319 25.8404 10.8177 25.7343 10.3246 25.5355V25.3344L11.7093 24.8312C11.7411 24.8312 11.7701 24.8523 11.7701 24.9346V25.6182C12.3695 25.1864 12.8841 24.8312 13.5875 24.8312C14.4791 24.8312 14.7947 25.4801 14.7947 26.299V29.0012C14.7947 29.3484 15.0255 29.3484 15.3201 29.3484H15.5083V29.6214C15.1398 29.6214 14.7736 29.6002 14.3966 29.6002L13.2611 29.6214V29.3484H13.4493C13.7439 29.3484 13.9509 29.3484 13.9509 29.0012V26.2887C13.9509 25.6901 13.5847 25.3988 12.9853 25.3988C12.6486 25.3988 12.1153 25.6718 11.7678 25.902V29.0016C11.7678 29.3489 12.0015 29.3489 12.2932 29.3489H12.4814V29.6219C12.1153 29.6219 11.7467 29.6007 11.3674 29.6007L10.2347 29.6219V29.3489H10.4258C10.7203 29.3489 10.9273 29.3489 10.9273 29.0016V26.2253L10.9324 26.2281L10.9319 26.2271ZM16.3067 26.7303C16.2856 26.8257 16.2856 26.9822 16.3067 27.3369C16.3676 28.333 17.0096 29.1515 17.8482 29.1515C18.4265 29.1515 18.8775 28.8363 19.2647 28.4496L19.4108 28.5952C18.928 29.2338 18.331 29.7793 17.4689 29.7793C15.8005 29.7793 15.4633 28.1658 15.4633 27.4957C15.4633 25.4401 16.848 24.8335 17.5832 24.8335C18.435 24.8335 19.3471 25.3659 19.3579 26.4785L19.35 26.6693L19.2544 26.7327H16.3072V26.7299L16.3067 26.7303ZM18.1638 26.3939C18.4265 26.3939 18.4556 26.2586 18.4556 26.1318C18.4556 25.5966 18.1292 25.1676 17.5429 25.1676C16.9037 25.1676 16.4631 25.6393 16.3357 26.3939H18.1638ZM19.6019 29.3503H19.8856C20.1802 29.3503 20.3872 29.3503 20.3872 29.0031V26.0599C20.3872 25.7343 19.9999 25.6732 19.8435 25.5881V25.4317L21.1247 24.8331C21.1856 24.8331 21.2174 24.8622 21.2174 24.9684V25.9114H21.2385C21.5012 25.5036 21.9413 24.8331 22.581 24.8331C22.8437 24.8331 23.178 25.0107 23.178 25.3894C23.178 25.6727 22.979 25.9245 22.6845 25.9245C22.3581 25.9245 22.3581 25.6727 21.9919 25.6727C21.814 25.6727 21.2254 25.9137 21.2254 26.5443V29.0054C21.2254 29.3526 21.4351 29.3526 21.7292 29.3526H22.3155V29.6256L20.8456 29.6045L19.5963 29.6256V29.3526L19.6014 29.3498L19.6019 29.3503ZM23.6421 28.1662C23.7802 28.8579 24.1993 29.4457 24.9659 29.4457C25.584 29.4457 25.8148 29.067 25.8148 28.7014C25.8148 27.4643 23.5278 27.8618 23.5278 26.174C23.5278 25.5858 23.9998 24.8335 25.1541 24.8335C25.4884 24.8335 25.9394 24.9289 26.3505 25.1357L26.425 26.206H26.1833C26.0799 25.5463 25.7113 25.1676 25.0398 25.1676C24.6208 25.1676 24.2227 25.4086 24.2227 25.8592C24.2227 27.0856 26.6582 26.7097 26.6582 28.3546C26.6582 29.0463 26.1009 29.7797 24.8544 29.7797C24.4325 29.7797 23.939 29.6341 23.5732 29.4245L23.459 28.2193L23.6472 28.1662H23.6421ZM36.1345 24.203H35.8718C35.6728 22.9767 34.7999 22.4838 33.6274 22.4838C32.4548 22.4838 30.667 23.2919 30.667 25.8057C30.667 27.9252 32.1818 29.4457 33.7945 29.4457C34.8346 29.4457 35.6938 28.7329 35.9064 27.6311L36.148 27.6921L35.9064 29.2234C35.4662 29.4964 34.2773 29.7797 33.5852 29.7797C31.1287 29.7797 29.5769 28.1982 29.5769 25.8376C29.5769 23.689 31.4949 22.1474 33.5534 22.1474C34.4052 22.1474 35.2218 22.4203 36.031 22.7037L36.1345 24.203ZM36.5114 29.3503H36.7132C37.0078 29.3503 37.2171 29.3503 37.2171 29.0031V23.1674C37.2171 22.4838 37.0607 22.4626 36.6599 22.3489V22.1821C37.079 22.0468 37.5196 21.8589 37.742 21.732C37.8563 21.6709 37.941 21.6155 37.9729 21.6155C38.0366 21.6155 38.0576 21.6789 38.0576 21.764V29.004C38.0576 29.3512 38.2885 29.3512 38.583 29.3512H38.761V29.6242C38.4056 29.6242 38.0366 29.6031 37.6573 29.6031L36.5138 29.6242V29.3512H36.5109L36.5114 29.3503ZM43.2521 29.0458C43.2521 29.2366 43.3664 29.2446 43.5466 29.2446L43.9685 29.2338V29.4536C43.5148 29.4959 42.6555 29.7158 42.4537 29.7769L42.4031 29.745V28.8973C41.7743 29.4114 41.2891 29.7769 40.5436 29.7769C39.9761 29.7769 39.3898 29.4114 39.3898 28.5318V25.8484C39.3898 25.5754 39.3472 25.3133 38.761 25.2602V25.0614L40.1138 24.9872C40.2304 24.9872 40.2304 25.0614 40.2304 25.2893V27.9943C40.2304 28.3095 40.2304 29.2103 41.143 29.2103C41.4984 29.2103 41.9709 28.9373 42.4111 28.5717V25.7502C42.4111 25.5411 41.9072 25.427 41.5303 25.3212V25.1333L43.1673 24.9876C43.2521 24.9876 43.2521 25.0619 43.2521 25.1756V29.0406V29.0458ZM45.3401 25.5862C45.7592 25.231 46.3267 24.834 46.9055 24.834C48.123 24.834 48.8582 25.8935 48.8582 27.0353C48.8582 28.4077 47.85 29.7825 46.3487 29.7825C45.5714 29.7825 45.1654 29.5307 44.8896 29.417L44.574 29.658L44.3539 29.5443C44.4466 28.9269 44.5 28.318 44.5 27.6795V23.1674C44.5 22.4838 44.3436 22.4626 43.9428 22.3489V22.1821C44.3647 22.0468 44.8025 21.8589 45.025 21.732C45.1392 21.6709 45.224 21.6155 45.2558 21.6155C45.3195 21.6155 45.3382 21.6789 45.3382 21.764V25.5891L45.341 25.5862H45.3401ZM45.3401 28.4369C45.3401 28.8344 45.7166 29.5072 46.4223 29.5072C47.547 29.5072 48.0195 28.4054 48.0195 27.4727C48.0195 26.3418 47.1574 25.3983 46.3403 25.3983C45.9502 25.3983 45.6267 25.6501 45.3429 25.8912V28.4369H45.3401ZM0.055542 35.7164H0.135148C0.339312 35.7164 0.557054 35.6901 0.557054 35.3908V32.4025C0.557054 32.106 0.339312 32.0769 0.135148 32.0769H0.055542V31.9049L0.901697 31.9289L1.79843 31.9049V32.0769H1.71882C1.51466 32.0769 1.29691 32.1032 1.29691 32.4025V35.3908C1.29691 35.6872 1.51466 35.7164 1.71882 35.7164H1.79843V35.8883C1.52496 35.8883 1.18032 35.8672 0.896547 35.8672L0.055542 35.8883V35.7164Z" fill="#211915"/>
<path id="Vector_4" d="M1.79851 35.9122C1.5227 35.9122 1.1804 35.8911 0.896627 35.8911L0.0556214 35.9122H0.0289307V35.6923H0.135227C0.342201 35.6871 0.530443 35.6712 0.533252 35.3902V32.4019C0.533252 32.1237 0.342201 32.1054 0.135227 32.0998H0.0289307V31.8799H0.0556214L0.901777 31.901L1.79851 31.8799H1.8252V32.0998H1.72171C1.51474 32.1026 1.32368 32.1209 1.32368 32.4019V35.3902C1.32368 35.6683 1.51474 35.6867 1.72171 35.6923H1.8252V35.9122H1.79851ZM1.77462 35.8647V35.7431H1.7189C1.51474 35.7431 1.27077 35.7059 1.27077 35.3935V32.4052C1.27077 32.0899 1.51474 32.0556 1.7189 32.0556H1.77462V31.9339L0.904587 31.9551C0.633929 31.9551 0.305207 31.9339 0.084654 31.9339V32.0556H0.140377C0.344541 32.0556 0.586166 32.0899 0.586166 32.4052V35.3935C0.586166 35.7088 0.3422 35.7431 0.140377 35.7431H0.084654V35.8647L0.898967 35.8408L1.77696 35.8647H1.77462ZM5.7221 34.7648L5.73287 34.754V32.6161C5.73287 32.1501 5.40649 32.081 5.23417 32.081H5.10961V31.909L5.908 31.933L6.60853 31.909V32.081H6.52377C6.28215 32.081 6.0143 32.1261 6.0143 32.8041V35.4001C6.0143 35.5988 6.02226 35.7976 6.04895 35.9747H5.83121L2.8891 32.7003V35.05C2.8891 35.5481 2.98462 35.7177 3.42479 35.7177H3.52313V35.8896C3.27916 35.8896 3.03239 35.8685 2.78561 35.8685L2.0111 35.8896V35.7177H2.0907C2.48592 35.7177 2.60533 35.4503 2.60533 34.9946V32.5917C2.60533 32.2713 2.33982 32.0805 2.08555 32.0805H2.0111V31.9085L2.6662 31.9325L3.17568 31.9085L5.71695 34.7672L5.7221 34.7643V34.7648Z" fill="#211915"/>
<path id="Vector_5" d="M6.05358 35.9997L5.81757 35.9917L2.91807 32.7652V35.0516C2.92603 35.5468 3.00049 35.6901 3.42989 35.6953H3.5521V35.9151H3.52541C3.27864 35.9151 3.03186 35.894 2.7879 35.894L2.01058 35.9151H1.98669V35.6953H2.09299C2.46948 35.6924 2.57858 35.4514 2.58373 34.9961V32.5933C2.58373 32.2911 2.33181 32.106 2.08784 32.1032H1.98716V31.8833H2.01104L2.66896 31.9044L3.19669 31.8913L5.70613 34.7128V32.6149C5.70332 32.1619 5.40082 32.106 5.23411 32.1037H5.08286V31.8838H5.10956L5.90795 31.9049L6.60847 31.8838H6.63517V32.1037H6.52372C6.28771 32.1117 6.04609 32.1328 6.03813 32.8028V35.3988C6.03813 35.5975 6.04328 35.7963 6.07278 35.9711L6.07793 36.0002H6.0489H6.05405L6.05358 35.9997ZM5.83584 35.9495H6.02408C5.99739 35.7775 5.99504 35.5891 5.99504 35.3983V32.8023C5.99504 32.1187 6.28162 32.0524 6.5284 32.0524H6.58928V31.9308L5.91263 31.9519C5.64994 31.9519 5.3952 31.9308 5.13812 31.9308V32.0524H5.2388C5.41393 32.0524 5.76138 32.1295 5.76138 32.6139L5.75342 34.7701L5.74031 34.7809L5.72158 34.7992L3.18264 31.9331L2.67317 31.9542C2.46339 31.9542 2.24892 31.9331 2.04195 31.9331V32.0548H2.09252C2.36037 32.0548 2.63618 32.2587 2.63618 32.5928V34.9956C2.63618 35.4514 2.50881 35.7427 2.09767 35.7455H2.04195V35.8672L2.79258 35.8433L3.50341 35.8672V35.7455H3.43176C2.98082 35.7455 2.86937 35.5496 2.86937 35.0516V32.6384L5.83537 35.9499L5.83584 35.9495Z" fill="#211915"/>
<path id="Vector_6" d="M7.46774 32.1929C7.03787 32.1929 7.02476 32.2962 6.93719 32.7121H6.76721L6.83605 32.2272C6.85834 32.0665 6.86991 31.9045 6.8707 31.7423H7.00884C7.05379 31.9142 7.19708 31.9067 7.35114 31.9067H10.2984C10.4525 31.9067 10.5958 31.9016 10.6061 31.7319L10.7414 31.7559L10.6805 32.2168L10.6697 32.6778L10.4998 32.7412C10.489 32.5293 10.46 32.1929 10.0778 32.1929H9.14132V35.2263C9.14132 35.6661 9.34314 35.7163 9.61614 35.7163H9.72478V35.8883C9.50188 35.8883 9.10152 35.8672 8.7934 35.8672L7.82783 35.8883V35.7163H7.93647C8.25208 35.7163 8.41129 35.69 8.41129 35.2394V32.1929H7.47476H7.4668H7.46774Z" fill="#211915"/>
<path id="Vector_7" d="M9.71975 35.9125C9.49405 35.9125 9.09368 35.8913 8.78837 35.8913L7.82281 35.9125H7.79893V35.6926H7.93144C8.24706 35.6846 8.37442 35.6818 8.37957 35.2397V32.2171H7.46693V32.1696H8.43015V35.2401C8.43015 35.6959 8.24425 35.7433 7.93144 35.7433H7.84669V35.8627L8.78837 35.8415L9.69306 35.8627V35.7433H9.61064C9.33484 35.7433 9.11194 35.6771 9.11194 35.227V32.1673H10.0752C10.4596 32.1673 10.5074 32.4929 10.521 32.7052L10.6455 32.6601L10.6563 32.2124L10.7148 31.7754L10.6272 31.7594C10.5982 31.9239 10.439 31.9342 10.2957 31.9314H7.31942C7.18409 31.9314 7.03799 31.9234 6.98789 31.7669H6.89236C6.89236 31.9234 6.88159 32.077 6.85771 32.2307L6.79403 32.6864H6.91625C6.99304 32.2889 7.0408 32.1621 7.46552 32.1673V32.2147C7.04361 32.2227 7.05438 32.2941 6.95886 32.7156V32.7339H6.73596V32.7048L6.81042 32.2199C6.83393 32.0611 6.84551 31.9007 6.84507 31.7402V31.7138H7.02535V31.7322C7.06796 31.875 7.17379 31.8778 7.31989 31.8806H10.2962C10.4554 31.8778 10.572 31.8755 10.58 31.727V31.7007L10.6066 31.7059L10.7687 31.7322V31.7561L10.705 32.2171L10.6942 32.678V32.6963L10.6783 32.7043L10.4765 32.7785V32.7442C10.4605 32.5295 10.4367 32.2199 10.0761 32.2199H9.16345V35.2293C9.1686 35.6611 9.34139 35.6902 9.61158 35.6954H9.7441V35.9153H9.72022L9.71975 35.9125ZM10.9246 35.7166H11.0042C11.2084 35.7166 11.4261 35.6902 11.4261 35.3909V32.4027C11.4261 32.1062 11.2084 32.077 11.0042 32.077H10.9246V31.9051L12.3467 31.929L13.8086 31.9051L13.8218 32.7795L13.6494 32.8246C13.6227 32.4539 13.5539 32.1569 12.9545 32.1569H12.1613V33.6511H12.8379C13.1826 33.6511 13.257 33.4575 13.2889 33.1502H13.4588L13.4429 33.8179L13.4588 34.4667L13.2889 34.501C13.257 34.1594 13.2383 33.9367 12.8431 33.9367H12.1585V35.2664C12.1585 35.6372 12.4872 35.6372 12.8534 35.6372C13.5403 35.6372 13.84 35.592 14.0128 34.9404L14.172 34.9803L13.9782 35.8862C13.612 35.8862 12.9569 35.865 12.4422 35.865L10.9246 35.8862V35.7142V35.7166Z" fill="#211915"/>
<path id="Vector_8" d="M13.9805 35.9122C13.6143 35.9122 12.9564 35.8882 12.4446 35.8882L10.927 35.9122H10.9003V35.6923H11.0066C11.2135 35.6895 11.4018 35.6712 11.4046 35.3902V32.4019C11.4046 32.1237 11.2135 32.1054 11.0066 32.0998H10.9003V31.8799H10.927L12.3491 31.901L13.811 31.8799H13.8377V31.9062L13.8297 32.2027L13.8485 32.7773V32.7985L13.8297 32.8036L13.6279 32.8567V32.8276C13.5933 32.4592 13.5432 32.189 12.9541 32.1839H12.1847V33.6278H12.8398C13.1685 33.6278 13.2271 33.4558 13.2669 33.148V33.1269H13.487V33.1532L13.4682 33.8209L13.487 34.4697V34.4881L13.4659 34.4932L13.2669 34.5332V34.5069C13.2243 34.1596 13.2243 33.9689 12.845 33.9637H12.1843V35.2671C12.1843 35.6143 12.4839 35.6115 12.8581 35.6143C13.545 35.6115 13.8213 35.5772 13.9936 34.9363L13.9988 34.9123L14.0227 34.9175L14.2058 34.965L14.2006 34.9889L14.0067 35.8948V35.916H13.9829L13.9801 35.9108L13.9805 35.9122ZM13.9594 35.8619L14.1453 34.9983L14.0311 34.9692C13.8611 35.6077 13.5296 35.6632 12.8557 35.658C12.4952 35.658 12.137 35.658 12.1341 35.2633V33.9097H12.845C13.243 33.9045 13.2828 34.1455 13.3118 34.4711L13.4364 34.4448L13.4205 33.8143L13.4364 33.1706H13.3118C13.28 33.4699 13.1873 33.6766 12.8398 33.6738H12.1341V32.1294H12.9541C13.5483 32.1266 13.6466 32.4315 13.6705 32.7891L13.7951 32.7571L13.7792 32.2008L13.7843 31.9306L12.3491 31.9518C11.8794 31.9518 11.3011 31.9306 10.9508 31.9306V32.0523H11.0066C11.2107 32.0523 11.4524 32.0866 11.4547 32.4019V35.3902C11.4547 35.7055 11.2107 35.7398 11.0066 35.7398H10.9508V35.8591L12.4446 35.838L13.9594 35.8591V35.8619ZM14.9437 32.5104C14.9437 32.0946 14.7157 32.0786 14.5378 32.0786H14.4343V31.9067L15.3202 31.9306L16.2408 31.9067C16.9596 31.9067 17.5993 32.1002 17.5993 32.9108C17.5993 33.4248 17.257 33.7372 16.806 33.9148L17.7824 35.3719C17.9416 35.6129 18.0558 35.682 18.3368 35.7135V35.8854C18.1486 35.8854 17.9655 35.8643 17.7772 35.8643L17.2387 35.8854C16.7985 35.3108 16.4216 34.6934 16.0503 34.0365H15.6738V35.2577C15.6738 35.6975 15.8779 35.7135 16.1406 35.7135H16.2441V35.8854C15.9177 35.8854 15.5862 35.8643 15.2598 35.8643L14.4319 35.8854V35.7135H14.5354C14.7452 35.7135 14.9414 35.6181 14.9414 35.4062V32.5081L14.9442 32.5109L14.9437 32.5104ZM15.6761 33.8321H15.9547C16.5279 33.8321 16.8327 33.6174 16.8327 32.9422C16.8327 32.4362 16.5063 32.1106 15.9997 32.1106C15.8274 32.1106 15.7557 32.1289 15.6761 32.1345V33.8326V33.8321Z" fill="#211915"/>
<path id="Vector_9" d="M18.3367 35.9123C18.1456 35.9123 17.9625 35.8912 17.7743 35.8912L17.2199 35.9043C16.782 35.3297 16.4079 34.7175 16.0366 34.0658H15.6999V35.2606C15.705 35.6896 15.8778 35.6873 16.1429 35.6924H16.2702V35.9123H16.2435C15.9172 35.9123 15.5856 35.8912 15.2621 35.8912L14.4342 35.9123H14.4103V35.6924H14.5376C14.7418 35.6924 14.9141 35.6022 14.9169 35.4091V32.511C14.9141 32.1055 14.7151 32.1084 14.5376 32.1032H14.4103V31.8833H14.4342L15.3201 31.9044L16.2407 31.8833C16.9595 31.8833 17.623 32.0844 17.6254 32.9113C17.6254 33.4254 17.2831 33.7486 16.8429 33.9258L17.8033 35.3617C17.9625 35.5999 18.0609 35.6581 18.339 35.6929H18.3601V35.9128H18.3362L18.3367 35.9123ZM15.676 34.0155H16.0661L16.074 34.0287C16.4454 34.6855 16.8223 35.3001 17.2414 35.8644L17.7771 35.8404L18.3128 35.8616V35.7371C18.045 35.7051 17.9204 35.6234 17.7635 35.3875L16.7689 33.9013L16.798 33.8905C17.2438 33.7157 17.5753 33.4108 17.5753 32.9076C17.5753 32.1182 16.9572 31.9326 16.2407 31.9303L15.3201 31.9514C14.9834 31.9514 14.6463 31.9303 14.458 31.9303V32.052H14.5376C14.7156 32.052 14.9675 32.0811 14.9675 32.5101V35.4082C14.9675 35.6389 14.7526 35.7418 14.5376 35.7418H14.458V35.8611L15.2621 35.84L16.2197 35.8611V35.7418H16.1429C15.883 35.7418 15.6493 35.7098 15.6493 35.2597V34.0146H15.6732H15.676V34.0155ZM15.676 33.8591H15.6521V32.1131H15.6732C15.75 32.1051 15.8273 32.0891 16.0019 32.0891C16.5217 32.0891 16.8616 32.4255 16.8616 32.9475C16.8616 33.6284 16.5329 33.8614 15.957 33.8614H15.6783L15.6755 33.8586L15.676 33.8591ZM15.9546 33.8116C16.5198 33.8064 16.8064 33.6105 16.8087 32.948C16.8059 32.4499 16.4955 32.1398 15.9996 32.1375C15.8455 32.1375 15.7739 32.1507 15.6999 32.1586V33.8116H15.9546ZM22.2121 34.7654L22.2228 34.7546V32.6167C22.2228 32.1506 21.8964 32.0816 21.7269 32.0816H21.5996V31.9096L22.4008 31.9336L23.1036 31.9096V32.0816H23.0189C22.7772 32.0816 22.5094 32.1267 22.5094 32.8047V35.4007C22.5094 35.5994 22.5145 35.7982 22.5412 35.9753H22.3263L19.3842 32.7009V35.0506C19.3842 35.5487 19.4825 35.7183 19.9227 35.7183H20.021V35.8902C19.7743 35.8902 19.5275 35.8691 19.2835 35.8691L18.5062 35.8902V35.7183H18.5858C18.981 35.7183 19.1004 35.4509 19.1004 34.9952V32.5923C19.1004 32.2719 18.8377 32.0811 18.5806 32.0811H18.5062V31.9091L19.1613 31.9331L19.6708 31.9091L22.2121 34.7678V34.7654Z" fill="#211915"/>
<path id="Vector_10" d="M22.5436 35.9998L22.3099 35.9918L19.4104 32.7653V35.0516C19.4184 35.5497 19.4929 35.6901 19.9223 35.6953H20.0445V35.9152H20.0206C19.7738 35.9152 19.527 35.8912 19.2831 35.8912L18.5058 35.9152H18.4791V35.6953H18.5854C18.9618 35.6953 19.071 35.4515 19.0761 34.9933V32.5933C19.0761 32.2888 18.8265 32.1061 18.5826 32.1032H18.4819V31.8834H18.5086L19.1637 31.9045L19.6891 31.8885L22.2013 34.71V32.6121C22.2013 32.1592 21.896 32.1032 21.7293 32.1009H21.578V31.881H21.6019L22.4031 31.9021L23.106 31.881H23.1299V32.1009H23.0212C22.7852 32.1061 22.5413 32.13 22.5356 32.8V35.396C22.5356 35.5948 22.5408 35.7907 22.5703 35.9683V35.9974H22.5464L22.5436 35.9998ZM22.3287 35.9495H22.5146C22.4907 35.7799 22.4855 35.5891 22.4855 35.3984V32.8024C22.4855 32.1188 22.7749 32.0553 23.0189 32.0525H23.0774V31.9308L22.4008 31.952C22.1381 31.952 21.8834 31.9308 21.6263 31.9308V32.0525H21.727C21.9021 32.0525 22.2495 32.1296 22.2495 32.614L22.2416 34.7702L22.2308 34.781L22.2121 34.7993L19.6708 31.9303L19.1613 31.9515C18.9492 31.9515 18.7371 31.9303 18.5301 31.9303V32.052H18.5807C18.8485 32.052 19.1243 32.2559 19.1243 32.59V34.9901C19.1243 35.4482 18.9942 35.7399 18.5858 35.7399H18.5301V35.8593L19.2835 35.8381L19.9972 35.8593V35.7399H19.9255C19.4774 35.7399 19.3632 35.544 19.3632 35.046V32.6328L22.3315 35.9443L22.3287 35.9495ZM24.0243 35.0723C23.9657 35.2659 23.8969 35.4167 23.8969 35.5172C23.8969 35.6892 24.1385 35.716 24.3268 35.716H24.3904V35.8879L23.6979 35.8668L23.0826 35.8879V35.716H23.1172C23.3401 35.716 23.5284 35.5835 23.6131 35.3453L24.5286 32.7282C24.603 32.5163 24.7065 32.2329 24.7407 32.021C24.9238 31.9599 25.1518 31.8462 25.2605 31.7772C25.2792 31.772 25.2872 31.7664 25.3054 31.7664C25.3237 31.7664 25.3345 31.7664 25.3452 31.7823L25.3982 31.9252L26.4485 34.9083L26.6583 35.4909C26.7271 35.6497 26.8465 35.716 27.0347 35.716H27.0694V35.8879L26.2813 35.8668L25.4244 35.8879V35.716H25.4881C25.6182 35.716 25.8407 35.6948 25.8407 35.5515C25.8407 35.4773 25.7901 35.3237 25.7264 35.1409L25.5035 34.4784H24.2064L24.0261 35.0718H24.0233L24.0243 35.0723ZM24.8573 32.5449H24.8465L24.316 34.1584H25.3822L24.8568 32.5449H24.8573Z" fill="#211915"/>
<path id="Vector_11" d="M27.0642 35.9123L26.279 35.8883L25.422 35.9123H25.3953V35.8883V35.6924H25.4829C25.6154 35.6924 25.8093 35.6632 25.8093 35.5547C25.8093 35.4884 25.7615 35.332 25.6978 35.152L25.4801 34.5055H24.22L24.0421 35.0801C23.9835 35.2761 23.9175 35.4274 23.9175 35.5171C23.9175 35.6548 24.1324 35.6891 24.3235 35.6891H24.4111V35.9118H24.3844L23.6946 35.8855L23.0793 35.9094H23.0526V35.8855V35.6895H23.1111C23.3233 35.6895 23.5012 35.5679 23.5832 35.3372L24.4986 32.72L24.7243 31.9969C24.9023 31.9359 25.1326 31.8193 25.2441 31.7507C25.26 31.7456 25.2759 31.7376 25.2998 31.7376C25.3129 31.7376 25.3448 31.7404 25.3607 31.7719L25.4136 31.9147L26.4667 34.8978L26.6765 35.4753C26.743 35.6289 26.8488 35.6872 27.0319 35.6872H27.0905V35.9099H27.0638V35.9127L27.0642 35.9123ZM25.4459 35.862L26.279 35.8408L27.0404 35.862V35.7426H27.0324C26.8362 35.7426 26.7037 35.6656 26.632 35.4988C26.5576 35.3268 26.4887 35.1144 26.4223 34.9162L25.3719 31.933C25.3532 31.8879 25.3373 31.8348 25.3242 31.7954C25.3242 31.7954 25.3214 31.7902 25.3162 31.7902H25.3054C25.3054 31.7902 25.2867 31.793 25.2736 31.7982C25.1143 31.8958 24.943 31.9724 24.7641 32.0261C24.7295 32.2431 24.626 32.5269 24.552 32.7388L23.6393 35.3559C23.5518 35.605 23.3528 35.7426 23.1196 35.7426H23.1116V35.862L23.703 35.8408L24.3689 35.862V35.7426H24.3319C24.146 35.7426 23.8861 35.7215 23.8782 35.5176C23.8782 35.4039 23.947 35.2577 24.0055 35.0646L24.1938 34.4552H25.5255L25.7536 35.1332C25.8173 35.316 25.8702 35.4697 25.8702 35.5519C25.8622 35.7267 25.6206 35.7398 25.4937 35.7426H25.4539V35.862H25.4459ZM24.2785 34.1851L24.825 32.5213H24.8568V32.5453H24.8517L24.8568 32.5213H24.8728L25.4141 34.1851H24.2762H24.2785ZM24.3474 34.1348H25.3476L24.8517 32.6063L24.3474 34.1348ZM27.319 32.1929C26.8891 32.1929 26.8732 32.2962 26.7884 32.7121H26.6161L26.6849 32.2272C26.7088 32.0684 26.7196 31.9067 26.7196 31.7423H26.8577C26.9027 31.9142 27.046 31.9067 27.2 31.9067H30.1473C30.3014 31.9067 30.4447 31.9016 30.455 31.7319L30.5931 31.7559L30.5322 32.2168C30.5191 32.3705 30.5191 32.5241 30.5191 32.6778L30.3491 32.7412C30.3384 32.5293 30.3093 32.1929 29.9272 32.1929H28.9907V35.2263C28.9907 35.6661 29.1897 35.7163 29.4655 35.7163H29.5741V35.8883C29.3513 35.8883 28.9532 35.8672 28.6428 35.8672L27.6772 35.8883V35.7163H27.7858C28.1015 35.7163 28.2607 35.69 28.2607 35.2394V32.1929H27.3241H27.319Z" fill="#211915"/>
<path id="Vector_12" d="M29.5686 35.9124C29.3457 35.9124 28.9453 35.8913 28.6372 35.8913L27.6717 35.9124H27.6478V35.6925H27.7803C28.0959 35.6845 28.2205 35.6817 28.2284 35.2396V32.217H27.3186V32.1695H28.279V35.24C28.279 35.6958 28.0959 35.7409 27.7803 35.7433H27.6955V35.865L28.6372 35.841L29.5447 35.865V35.7433H29.46C29.1842 35.7433 28.9641 35.677 28.9613 35.2269V32.1672H29.9217C30.3061 32.1672 30.3539 32.4928 30.3675 32.7052L30.492 32.6601L30.5051 32.2123L30.5637 31.7753L30.4789 31.7593C30.4522 31.9238 30.2907 31.9341 30.1474 31.9313H27.1711C27.0358 31.9313 26.8925 31.9233 26.8395 31.7645H26.7468C26.7468 31.9233 26.7337 32.077 26.7122 32.2283L26.6485 32.684H26.7707C26.8452 32.2865 26.8953 32.1568 27.3223 32.1648V32.2123C26.8981 32.2203 26.9084 32.2917 26.8157 32.7132V32.7315H26.59V32.7023L26.6644 32.2203C26.6879 32.0607 26.6995 31.8995 26.6991 31.7382V31.7119H26.8794L26.8845 31.7302C26.9243 31.873 27.0306 31.8759 27.1762 31.8787H30.1525C30.3089 31.8759 30.426 31.8735 30.4363 31.725V31.6987L30.4653 31.7039L30.6274 31.7302L30.6222 31.7542L30.5613 32.2151L30.5506 32.676V32.6944L30.5318 32.7023L30.33 32.7766V32.7423C30.3141 32.5276 30.293 32.2179 29.932 32.2179H29.0193V35.2274C29.0245 35.6592 29.1973 35.6883 29.4675 35.6935H29.6V35.9134H29.5761H29.5681L29.5686 35.9124ZM30.8025 35.7165H30.8821C31.0891 35.7165 31.304 35.6902 31.304 35.3909V32.4026C31.304 32.1061 31.0891 32.077 30.8821 32.077H30.8025V31.905L31.6463 31.929L32.543 31.905V32.077H32.4634C32.2564 32.077 32.0392 32.1033 32.0392 32.4026V35.3909C32.0392 35.6874 32.2569 35.7165 32.4634 35.7165H32.543V35.8885C32.2672 35.8885 31.9249 35.8673 31.6411 35.8673L30.8001 35.8885V35.7165H30.8025Z" fill="#211915"/>
<path id="Vector_13" d="M32.5455 35.9126C32.2696 35.9126 31.9273 35.8886 31.6436 35.8886L30.8026 35.9126H30.7787V35.6927H30.8822C31.0891 35.6899 31.2774 35.6716 31.2802 35.3906V32.4023C31.2802 32.1241 31.0891 32.1058 30.8822 32.1002H30.7787V31.8803H30.8026L31.6464 31.9014L32.5431 31.8803H32.567V32.1002H32.4635C32.2537 32.103 32.0655 32.1241 32.0655 32.4023V35.3906C32.0655 35.6687 32.2565 35.6871 32.4635 35.6927H32.567V35.9126H32.5431H32.5455ZM32.5188 35.8623V35.743H32.4658C32.2617 35.743 32.0177 35.7059 32.0177 35.3934V32.4051C32.0177 32.0898 32.2617 32.0555 32.4658 32.0555H32.5188V31.9338L31.6459 31.955C31.3753 31.955 31.0465 31.9338 30.826 31.9338V32.0555H30.8817C31.0859 32.0555 31.3298 32.0898 31.3298 32.4051V35.3934C31.3298 35.7087 31.0859 35.743 30.8817 35.743H30.826V35.8623L31.6403 35.8412L32.516 35.8623H32.5188ZM34.8217 31.822C36.0392 31.822 37.0104 32.5743 37.0104 33.7903C37.0104 35.1016 36.0687 35.9732 34.8507 35.9732C33.6328 35.9732 32.715 35.1519 32.715 33.9256C32.715 32.6992 33.6332 31.822 34.8217 31.822ZM34.9064 35.7242C36.0153 35.7242 36.2092 34.7492 36.2092 33.9176C36.2092 33.0859 35.7582 32.0739 34.8109 32.0739C33.8107 32.0739 33.5138 32.9638 33.5138 33.7268C33.5138 34.7492 33.9807 35.7242 34.9064 35.7242Z" fill="#211915"/>
<path id="Vector_14" d="M32.6888 33.9255C32.6916 32.7255 33.6202 31.7985 34.8217 31.7957V31.8459C33.6464 31.8459 32.7365 32.7518 32.7365 33.9255C32.7365 35.1387 33.6492 35.9468 34.8508 35.9468C36.0551 35.9468 36.9837 35.0861 36.9865 33.7879C36.9865 32.5878 36.0289 31.8459 34.8217 31.8459V31.7957C36.0472 31.7957 37.0315 32.5587 37.0343 33.7879C37.0343 35.1124 36.079 35.9948 34.8508 35.9971C33.6305 35.9943 32.6911 35.1627 32.6888 33.9227V33.9255ZM33.4872 33.7244C33.4872 32.959 33.7897 32.0447 34.8082 32.0447C35.7793 32.0447 36.2303 33.0751 36.2326 33.9152C36.2326 34.7468 36.0364 35.7457 34.906 35.7457V35.6983C35.9938 35.6983 36.1792 34.7473 36.1849 33.9157C36.1849 33.0892 35.7391 32.0982 34.8105 32.0982C33.8313 32.0982 33.5396 32.967 33.5396 33.7272C33.5396 34.7445 34.0037 35.6983 34.9084 35.7006V35.7481C33.9611 35.7481 33.4919 34.7548 33.489 33.7268L33.4862 33.724L33.4872 33.7244ZM40.8595 34.7652L40.8703 34.7543V32.6165C40.8703 32.1504 40.5439 32.0813 40.3716 32.0813H40.2494V31.9094L41.0478 31.9333L41.7506 31.9094V32.0813H41.6659C41.4243 32.0813 41.1564 32.1264 41.1564 32.8044V35.4004C41.1564 35.5992 41.1644 35.7979 41.1911 35.975H40.9733L38.0312 32.7006V35.0504C38.0312 35.5484 38.1267 35.718 38.5697 35.718H38.6681V35.89C38.4213 35.89 38.1773 35.8689 37.9305 35.8689L37.1532 35.89V35.718H37.2328C37.628 35.718 37.7446 35.4507 37.7446 34.9949V32.5921C37.7446 32.2716 37.4819 32.0809 37.2249 32.0809H37.1504V31.9089L37.8083 31.9329L38.315 31.9089L40.8591 34.7675V34.7647L40.8595 34.7652Z" fill="#211915"/>
<path id="Vector_15" d="M41.1882 35.9998L40.9522 35.9918L38.055 32.7653V35.0516C38.063 35.5497 38.1374 35.6873 38.5668 35.6925H38.6914V35.9152H38.6647C38.4179 35.9152 38.1711 35.8941 37.9272 35.8941L37.1499 35.9152H37.126V35.6925H37.2295C37.6059 35.6925 37.7151 35.4487 37.7174 34.9957V32.5929C37.7174 32.2884 37.4678 32.1056 37.2215 32.1028H37.1232V31.8829H37.147L37.805 31.904L38.3327 31.8909L40.8421 34.7124V32.6145C40.8421 32.1615 40.5368 32.1056 40.3701 32.1033H40.2217V31.8834H40.2484L41.0444 31.9045L41.7501 31.8834H41.774V32.1033H41.6653C41.4317 32.1113 41.1877 32.1324 41.1826 32.8024V35.3984C41.1826 35.5971 41.1877 35.7959 41.2144 35.9707L41.2196 35.9998H41.1929H41.1877H41.1882ZM40.9704 35.9495H41.1587C41.132 35.7776 41.1296 35.5891 41.1296 35.3984V32.8024C41.1296 32.1164 41.419 32.0553 41.663 32.0525H41.7239V31.9308L41.0421 31.952C40.7845 31.952 40.5275 31.9308 40.2699 31.9308V32.0525H40.3682C40.5462 32.0525 40.8908 32.1319 40.8908 32.614L40.8829 34.7702L40.8721 34.781L40.8534 34.7993L38.3093 31.9304L37.8026 31.9515C37.5928 31.9515 37.3756 31.9304 37.1714 31.9304V32.052H37.222C37.4898 32.052 37.7656 32.256 37.7656 32.59V34.9929C37.7656 35.4487 37.6383 35.74 37.2271 35.7428H37.1714V35.8621L37.9248 35.841L38.6357 35.8621V35.7428H38.5612C38.1131 35.7428 38.0016 35.5469 38.0016 35.0488V32.6356L40.9676 35.9472L40.9704 35.9495ZM42.6688 35.0728C42.6131 35.2663 42.5443 35.4172 42.5443 35.5177C42.5443 35.6897 42.7859 35.7165 42.9713 35.7165H43.035V35.8884L42.3425 35.8673L41.7272 35.8884V35.7165H41.759C41.9819 35.7165 42.1729 35.584 42.2577 35.3458L43.1732 32.7286C43.2476 32.5167 43.3483 32.2334 43.3829 32.0215C43.566 31.9604 43.7941 31.8467 43.9027 31.7777C43.9214 31.7725 43.9317 31.7668 43.9477 31.7668C43.9636 31.7668 43.9744 31.7668 43.9875 31.7828L44.0404 31.9257L45.0907 34.9088L45.3028 35.4914C45.3717 35.6502 45.4911 35.7165 45.6793 35.7165H45.714V35.8884L44.9259 35.8673L44.0689 35.8884V35.7165H44.1326C44.2628 35.7165 44.488 35.6953 44.488 35.552C44.488 35.4778 44.4351 35.3241 44.3738 35.1414L44.1509 34.4789H42.8561L42.6702 35.0723H42.6674L42.6688 35.0728ZM43.5019 32.5454H43.4911L42.9606 34.1589H44.0296L43.5019 32.5454Z" fill="#211915"/>
<path id="Vector_16" d="M45.7114 35.9121L44.9262 35.891L44.0692 35.9121H44.0425V35.8881V35.6922H44.1301C44.2626 35.6922 44.4588 35.6603 44.4616 35.5517C44.4616 35.4855 44.4111 35.3318 44.3474 35.1491L44.1296 34.5025H42.8695L42.6944 35.0772C42.6387 35.2731 42.567 35.4244 42.5698 35.5141C42.5698 35.6546 42.7848 35.6889 42.973 35.6889H43.0606V35.9116H43.0339L42.3441 35.8877L41.7288 35.9088H41.705V35.8849V35.6889H41.7607C41.9728 35.6889 42.1531 35.5644 42.2355 35.3337L43.151 32.7166L43.3767 31.9935C43.5573 31.9281 43.7313 31.8457 43.8964 31.7473C43.9124 31.7421 43.9283 31.7341 43.9522 31.7341C43.9653 31.7341 43.9971 31.7369 44.0159 31.7684L44.0664 31.9113L45.1167 34.8944L45.3289 35.4747C45.3954 35.6255 45.4988 35.6866 45.6815 35.6894H45.74V35.9121H45.7133H45.7105H45.7114ZM44.0931 35.8618L44.9262 35.8407L45.6876 35.8618V35.7425H45.6796C45.4857 35.7425 45.3509 35.6654 45.2792 35.4986C45.2024 35.3267 45.1359 35.1143 45.0671 34.916L44.0168 31.9329L43.9662 31.7976C43.9662 31.7976 43.9611 31.7896 43.9583 31.7896H43.9475C43.9475 31.7896 43.9288 31.7924 43.9128 31.7976C43.8014 31.8666 43.5762 31.9832 43.4034 32.0254C43.3687 32.2425 43.2652 32.5263 43.1936 32.7382L42.2781 35.3553C42.1906 35.6044 41.9944 35.742 41.7583 35.742H41.7504V35.8614L42.3446 35.8402L43.0133 35.8614V35.742H42.9735C42.7876 35.742 42.5277 35.7209 42.5197 35.517C42.5197 35.4033 42.5914 35.2571 42.6471 35.0668L42.8353 34.4574H44.1671L44.3951 35.1354C44.4588 35.3182 44.5094 35.4718 44.5094 35.5541C44.5014 35.7289 44.2626 35.742 44.1301 35.7448H44.0931V35.8642V35.8618ZM42.9257 34.1821L43.475 32.5211H43.5017V32.5451H43.4965L43.5017 32.5211H43.5204L44.0617 34.1821H42.9257ZM42.9946 34.1346H43.9948L43.4961 32.6085L42.9946 34.1346ZM47.1518 35.329C47.1518 35.5569 47.311 35.6255 47.4941 35.6495C47.7278 35.6678 47.9849 35.6678 48.2504 35.6386C48.4892 35.6123 48.6962 35.4742 48.7968 35.3314C48.8872 35.204 48.9373 35.0452 48.9748 34.9207H49.1391L48.927 35.8905C48.4255 35.8905 47.9216 35.8693 47.4201 35.8693L45.9104 35.8905V35.7185H45.9901C46.197 35.7185 46.4199 35.6922 46.4199 35.337V32.407C46.4199 32.1105 46.197 32.0814 45.9901 32.0814H45.9104V31.9094L46.8123 31.9334L47.6824 31.9094V32.0814H47.5391C47.3241 32.0814 47.1518 32.0865 47.1518 32.3886V35.3318V35.329Z" fill="#211915"/>
<path id="Vector_17" d="M48.9268 35.9124C48.423 35.9124 47.9214 35.8913 47.4199 35.8913L45.9102 35.9124H45.8864V35.6925H45.9898C46.1968 35.6874 46.393 35.6742 46.3958 35.335V32.4026C46.3958 32.1244 46.1996 32.1061 45.9898 32.1033H45.8864V31.8834H45.9102L46.8121 31.9045L47.6822 31.8834H47.7032V32.1033H47.5361C47.316 32.1084 47.1755 32.1005 47.1727 32.3894V35.3326C47.1755 35.5445 47.3132 35.6028 47.4939 35.6291L47.8095 35.6399L48.2445 35.6188C48.4754 35.5896 48.6767 35.4571 48.7751 35.3223C48.8627 35.2006 48.9132 35.0441 48.9474 34.9196L48.9526 34.9013H49.1675L49.1623 34.9332L48.9502 35.903L48.9451 35.9213H48.9263V35.9134L48.9268 35.9124ZM48.9081 35.8621L49.1099 34.9431H48.9933C48.9586 35.0676 48.9085 35.2213 48.8182 35.3458C48.7119 35.4942 48.4997 35.6347 48.253 35.6639C48.1075 35.6795 47.9614 35.6875 47.8151 35.6878C47.7065 35.6878 47.5951 35.6827 47.4939 35.677C47.308 35.6559 47.1277 35.5765 47.1305 35.3326V32.3894C47.1305 32.0713 47.3295 32.0558 47.5445 32.0558H47.6639V31.9341L46.8201 31.9553C46.5227 31.9553 46.2338 31.9341 45.9421 31.9341V32.0558H45.9978C46.202 32.0558 46.4515 32.0901 46.4515 32.4054V35.3378C46.4515 35.7061 46.202 35.7456 45.9978 35.7456H45.9421V35.865L47.4279 35.8438L48.9137 35.865L48.9085 35.8621H48.9081ZM49.0701 31.7452C49.1494 31.7436 49.2282 31.758 49.3018 31.7876C49.3754 31.8172 49.4424 31.8614 49.4986 31.9175C49.5548 31.9737 49.5991 32.0406 49.629 32.1143C49.6588 32.1881 49.6736 32.2671 49.6723 32.3467C49.6723 32.6831 49.4147 32.9453 49.0701 32.9453C48.7255 32.9453 48.4679 32.6831 48.4679 32.3467C48.4666 32.2671 48.4814 32.1881 48.5112 32.1143C48.541 32.0406 48.5854 31.9737 48.6416 31.9175C48.6978 31.8614 48.7647 31.8172 48.8384 31.7876C48.912 31.758 48.9908 31.7436 49.0701 31.7452ZM49.0701 32.8339C49.3379 32.8339 49.5449 32.606 49.5449 32.3467C49.5449 32.0873 49.3431 31.8566 49.0701 31.8566C48.7971 31.8566 48.5925 32.0873 48.5925 32.3467C48.5925 32.606 48.7994 32.8339 49.0701 32.8339ZM48.7704 32.6643V32.6352C48.8449 32.6243 48.858 32.6272 48.858 32.5821V32.1371C48.858 32.0737 48.85 32.0525 48.7732 32.0577V32.0257H49.0809C49.1843 32.0257 49.2827 32.076 49.2827 32.1846C49.2827 32.2748 49.2242 32.341 49.1394 32.3673L49.2377 32.505C49.2855 32.5661 49.3361 32.6243 49.3702 32.6455V32.6638H49.2537C49.1979 32.6638 49.1502 32.5445 49.0387 32.3885H48.9722V32.5872C48.9722 32.6272 48.9853 32.6243 49.0598 32.6347V32.6638L48.7704 32.6643ZM48.9746 32.3462H49.0434C49.1202 32.3462 49.1577 32.2879 49.1577 32.1925C49.1577 32.0972 49.1019 32.0629 49.0411 32.0629H48.9746V32.3438V32.3467V32.3462Z" fill="#211915"/>
</g>
</g>
</svg>
