<svg width="360" height="349" viewBox="0 0 360 349" fill="none" xmlns="http://www.w3.org/2000/svg">
<g clip-path="url(#clip0_398_163)">
<path d="M307.278 171.643C377.571 212.215 377.571 277.999 307.278 318.571C236.985 359.143 123.015 359.143 52.7219 318.571C-17.5714 277.999 -17.5714 212.215 52.7219 171.643C123.015 131.072 236.985 131.072 307.278 171.643Z" fill="#F0F0F0"/>
<path d="M283.373 281.161C271.57 274.349 271.57 263.304 283.373 256.492C295.177 249.679 314.314 249.679 326.118 256.492C337.921 263.304 337.921 274.349 326.118 281.161C314.314 287.974 295.177 287.974 283.373 281.161Z" fill="#E0E0E0"/>
<path d="M43.3021 282.101L12.2541 264.183C10.5046 263.174 10.5046 261.532 12.2541 260.524L192.85 156.284C194.6 155.276 197.442 155.276 199.191 156.284L230.239 174.202C231.988 175.21 231.988 176.852 230.239 177.861L49.643 282.101C47.8935 283.109 45.0516 283.109 43.3021 282.101Z" fill="#E0E0E0"/>
<path d="M154.903 250.168L181.597 234.739C184.347 233.151 185.722 231.073 185.722 228.988C185.722 226.903 185.737 225.276 185.737 225.276L158.043 209.664C156.577 208.817 155.385 206.754 155.385 205.066V172.171L108.767 199.101V231.997C108.767 233.693 109.951 235.747 111.426 236.595L134.987 250.168C140.487 253.345 149.41 253.345 154.911 250.168H154.903Z" fill="#09A5B1"/>
<g opacity="0.6">
<path d="M154.903 250.168L181.597 234.739C184.347 233.151 185.722 231.073 185.722 228.988C185.722 226.903 185.737 225.276 185.737 225.276L158.043 209.664C156.577 208.817 155.385 206.754 155.385 205.066V172.171L108.767 199.101V231.997C108.767 233.693 109.951 235.747 111.426 236.595L134.987 250.168C140.487 253.345 149.41 253.345 154.911 250.168H154.903Z" fill="black"/>
</g>
<path opacity="0.3" d="M119.959 237.817V241.514L111.418 236.587C109.959 235.747 108.767 233.685 108.767 231.99V199.094L117.652 193.969C117.835 196.222 118.034 198.551 118.217 200.827L111.991 204.432V230.134C111.991 231.837 113.175 233.891 114.642 234.731L119.967 237.817H119.959Z" fill="black"/>
<path d="M111.976 230.141C111.976 231.837 113.168 233.891 114.634 234.739L134.971 246.448C140.472 249.625 149.395 249.625 154.903 246.448L181.604 231.02C187.105 227.842 187.105 222.694 181.604 219.517L161.252 207.793C159.785 206.945 158.593 204.883 158.593 203.195V177.487L111.976 204.417V230.126V230.141Z" fill="#09A5B1"/>
<path opacity="0.3" d="M111.976 230.141C111.976 231.837 113.168 233.891 114.634 234.739L134.971 246.448C140.472 249.625 149.395 249.625 154.903 246.448L181.604 231.02C187.105 227.842 187.105 222.694 181.604 219.517L161.252 207.793C159.785 206.945 158.593 204.883 158.593 203.195V177.487L111.976 204.417V230.126V230.141Z" fill="black"/>
<path opacity="0.5" d="M166.669 210.932L161.26 207.808C159.793 206.961 158.601 204.898 158.601 203.21V177.502L111.983 204.432V230.141C111.983 231.837 113.175 233.891 114.642 234.739L119.959 237.809L166.676 210.932H166.669Z" fill="black"/>
<path d="M185.73 225.276V228.988C185.73 231.073 184.347 233.143 181.604 234.739L154.911 250.16C152.275 251.695 148.853 252.459 145.4 252.52V248.823C148.853 248.778 152.275 247.983 154.911 246.463L181.604 231.027C184.347 229.446 185.73 227.361 185.73 225.276Z" fill="#09A5B1"/>
<path opacity="0.5" d="M185.73 225.276V228.988C185.73 231.073 184.347 233.143 181.604 234.739L154.911 250.16C152.275 251.695 148.853 252.459 145.4 252.52V248.823C148.853 248.778 152.275 247.983 154.911 246.463L181.604 231.027C184.347 229.446 185.73 227.361 185.73 225.276Z" fill="black"/>
<path d="M37.1215 262.09C38.8404 263.083 41.7206 263.029 43.5618 261.968C66.481 248.739 200.941 171.132 223.86 157.903C225.693 156.842 227.183 154.268 227.183 152.152V6.34712C227.183 4.23146 225.785 1.711 224.066 0.718089C222.347 -0.27482 219.467 -0.221356 217.626 0.840293L37.3278 104.897C35.4942 105.959 34.0045 108.533 34.0045 110.648V256.461C34.0045 258.577 35.3949 261.097 37.1215 262.09Z" fill="#09A5B1"/>
<path d="M43.5618 261.968L223.86 157.903C225.693 156.842 227.183 154.268 227.183 152.152V6.33952C227.183 4.22386 225.693 3.36079 223.86 4.42244L43.5618 108.487C41.7283 109.549 40.2385 112.123 40.2385 114.238V260.051C40.2385 262.166 41.7206 263.029 43.5542 261.968H43.5618Z" fill="#09A5B1"/>
<path opacity="0.5" d="M43.5618 261.968L223.86 157.903C225.693 156.842 227.183 154.268 227.183 152.152V6.33952C227.183 4.22386 225.693 3.36079 223.86 4.42244L43.5618 108.487C41.7283 109.549 40.2385 112.123 40.2385 114.238V260.051C40.2385 262.166 41.7206 263.029 43.5542 261.968H43.5618Z" fill="black"/>
<path d="M43.0729 265.764C41.2317 266.573 38.6877 266.543 37.1215 265.642C35.4026 264.641 34.0045 262.128 34.0045 259.997V246.723L40.2309 250.328V263.602C40.2309 265.535 41.4609 266.405 43.0652 265.764H43.0729Z" fill="#09A5B1"/>
<path opacity="0.5" d="M43.0729 265.764C41.2317 266.573 38.6877 266.543 37.1215 265.642C35.4026 264.641 34.0045 262.128 34.0045 259.997V246.723L40.2309 250.328V263.602C40.2309 265.535 41.4609 266.405 43.0652 265.764H43.0729Z" fill="black"/>
<path d="M40.2309 250.32V263.595C40.2309 265.71 41.7206 266.573 43.5542 265.512L223.852 161.447C225.686 160.386 227.175 157.812 227.175 155.696V142.399L40.2309 250.32Z" fill="#09A5B1"/>
<path opacity="0.3" d="M40.2385 250.297V263.595C40.2385 265.71 41.7283 266.573 43.5618 265.512L223.86 161.447C225.693 160.386 227.183 157.812 227.183 155.696V142.399L40.2385 250.297Z" fill="black"/>
<path d="M46.4649 233.662V116.3C46.4649 115.032 47.3588 113.482 48.4589 112.848L218.947 14.4507C220.048 13.8168 220.941 14.3285 220.941 15.604V132.966C220.941 134.234 220.055 135.784 218.955 136.418L48.4589 234.816C47.3588 235.449 46.4649 234.938 46.4649 233.662Z" fill="#09A5B1"/>
<path d="M46.4649 233.662V116.3C46.4649 115.032 47.3588 113.482 48.4589 112.848L218.947 14.4507C220.048 13.8168 220.941 14.3285 220.941 15.604V132.966C220.941 134.234 220.055 135.784 218.955 136.418L48.4589 234.816C47.3588 235.449 46.4649 234.938 46.4649 233.662Z" fill="#07324A"/>
<path d="M133.703 200.583C131.984 201.576 130.586 203.99 130.586 205.983C130.586 207.976 131.984 208.778 133.703 207.778C135.422 206.785 136.82 204.371 136.82 202.378C136.82 200.392 135.422 199.583 133.703 200.583Z" fill="#09A5B1"/>
<path opacity="0.7" d="M41.2164 110.954C40.6205 112 40.2538 113.176 40.2385 114.238V250.32L34.0121 246.715V110.641C34.0121 109.579 34.3941 108.403 34.99 107.356L41.2164 110.946V110.954Z" fill="black"/>
<path opacity="0.3" d="M227.145 5.79717C226.908 4.08631 225.525 3.46765 223.852 4.42237L43.5618 108.487C42.6527 109.014 41.8276 109.908 41.2164 110.954L34.99 107.357C35.5936 106.325 36.4187 105.417 37.3354 104.89L217.626 0.832622C219.467 -0.229027 222.339 -0.282491 224.066 0.718056C225.64 1.61931 226.931 3.81135 227.145 5.79717Z" fill="black"/>
<path d="M236.87 23.7381C236.435 23.4784 235.846 23.486 235.174 23.8756L65.0524 122.082C63.7689 122.823 62.7223 124.625 62.7223 126.107V242.751C62.7223 243.652 63.1119 244.454 63.7078 244.775C64.0898 244.981 66.0838 246.142 66.6797 246.463C67.0617 246.669 67.5277 246.677 68.0319 246.387L238.154 148.134C239.437 147.393 240.484 145.591 240.484 144.109V26.9001C240.484 26.1363 240.209 25.6017 239.766 25.3726C239.346 25.1511 237.313 23.9978 236.878 23.7381H236.87Z" fill="#09A5B1"/>
<path d="M67.2603 246.226C66.6109 246.226 66.0838 245.424 66.0838 244.439V127.795C66.0838 126.458 67.0617 124.763 68.2229 124.098L238.345 25.8843C238.65 25.7086 238.941 25.6169 239.193 25.6169C239.758 25.6169 240.102 26.0981 240.102 26.8924V144.102C240.102 145.438 239.124 147.134 237.963 147.798L67.8409 246.05C67.6423 246.165 67.4436 246.226 67.2603 246.226Z" fill="#FAFAFA"/>
<path d="M239.193 25.9989C239.651 25.9989 239.72 26.5641 239.72 26.8925V144.102C239.72 145.316 238.826 146.859 237.772 147.47L67.6499 245.722C67.5048 245.806 67.3749 245.844 67.2603 245.844C66.8325 245.844 66.4658 245.187 66.4658 244.439V127.795C66.4658 126.581 67.3596 125.038 68.4139 124.427L238.536 26.2204C238.841 26.0447 239.063 26.0065 239.193 26.0065M239.193 25.2351C238.88 25.2351 238.528 25.3344 238.154 25.5559L68.0243 123.77C66.7408 124.511 65.6942 126.313 65.6942 127.803V244.447C65.6942 245.623 66.3435 246.616 67.2527 246.616C67.4971 246.616 67.7492 246.547 68.0243 246.394L238.146 148.142C239.43 147.401 240.476 145.599 240.476 144.117V26.9001C240.476 25.8461 239.949 25.2427 239.185 25.2427L239.193 25.2351Z" fill="#E0E0E0"/>
<path d="M63.7002 244.775C63.9523 244.913 65.7629 245.944 66.5574 246.394C66.0227 246.012 65.74 245.355 65.7018 244.439V135.41L62.7223 133.668V242.759C62.7223 243.66 63.1119 244.462 63.7002 244.775Z" fill="#F0F0F0"/>
<path d="M240.476 26.8849C240.469 25.4185 239.43 24.8227 238.154 25.556L68.0243 123.77C66.7408 124.511 65.6942 126.313 65.6942 127.803V135.41L240.476 34.5227V26.8849Z" fill="#09A5B1"/>
<g opacity="0.4">
<path d="M238.154 25.5559L68.0243 123.77C67.3902 124.144 66.8019 124.77 66.3817 125.496L63.4251 123.785C63.8453 123.067 64.4183 122.441 65.0448 122.09L235.182 23.868C235.847 23.4785 236.442 23.4708 236.87 23.7305C237.29 23.9902 239.223 25.0824 239.712 25.3497C239.3 25.1511 238.75 25.2122 238.154 25.5559Z" fill="white"/>
</g>
<path opacity="0.15" d="M62.7223 133.676V126.115C62.7223 125.359 62.9973 124.526 63.4328 123.785L66.397 125.488C65.9615 126.222 65.7018 127.046 65.7018 127.803V135.41L62.7223 133.676Z" fill="black"/>
<path d="M204.6 114.811L102.709 173.622C101.769 174.164 101.005 175.485 101.005 176.57V205.777C101.005 206.861 101.769 208.175 102.709 208.717L105.688 210.428C106.628 210.97 108.148 210.97 109.088 210.428L210.972 151.625C211.911 151.083 212.675 149.761 212.675 148.677L212.69 119.462C212.69 118.378 211.927 117.064 210.987 116.522L208.007 114.811C207.068 114.268 205.547 114.268 204.608 114.811H204.6Z" fill="#09A5B1"/>
<path opacity="0.5" d="M212.668 119.187C212.553 118.309 211.835 117.988 210.979 118.477L109.088 177.288C108.614 177.555 108.194 178.029 107.888 178.563L101.509 174.882C101.815 174.355 102.243 173.889 102.701 173.629L204.6 114.819C205.532 114.276 207.06 114.269 208 114.811L210.979 116.522C211.842 117.018 212.561 118.171 212.668 119.195V119.187Z" fill="white"/>
<path d="M108.798 210.558C107.858 210.955 106.536 210.909 105.688 210.428L102.709 208.717C101.769 208.175 101.005 206.854 101.005 205.769V176.57C101.005 176.02 101.204 175.416 101.509 174.882L107.888 178.563C107.575 179.098 107.384 179.694 107.384 180.236V209.443C107.384 210.413 107.995 210.863 108.798 210.558Z" fill="#07324A"/>
<path d="M109.088 177.288L210.979 118.477C211.919 117.935 212.683 118.378 212.675 119.462L212.66 148.677C212.66 149.761 211.896 151.083 210.956 151.625L109.073 210.428C108.133 210.97 107.369 210.527 107.369 209.443V180.236C107.369 179.151 108.133 177.83 109.073 177.288H109.088Z" fill="#09A5B1"/>
<path d="M177.586 130.399L102.701 173.622C102.235 173.889 101.815 174.355 101.509 174.874L107.888 178.556C108.194 178.021 108.622 177.547 109.088 177.28L183.957 134.066L177.593 130.392L177.586 130.399Z" fill="#00669E"/>
<path d="M183.957 134.073L109.088 177.288C108.148 177.83 107.384 179.151 107.384 180.236V209.443C107.384 210.527 108.148 210.963 109.088 210.428L183.957 167.214V134.081V134.073Z" fill="#0A4C70"/>
<path d="M126.354 173.736L164.988 151.434C166.592 150.51 167.891 151.167 167.891 152.9C167.891 154.634 166.592 156.788 164.988 157.712L126.361 180.007C124.757 180.931 123.458 180.274 123.458 178.54C123.458 176.807 124.757 174.653 126.354 173.728V173.736Z" fill="#09A5B1"/>
<path d="M134.268 181.114C134.314 181.091 134.353 181.099 134.383 181.137C134.414 181.175 134.429 181.229 134.429 181.313V185.659C134.429 186.094 134.391 186.514 134.322 186.911C134.253 187.308 134.146 187.675 134.001 188.011C133.856 188.347 133.68 188.645 133.466 188.912C133.252 189.172 133 189.386 132.718 189.546C132.427 189.714 132.183 189.791 131.969 189.775C131.755 189.76 131.579 189.669 131.434 189.493C131.289 189.325 131.182 189.08 131.113 188.767C131.045 188.454 131.006 188.08 131.006 187.637V183.291C131.006 183.215 131.022 183.138 131.052 183.062C131.083 182.985 131.121 182.94 131.167 182.909L131.648 182.626C131.694 182.604 131.732 182.604 131.763 182.649C131.793 182.688 131.808 182.749 131.808 182.825V187.125C131.808 187.415 131.831 187.652 131.877 187.828C131.923 188.011 131.984 188.141 132.061 188.225C132.137 188.309 132.236 188.347 132.351 188.347C132.466 188.347 132.588 188.301 132.718 188.225C132.847 188.149 132.97 188.049 133.084 187.919C133.199 187.797 133.298 187.644 133.375 187.469C133.451 187.293 133.52 187.087 133.566 186.858C133.611 186.629 133.634 186.369 133.634 186.079V181.786C133.634 181.71 133.65 181.634 133.68 181.557C133.711 181.481 133.749 181.435 133.795 181.404L134.268 181.129V181.114Z" fill="#FAFAFA"/>
<path d="M137.263 185.231C137.263 185.155 137.248 185.101 137.217 185.063C137.187 185.032 137.141 185.009 137.072 185.009C137.004 185.009 136.912 185.017 136.797 185.04C136.683 185.063 136.537 185.093 136.354 185.124C136.178 185.155 136.033 185.147 135.919 185.109C135.804 185.071 135.712 185.002 135.644 184.895C135.575 184.796 135.529 184.658 135.498 184.498C135.468 184.337 135.46 184.146 135.46 183.933C135.46 183.719 135.491 183.497 135.544 183.26C135.598 183.024 135.682 182.795 135.789 182.573C135.896 182.352 136.026 182.153 136.171 181.962C136.324 181.779 136.492 181.626 136.69 181.511C136.889 181.397 137.057 181.336 137.21 181.328C137.363 181.313 137.492 181.343 137.599 181.412C137.706 181.481 137.79 181.572 137.852 181.71C137.913 181.84 137.943 181.993 137.951 182.153C137.951 182.229 137.936 182.306 137.905 182.382C137.874 182.458 137.829 182.512 137.79 182.535L137.332 182.802C137.271 182.84 137.225 182.84 137.195 182.825C137.164 182.802 137.133 182.779 137.095 182.749C137.057 182.718 137.011 182.703 136.95 182.703C136.889 182.703 136.805 182.733 136.683 182.802C136.56 182.871 136.461 182.963 136.369 183.077C136.278 183.192 136.232 183.337 136.232 183.497C136.232 183.574 136.24 183.635 136.262 183.673C136.285 183.711 136.324 183.734 136.385 183.742C136.446 183.749 136.53 183.742 136.644 183.726C136.751 183.711 136.897 183.681 137.072 183.642C137.424 183.574 137.676 183.642 137.821 183.841C137.966 184.047 138.043 184.36 138.043 184.78C138.043 184.994 138.012 185.216 137.951 185.452C137.89 185.689 137.806 185.918 137.691 186.14C137.577 186.361 137.439 186.575 137.271 186.766C137.103 186.957 136.919 187.11 136.713 187.232C136.499 187.354 136.316 187.415 136.156 187.423C135.995 187.423 135.858 187.392 135.751 187.316C135.636 187.24 135.552 187.133 135.491 186.988C135.43 186.843 135.399 186.69 135.392 186.522C135.392 186.445 135.399 186.369 135.437 186.293C135.476 186.216 135.506 186.163 135.552 186.14L136.01 185.873C136.071 185.842 136.117 185.834 136.148 185.873C136.178 185.903 136.209 185.941 136.247 185.987C136.285 186.033 136.339 186.056 136.408 186.063C136.476 186.071 136.576 186.041 136.713 185.964C136.774 185.926 136.835 185.888 136.897 185.834C136.958 185.781 137.019 185.727 137.072 185.666C137.126 185.605 137.172 185.536 137.21 185.46C137.248 185.384 137.263 185.307 137.263 185.231Z" fill="#FAFAFA"/>
<path d="M138.822 183.154C138.822 182.756 138.852 182.367 138.921 181.977C138.99 181.588 139.089 181.229 139.211 180.893C139.341 180.564 139.494 180.266 139.677 180.014C139.861 179.762 140.059 179.571 140.281 179.442C140.503 179.312 140.709 179.266 140.885 179.312C141.068 179.35 141.221 179.457 141.351 179.633C141.48 179.801 141.58 180.03 141.648 180.32C141.717 180.61 141.755 180.931 141.755 181.298V181.771C141.755 181.847 141.74 181.924 141.71 182C141.679 182.077 141.641 182.122 141.595 182.153L139.601 183.306C139.601 183.467 139.624 183.604 139.662 183.703C139.7 183.803 139.754 183.879 139.815 183.933C139.876 183.978 139.952 184.001 140.036 183.994C140.121 183.994 140.205 183.955 140.296 183.91C140.426 183.833 140.525 183.757 140.609 183.665C140.686 183.574 140.755 183.482 140.808 183.375C140.854 183.291 140.885 183.238 140.915 183.199C140.946 183.161 140.984 183.131 141.03 183.1L141.511 182.825C141.557 182.802 141.595 182.802 141.626 182.84C141.656 182.879 141.671 182.94 141.671 183.016C141.671 183.115 141.633 183.26 141.58 183.451C141.519 183.642 141.435 183.841 141.32 184.055C141.205 184.269 141.06 184.483 140.892 184.681C140.724 184.887 140.525 185.048 140.304 185.178C140.082 185.307 139.876 185.353 139.7 185.323C139.517 185.292 139.364 185.185 139.234 185.002C139.104 184.819 139.013 184.574 138.944 184.261C138.875 183.948 138.845 183.581 138.845 183.161L138.822 183.154ZM140.289 180.717C140.174 180.786 140.075 180.87 139.991 180.977C139.907 181.084 139.838 181.198 139.784 181.328C139.731 181.458 139.685 181.588 139.655 181.718C139.624 181.855 139.609 181.977 139.593 182.084L140.946 181.305C140.938 181.206 140.923 181.099 140.9 181C140.877 180.893 140.839 180.809 140.793 180.74C140.739 180.671 140.678 180.633 140.594 180.618C140.51 180.603 140.411 180.633 140.281 180.709L140.289 180.717Z" fill="#FAFAFA"/>
<path d="M144.154 178.594C143.917 178.731 143.742 178.922 143.635 179.174C143.528 179.426 143.474 179.762 143.474 180.183V182.94C143.474 183.016 143.459 183.093 143.429 183.169C143.398 183.245 143.36 183.291 143.314 183.322L142.863 183.581C142.817 183.604 142.779 183.597 142.749 183.558C142.718 183.52 142.703 183.459 142.703 183.383V178.441C142.703 178.365 142.718 178.288 142.749 178.212C142.779 178.136 142.817 178.09 142.863 178.059L143.314 177.8C143.36 177.777 143.398 177.777 143.429 177.822C143.459 177.861 143.474 177.922 143.474 177.998V178.243C143.581 178.013 143.688 177.815 143.803 177.654C143.917 177.494 144.07 177.357 144.269 177.25L144.536 177.097C144.582 177.074 144.62 177.082 144.651 177.12C144.681 177.158 144.697 177.219 144.697 177.295V177.998C144.697 178.075 144.681 178.151 144.651 178.227C144.62 178.304 144.582 178.349 144.536 178.38L144.147 178.602L144.154 178.594Z" fill="#FAFAFA"/>
<path d="M149.854 178.22C149.899 178.197 149.938 178.204 149.968 178.243C149.999 178.281 150.014 178.342 150.014 178.418V179.174C150.014 179.251 149.999 179.327 149.968 179.404C149.938 179.48 149.899 179.526 149.854 179.556L147.241 181.069C147.195 181.092 147.157 181.084 147.126 181.046C147.096 181.007 147.08 180.946 147.08 180.87V174.019C147.08 173.943 147.096 173.866 147.126 173.79C147.157 173.713 147.195 173.668 147.241 173.637L147.722 173.354C147.768 173.332 147.806 173.339 147.837 173.377C147.867 173.416 147.883 173.469 147.883 173.553V179.365L149.854 178.227V178.22Z" fill="#FAFAFA"/>
<path d="M152.199 172.568C152.421 172.438 152.619 172.384 152.795 172.407C152.971 172.423 153.123 172.499 153.253 172.644C153.383 172.782 153.49 172.965 153.566 173.209C153.643 173.446 153.689 173.729 153.704 174.042C153.704 174.103 153.704 174.179 153.704 174.286V174.874C153.704 174.966 153.704 175.05 153.704 175.119C153.689 175.455 153.643 175.783 153.566 176.112C153.49 176.44 153.391 176.746 153.261 177.028C153.131 177.311 152.978 177.563 152.802 177.784C152.627 178.006 152.428 178.181 152.207 178.304C151.985 178.426 151.786 178.487 151.611 178.464C151.435 178.449 151.282 178.372 151.152 178.235C151.022 178.105 150.923 177.914 150.847 177.677C150.77 177.441 150.724 177.158 150.709 176.845C150.709 176.784 150.709 176.707 150.702 176.608C150.702 176.516 150.702 176.417 150.702 176.318C150.702 176.219 150.702 176.119 150.702 176.02C150.702 175.921 150.702 175.837 150.709 175.768C150.724 175.432 150.77 175.103 150.847 174.775C150.923 174.447 151.03 174.141 151.16 173.851C151.29 173.561 151.443 173.309 151.618 173.087C151.794 172.866 151.993 172.69 152.214 172.568H152.199ZM152.917 174.538C152.902 174.324 152.879 174.164 152.833 174.042C152.787 173.927 152.734 173.843 152.665 173.797C152.596 173.752 152.527 173.736 152.443 173.752C152.367 173.767 152.283 173.797 152.199 173.843C152.115 173.889 152.039 173.958 151.954 174.034C151.878 174.11 151.802 174.21 151.733 174.34C151.664 174.462 151.611 174.615 151.565 174.783C151.519 174.951 151.488 175.149 151.481 175.378C151.481 175.439 151.481 175.508 151.473 175.6C151.473 175.684 151.473 175.776 151.473 175.867C151.473 175.959 151.473 176.05 151.473 176.134C151.473 176.219 151.473 176.287 151.481 176.341C151.496 176.555 151.519 176.715 151.565 176.837C151.611 176.959 151.664 177.036 151.733 177.082C151.802 177.127 151.87 177.143 151.954 177.127C152.031 177.112 152.115 177.082 152.199 177.036C152.283 176.99 152.367 176.929 152.443 176.845C152.52 176.761 152.596 176.669 152.665 176.539C152.734 176.417 152.787 176.264 152.833 176.096C152.879 175.928 152.909 175.73 152.917 175.501C152.917 175.447 152.917 175.378 152.917 175.287V174.752C152.917 174.668 152.917 174.599 152.917 174.546V174.538Z" fill="#FAFAFA"/>
<path d="M156.034 177.036C156.118 176.99 156.202 176.914 156.294 176.822C156.378 176.723 156.462 176.608 156.531 176.471C156.599 176.333 156.661 176.173 156.706 175.989C156.752 175.806 156.775 175.623 156.775 175.417V175.027C156.745 175.111 156.699 175.203 156.653 175.31C156.599 175.417 156.538 175.523 156.462 175.623C156.386 175.73 156.302 175.829 156.202 175.928C156.103 176.028 155.996 176.112 155.874 176.18C155.675 176.295 155.492 176.333 155.331 176.287C155.171 176.241 155.033 176.134 154.919 175.974C154.804 175.814 154.712 175.6 154.651 175.332C154.583 175.073 154.552 174.775 154.537 174.454C154.537 174.347 154.537 174.225 154.537 174.088C154.537 173.95 154.537 173.82 154.537 173.713C154.544 173.385 154.583 173.049 154.651 172.713C154.72 172.377 154.804 172.056 154.919 171.766C155.033 171.475 155.171 171.208 155.331 170.979C155.492 170.75 155.675 170.574 155.874 170.46C155.996 170.391 156.111 170.345 156.202 170.33C156.302 170.314 156.386 170.322 156.462 170.337C156.538 170.36 156.599 170.391 156.653 170.437C156.706 170.483 156.745 170.528 156.775 170.574V170.33C156.775 170.253 156.79 170.177 156.821 170.101C156.852 170.024 156.89 169.978 156.936 169.948L157.386 169.688C157.432 169.665 157.47 169.673 157.501 169.711C157.532 169.749 157.547 169.81 157.547 169.887V174.859C157.547 175.714 157.409 176.44 157.142 177.028C156.875 177.616 156.5 178.052 156.026 178.319C155.82 178.433 155.637 178.495 155.461 178.502C155.285 178.502 155.14 178.464 155.01 178.38C154.881 178.296 154.781 178.174 154.705 178.013C154.628 177.853 154.59 177.67 154.583 177.463C154.583 177.387 154.59 177.311 154.628 177.234C154.659 177.158 154.697 177.104 154.743 177.082L155.148 176.845C155.201 176.814 155.247 176.822 155.293 176.86C155.331 176.906 155.369 176.944 155.392 176.99C155.446 177.082 155.515 177.135 155.606 177.166C155.698 177.196 155.835 177.15 156.026 177.036H156.034ZM155.316 173.331C155.301 173.538 155.301 173.736 155.316 173.927C155.339 174.37 155.423 174.66 155.553 174.783C155.69 174.905 155.851 174.912 156.049 174.798C156.248 174.683 156.408 174.485 156.538 174.202C156.668 173.92 156.752 173.583 156.768 173.186C156.768 173.079 156.783 172.942 156.783 172.774C156.783 172.606 156.783 172.476 156.768 172.377C156.745 172.018 156.668 171.773 156.538 171.636C156.408 171.498 156.24 171.491 156.049 171.605C155.851 171.72 155.69 171.911 155.553 172.193C155.415 172.476 155.339 172.85 155.316 173.324V173.331Z" fill="#FAFAFA"/>
<path d="M159.319 166.549C159.365 166.526 159.403 166.526 159.434 166.564C159.464 166.603 159.48 166.664 159.48 166.74V167.565C159.48 167.641 159.464 167.718 159.434 167.794C159.403 167.87 159.365 167.916 159.319 167.947L158.807 168.245C158.762 168.268 158.723 168.26 158.693 168.222C158.662 168.184 158.647 168.122 158.647 168.046V167.221C158.647 167.145 158.662 167.068 158.693 166.992C158.723 166.916 158.762 166.87 158.807 166.839L159.319 166.541V166.549ZM159.449 173.721C159.449 173.797 159.434 173.874 159.403 173.95C159.373 174.026 159.334 174.072 159.289 174.103L158.838 174.363C158.792 174.385 158.754 174.378 158.723 174.34C158.693 174.301 158.677 174.248 158.677 174.164V169.222C158.677 169.146 158.693 169.07 158.723 168.993C158.754 168.917 158.792 168.871 158.838 168.84L159.289 168.581C159.334 168.558 159.373 168.565 159.403 168.604C159.434 168.642 159.449 168.695 159.449 168.779V173.721Z" fill="#FAFAFA"/>
<path d="M163.483 171.391C163.483 171.468 163.468 171.544 163.437 171.62C163.406 171.697 163.368 171.743 163.322 171.773L162.872 172.033C162.826 172.056 162.788 172.048 162.757 172.01C162.727 171.972 162.711 171.911 162.711 171.834V169.138C162.711 168.711 162.658 168.405 162.543 168.214C162.429 168.023 162.261 167.993 162.031 168.13C161.817 168.252 161.657 168.474 161.535 168.802C161.413 169.123 161.351 169.505 161.351 169.925V172.621C161.351 172.697 161.336 172.774 161.306 172.85C161.275 172.927 161.237 172.972 161.191 173.003L160.74 173.263C160.694 173.286 160.656 173.278 160.626 173.24C160.595 173.202 160.58 173.14 160.58 173.064V168.122C160.58 168.046 160.595 167.97 160.626 167.893C160.656 167.817 160.694 167.771 160.74 167.741L161.191 167.481C161.237 167.458 161.275 167.458 161.306 167.504C161.336 167.542 161.351 167.603 161.351 167.679V167.924C161.458 167.679 161.573 167.458 161.718 167.259C161.856 167.061 162.024 166.9 162.215 166.793C162.459 166.656 162.658 166.602 162.826 166.641C162.986 166.679 163.124 166.786 163.215 166.954C163.315 167.122 163.384 167.343 163.429 167.618C163.468 167.893 163.491 168.199 163.491 168.535V171.391H163.483Z" fill="#FAFAFA"/>
<path d="M202.025 149.158L194.607 153.443L195.761 143.04C194.875 142.574 194.309 141.413 194.309 139.756C194.309 136.8 196.105 133.371 198.32 132.087C200.536 130.804 202.331 132.164 202.331 135.12C202.331 136.777 201.766 138.587 200.879 140.077L202.033 149.158H202.025Z" fill="#165863"/>
<path d="M202.025 149.158L195.493 145.392L194.6 153.443L202.025 149.158Z" fill="#083B44"/>
<path d="M198.312 132.087C196.861 132.928 195.593 134.684 194.89 136.632L200.872 140.084C201.758 138.587 202.323 136.785 202.323 135.12C202.323 132.164 200.528 130.804 198.312 132.087Z" fill="#083B44"/>
<path d="M162.238 97.4579C159.701 95.9915 156.195 96.1977 152.314 98.4356C144.567 102.904 138.287 113.78 138.287 122.724C138.287 127.207 139.868 130.354 142.428 131.813C143.092 132.194 146.698 134.287 147.371 134.677C149.907 136.143 153.414 135.937 157.287 133.699C165.034 129.231 171.314 118.355 171.314 109.411C171.314 104.943 169.747 101.804 167.211 100.337" fill="#09A5B1"/>
<path d="M157.287 101.315C149.54 105.791 143.26 116.659 143.26 125.603C143.26 134.547 149.54 138.167 157.287 133.699C165.034 129.231 171.321 118.355 171.314 109.411C171.306 100.467 165.026 96.847 157.287 101.315Z" fill="#09A5B1"/>
<path d="M165.026 121.15V122.174C163.032 125.58 160.297 128.551 157.279 130.285C154.262 132.026 151.534 132.217 149.533 131.102V128.987C149.533 124.9 152.306 120.104 155.843 118.057L157.883 116.888C159.694 115.842 161.443 115.712 162.818 116.507C164.224 117.316 165.018 119.004 165.018 121.15H165.026Z" fill="#09A5B1"/>
<path opacity="0.4" d="M162.238 97.4579L167.211 100.337C164.675 98.8708 161.168 99.0771 157.295 101.315C152.222 104.248 147.783 109.923 145.316 116.002L140.342 113.123C142.802 107.043 147.248 101.368 152.321 98.4431C156.195 96.2053 159.701 95.999 162.238 97.4655V97.4579Z" fill="white"/>
<path opacity="0.2" d="M147.187 134.562C146.309 134.058 143.047 132.156 142.428 131.805C139.876 130.346 138.287 127.199 138.287 122.716L143.26 125.596C143.26 129.957 144.758 133.05 147.18 134.562H147.187Z" fill="black"/>
<path opacity="0.1" d="M140.334 113.115L145.308 115.995C144.009 119.203 143.26 122.517 143.26 125.595L138.287 122.716C138.287 119.63 139.036 116.308 140.334 113.108V113.115Z" fill="black"/>
<path d="M155.522 116.407C155.033 116.407 154.583 116.293 154.17 116.056C153.223 115.514 152.703 114.429 152.703 113.016C152.703 110.427 154.46 107.379 156.706 106.081C157.929 105.371 159.121 105.279 160.076 105.829C161.023 106.371 161.542 107.456 161.542 108.869C161.542 111.458 159.785 114.505 157.539 115.804C156.844 116.209 156.156 116.407 155.522 116.407Z" fill="white"/>
<path d="M162.826 116.507C161.451 115.712 159.694 115.842 157.891 116.888L155.851 118.057C152.314 120.104 149.54 124.908 149.54 128.987V131.102C151.534 132.21 154.269 132.019 157.287 130.285C160.297 128.551 163.032 125.58 165.034 122.174V121.15C165.034 119.004 164.239 117.316 162.833 116.507H162.826Z" fill="white"/>
<path d="M319.884 248.64C319.884 248.64 320.9 239.719 325.338 232.799C329.777 225.879 335.874 221.556 341.565 221.106C347.257 220.655 351.848 225.887 345.759 229.484C339.671 233.082 328.853 236.748 323.879 250.19L319.884 248.647V248.64Z" fill="#09A5B1"/>
<path opacity="0.1" d="M319.884 248.64C319.884 248.64 320.9 239.719 325.338 232.799C329.777 225.879 335.874 221.556 341.565 221.106C347.257 220.655 351.848 225.887 345.759 229.484C339.671 233.082 328.853 236.748 323.879 250.19L319.884 248.647V248.64Z" fill="black"/>
<path d="M321.557 246.326C321.557 246.326 321.519 246.318 321.496 246.31C321.343 246.249 321.266 246.074 321.328 245.913C327.332 231.126 338.761 224.955 343.972 223.756C344.132 223.718 344.3 223.817 344.339 223.985C344.377 224.145 344.277 224.314 344.109 224.352C339.006 225.528 327.806 231.592 321.893 246.142C321.839 246.28 321.694 246.356 321.557 246.326Z" fill="white"/>
<path d="M351.948 246.501C351.436 247.662 350.168 248.265 348.983 248.739C347.807 249.213 346.523 249.724 345.889 250.824C344.606 253.039 346.714 256.163 345.332 258.317C344.751 259.226 343.674 259.699 342.62 259.89C341.741 260.058 340.847 260.051 339.953 260.127C339.525 260.119 339.098 260.089 338.685 260.028C337.463 259.852 336.133 259.791 335.018 260.417C333.253 261.41 332.711 263.633 331.641 265.351C330.358 267.406 328.089 268.75 325.705 269.078C324.911 269.185 323.436 269.323 322.634 268.872C322.573 268.834 322.519 268.803 322.466 268.765C322.466 268.765 322.458 268.758 322.451 268.75C322.336 268.628 322.198 268.467 322.137 268.376C322.122 268.36 322.114 268.345 322.107 268.322C321.794 267.169 322.305 265.977 322.328 264.786C322.328 264.71 322.328 264.641 322.328 264.572C322.283 263.19 322.237 261.815 322.206 260.44C322.145 257.904 322.114 255.369 322.13 252.833C322.145 251.183 321.946 249.381 322.649 247.83C323.421 246.127 325.338 246.089 326.064 244.408C326.354 243.744 326.507 243.026 326.79 242.354C327.63 240.376 329.663 238.947 331.817 238.848C335.171 238.68 338.173 241.391 341.527 241.147C342.39 241.078 343.238 240.819 344.094 240.658C346.806 240.146 349.946 240.926 351.474 243.217C352.116 244.179 352.421 245.439 351.955 246.493L351.948 246.501Z" fill="#09A5B1"/>
<path d="M321.832 263.052C321.832 263.052 321.817 263.052 321.809 263.052C321.656 263.014 321.564 262.854 321.61 262.701C326.24 245.333 344.552 242.82 348.831 243.125C348.983 243.141 349.106 243.27 349.098 243.431C349.09 243.591 348.953 243.706 348.792 243.698C344.606 243.393 326.698 245.852 322.16 262.846C322.122 262.991 321.977 263.083 321.832 263.052Z" fill="white"/>
<path d="M342.176 254.253C342.123 254.246 342.069 254.215 342.024 254.177C341.978 254.131 337.31 249.526 329.563 250.671C329.41 250.694 329.258 250.587 329.235 250.427C329.212 250.274 329.319 250.129 329.479 250.098C337.524 248.915 342.383 253.719 342.429 253.772C342.543 253.887 342.536 254.062 342.429 254.177C342.36 254.246 342.26 254.269 342.176 254.253Z" fill="white"/>
<path d="M277.842 38.8762L280.272 39.808V34.454C280.272 30.2074 283.656 29.1915 287.338 31.3148C291.013 33.4381 293.993 38.6013 293.993 42.8402V43.6193C294.825 43.2832 295.903 43.4131 297.079 44.0928C299.722 45.6204 301.869 49.3323 301.869 52.3874V52.7388L305.261 54.694C307.003 55.7022 308.416 58.1463 308.416 60.155C308.416 62.1638 307.003 62.981 305.261 61.9728L277.835 46.1474C276.093 45.1392 274.679 42.6951 274.679 40.6864C274.679 38.6776 276.093 37.8604 277.835 38.8686L277.842 38.8762Z" fill="#E6E6E6"/>
<path d="M310.38 34.6448L314.788 37.1882C314.765 36.9896 314.75 36.7987 314.75 36.6077V35.3322C314.75 33.0638 316.346 32.1396 318.31 33.2777C319.104 33.7359 319.838 34.4692 320.434 35.317C320.755 32.4604 323.001 31.3988 325.72 32.9645C328.662 34.6601 331.053 38.7998 331.053 42.1986V44.108C331.053 44.9864 330.893 45.7272 330.602 46.323L334.262 48.4386C335.354 49.0726 336.24 50.6001 336.24 51.8603C336.24 53.1206 335.354 53.6323 334.262 52.9984L310.38 39.2122C309.287 38.5859 308.401 37.0507 308.401 35.7905C308.401 34.5303 309.287 34.0185 310.38 34.6525V34.6448Z" fill="#E6E6E6"/>
<path d="M293.313 150.556C290.104 155.979 287.018 160.691 284.848 162.952C280.73 164.869 271.058 167.809 267.276 168.298C266.604 168.382 265.932 168.214 265.374 167.848C263.884 166.87 262.738 166.717 261.165 166.175C259.935 165.747 259.415 165.167 259.186 165.388C258.888 165.679 258.567 166.488 259.316 167.336C259.69 167.764 260.378 168.222 261.256 168.787C261.256 168.787 258.552 169.505 256.138 168.871C252.86 168.008 251.317 169.589 253.533 173.141C254.327 174.416 257.452 176.455 263.777 175.905C265.603 175.745 268.231 175.592 270.5 175.111C276.574 173.813 283.32 172.56 287.468 171.323C288.515 171.01 290.387 169.803 291.494 168.527C298.469 160.576 300.784 154.909 303.84 149.761L303.573 141.345C298.63 141.192 295.987 146.011 293.297 150.556H293.313Z" fill="#FDA18C"/>
<path d="M304.436 141.199C304.436 141.199 300.12 140.283 296.873 144.43C293.473 148.776 287.468 159.209 287.468 159.209C287.468 159.209 289.439 164.441 294.741 165.304L303.26 153.802C303.26 153.802 307.293 145.843 304.436 141.192V141.199Z" fill="#165863"/>
<path d="M322.856 258.485H317.301V268.383H322.856V258.485Z" fill="#FDA18C"/>
<path d="M303.603 257.958L298.057 258.157L297.774 247.678L303.603 247.479V257.958Z" fill="#FDA18C"/>
<path d="M323.635 172.797C323.635 178.319 322.825 222.748 322.825 222.748C322.955 224.337 324.384 227.262 324.078 233.364C323.658 241.651 323.1 263.434 323.1 263.434C323.1 263.434 320.403 265.076 316.919 263.564C316.919 263.564 312.42 233.044 311.427 224.833C310.556 217.661 308.332 193.885 308.332 193.885L305.322 221.946C305.322 221.946 306.346 226.223 306.01 231.134C305.75 234.93 303.962 254.72 303.962 254.72C303.962 254.72 301.35 256.568 297.553 255.231C297.553 255.231 294.398 225.436 294.329 221.946C294.252 217.974 296.178 172.743 296.178 172.743L323.642 172.805L323.635 172.797Z" fill="#083B44"/>
<path d="M317.302 265.527V264.702C316.767 264.946 315.537 269.85 313.336 271.935C311.587 273.6 309.196 275.517 308.592 277.373C307.958 279.305 311.915 280.367 313.558 280.062C315.46 279.71 318.753 278.32 319.578 277.022C320.403 275.731 320.793 273.821 321.465 272.874C322.137 271.927 323.688 270.873 324.047 269.773C324.246 269.17 324.009 267.856 323.727 266.741C323.467 265.718 323.192 264.595 322.856 264.694C322.856 264.817 322.856 265.328 322.856 265.328C322.451 265.794 321.335 266.252 320.082 266.306C319.273 266.337 317.302 266.168 317.309 265.527H317.302Z" fill="#07324A"/>
<path d="M297.996 256.369C297.706 256.377 297.476 256.805 296.835 257.523C296.063 258.386 294.81 259.325 293.565 259.967C291.487 261.051 287.445 262.716 285.612 263.572C284.466 264.106 284.519 265.542 285.703 266.359C286.888 267.177 289.737 267.765 293.16 266.97C295.024 266.535 297.453 264.74 298.989 264.84C300.525 264.939 303.405 264.916 304.535 264.099C305.674 263.281 305.215 261.548 304.895 260.051C304.543 258.416 304.108 255.873 303.588 255.987V256.553C302.923 257.607 299.478 258.034 298.011 257.255L297.981 256.362L297.996 256.369Z" fill="#07324A"/>
<path d="M308.325 193.877C308.325 193.877 303.886 192.579 300.593 189.264C300.593 189.264 302.083 192.174 306.522 194.878L305.575 219.937L308.325 193.877Z" fill="#07324A"/>
<path d="M320.525 142.024C320.525 142.024 325.094 143.078 324.781 151.358L323.818 164.54L323.841 184.322C319.761 188.951 301.655 188.607 295.459 183.956C295.459 183.956 296.162 160.546 296.582 151.541C296.88 145.14 298.355 141.91 304.65 141.207L312.389 141.551L320.518 142.04L320.525 142.024Z" fill="#09A5B1"/>
<path d="M314.696 124.824C314.696 129.575 310.999 133.432 306.43 133.432C301.862 133.432 299.165 129.475 298.164 124.824C296.338 116.323 301.862 116.216 306.43 116.216C310.999 116.216 314.696 120.073 314.696 124.824Z" fill="#07324A"/>
<path d="M318.913 128.307C318.913 128.307 317.645 134.509 317.141 135.524C316.629 136.54 315.583 136.83 315.583 136.83L315.674 132.469L318.921 128.299L318.913 128.307Z" fill="#07324A"/>
<path d="M317.317 119.416C317.317 119.416 318.226 119.187 319.188 120.7C320.014 121.99 320.205 124.9 318.906 128.307L316.515 128.589L317.309 119.416H317.317Z" fill="#07324A"/>
<path d="M318.195 120.677L321.121 120.73C321.19 119.89 320.594 119.195 319.784 119.18C318.975 119.164 318.264 119.837 318.188 120.677H318.195Z" fill="#07324A"/>
<path d="M318.554 119.982L320.724 117.896C320.189 117.278 319.273 117.24 318.669 117.812C318.073 118.385 318.02 119.355 318.554 119.982Z" fill="#07324A"/>
<path d="M315.804 128.589C316.285 128.887 316.965 127.933 317.554 127.283C318.142 126.642 319.998 126.031 320.961 128.139C321.939 130.293 320.281 132.332 318.906 133.019C316.438 134.241 315.659 132.462 315.659 132.462L315.46 142.284C311.984 147.653 304.123 147.462 306.95 142.024V139.038C306.95 139.038 304.589 139.412 303.428 139.229C301.503 138.916 300.295 137.342 299.707 135.173C298.767 131.69 298.416 128.88 299.211 122.029C300.082 114.521 308.47 114.444 312.993 117.408C317.523 120.379 315.796 128.582 315.796 128.582L315.804 128.589Z" fill="#FDA18C"/>
<path d="M305.353 120.86C307.355 120.661 309.333 120.249 311.342 120.104C311.778 120.073 312.221 120.05 312.641 120.165C314.177 120.577 313.978 122.365 314.223 123.617C314.643 125.771 314.994 129.414 315.804 129.43C316.049 129.43 316.958 127.849 317.554 127.291C317.943 126.924 318.004 126.138 318.088 125.649C318.241 124.755 318.325 123.854 318.394 122.953C318.455 122.189 318.531 121.418 318.524 120.646C318.524 119.791 318.539 118.912 318.325 118.072C318.134 117.308 317.775 116.743 317.256 116.148C317.202 116.094 317.156 116.033 317.103 115.979C316.117 114.918 314.857 114.116 313.52 113.566C311.602 112.772 309.517 112.458 307.454 112.245C305.391 112.031 303.305 111.916 301.273 111.504C301.151 111.481 301.029 111.458 300.914 111.504C300.739 111.572 300.662 111.779 300.624 111.962C300.441 112.901 300.868 113.933 301.663 114.475C300.28 114.582 298.691 113.864 297.354 113.505C297.133 113.444 296.873 113.39 296.674 113.505C296.537 113.589 296.453 113.742 296.407 113.894C296.292 114.246 296.315 114.635 296.369 115.002C296.514 116.094 296.888 117.171 297.56 118.042C298.531 119.294 300.12 120.425 301.686 120.738C302.923 120.99 304.085 120.99 305.353 120.86Z" fill="#07324A"/>
<path d="M306.965 139.045C306.965 139.045 311.258 138.144 312.763 137.312C313.772 136.754 314.597 135.792 314.841 135.173C314.841 135.173 314.559 136.502 313.665 137.694C312.565 139.152 306.973 140.229 306.973 140.229V139.038L306.965 139.045Z" fill="#D68877"/>
<path d="M307.996 127.474C307.996 127.986 308.378 128.406 308.86 128.406C309.333 128.406 309.723 127.986 309.723 127.474C309.723 126.963 309.341 126.542 308.86 126.542C308.386 126.542 307.996 126.963 307.996 127.474Z" fill="#07324A"/>
<path d="M309.379 123.762L311.22 124.824C311.495 124.274 311.297 123.587 310.792 123.296C310.281 123.006 309.654 123.212 309.379 123.762Z" fill="#07324A"/>
<path d="M307.347 133.661L305.383 134.425C305.574 135.013 306.178 135.311 306.72 135.104C307.263 134.891 307.546 134.249 307.347 133.661Z" fill="#D68877"/>
<path d="M300.097 124.549L301.778 123.205C301.434 122.701 300.784 122.601 300.318 122.968C299.852 123.342 299.753 124.045 300.097 124.549Z" fill="#07324A"/>
<path d="M300.838 127.215C300.838 127.726 301.22 128.146 301.701 128.146C302.175 128.146 302.564 127.726 302.564 127.215C302.564 126.703 302.182 126.283 301.701 126.283C301.227 126.283 300.838 126.703 300.838 127.215Z" fill="#07324A"/>
<path d="M305.445 126.497L305.345 131.935L302.259 131.224L305.445 126.497Z" fill="#D68877"/>
<path d="M232.149 171.98L236.939 169.215L238.834 166.923L234.051 169.681L232.149 171.98Z" fill="#09A5B1"/>
<path opacity="0.4" d="M232.149 171.98L236.939 169.215L238.834 166.923L234.051 169.681L232.149 171.98Z" fill="black"/>
<path d="M245.175 179.495L249.965 176.73L253.96 173.194L249.178 175.959L245.175 179.495Z" fill="#09A5B1"/>
<path opacity="0.4" d="M245.175 179.495L249.965 176.73L253.96 173.194L249.178 175.959L245.175 179.495Z" fill="black"/>
<path d="M285.864 189.042C286.911 190.379 287.675 192.334 287.843 194.251C286.796 192.915 286.032 190.959 285.864 189.042ZM296.995 189.187C295.383 178.227 289.493 167.382 282.472 163.334C279.103 161.386 275.986 161.317 273.488 162.776C272.754 163.204 270.05 164.762 268.98 165.373C268.896 165.419 268.804 165.464 268.728 165.526C268.529 165.632 268.338 165.762 268.147 165.892C267.788 166.144 267.437 166.427 267.108 166.748C267.063 166.786 267.017 166.839 266.956 166.885C266.81 167.03 266.673 167.183 266.543 167.343C266.375 167.534 266.215 167.725 266.062 167.931C265.748 168.344 265.451 168.795 265.183 169.283C265.053 169.52 264.916 169.772 264.794 170.032L225.434 147.317L220.651 150.074V153.122L221.056 153.359L221.43 153.58V154.222L220.643 154.68V156.452L226.427 168.688L232.141 171.995L234.044 169.696L239.086 172.713L241.981 177.677L245.167 179.518L249.163 175.974L254.075 178.808L255.725 185.605L263.945 190.348C264.358 192.09 264.885 193.793 265.504 195.458C265.557 195.634 265.619 195.802 265.695 195.993C268.43 203.18 272.777 209.328 277.682 212.162C278.308 212.521 278.919 212.819 279.531 213.048C279.874 213.193 280.218 213.3 280.562 213.391C280.868 213.475 281.173 213.552 281.479 213.598C282.495 213.781 283.473 213.773 284.389 213.59C284.519 213.559 284.657 213.529 284.787 213.498C284.978 213.46 285.161 213.407 285.344 213.33C285.482 213.277 285.627 213.223 285.772 213.162C285.925 213.109 286.07 213.04 286.215 212.956C286.353 212.895 286.49 212.826 286.62 212.742C286.689 212.704 286.758 212.666 286.827 212.628C286.857 212.62 286.888 212.597 286.918 212.574C288.011 211.948 290.708 210.39 291.433 209.977C295.07 207.869 297.423 202.538 297.423 195.007C297.423 193.09 297.27 191.143 296.98 189.203L296.995 189.187Z" fill="#09A5B1"/>
<path d="M284.466 198.284C282.579 197.192 281.051 193.953 281.051 191.051C281.051 188.149 282.579 186.675 284.466 187.759C286.353 188.851 287.881 192.09 287.881 194.992C287.881 197.895 286.353 199.369 284.466 198.284ZM292.213 191.937C290.601 180.985 284.71 170.139 277.689 166.091C274.435 164.212 271.432 164.075 268.98 165.365C268.896 165.411 268.804 165.457 268.728 165.518C268.529 165.625 268.338 165.755 268.147 165.885C267.788 166.137 267.437 166.419 267.108 166.74C267.063 166.778 267.017 166.832 266.956 166.878C266.81 167.023 266.673 167.175 266.543 167.336C266.375 167.527 266.215 167.718 266.062 167.924C265.749 168.336 265.451 168.787 265.183 169.276C265.053 169.513 264.916 169.765 264.794 170.024C264.144 171.361 263.625 172.911 263.281 174.676L220.659 150.067V153.114L221.064 153.351L221.438 153.573V154.214L220.651 154.672V156.444L226.434 168.68L232.149 171.987L234.051 169.688L239.093 172.705L241.989 177.67L245.175 179.51L249.17 175.967L254.083 178.8L255.733 185.598L263.953 190.341C264.366 192.082 264.893 193.785 265.512 195.45C265.565 195.626 265.626 195.794 265.703 195.985C268.438 203.172 272.785 209.321 277.689 212.154C278.316 212.513 278.927 212.811 279.538 213.04C279.882 213.185 280.226 213.292 280.57 213.384C280.875 213.468 281.181 213.544 281.486 213.59C282.502 213.773 283.48 213.766 284.397 213.583C284.527 213.552 284.665 213.521 284.794 213.491C284.985 213.453 285.169 213.399 285.352 213.323C285.49 213.269 285.635 213.216 285.78 213.155C285.933 213.101 286.078 213.033 286.223 212.949C286.361 212.888 286.498 212.819 286.628 212.735C286.697 212.697 286.765 212.658 286.834 212.62C286.865 212.613 286.895 212.59 286.926 212.567C290.41 210.367 292.648 205.112 292.648 197.757C292.648 195.84 292.488 193.892 292.205 191.945L292.213 191.937Z" fill="#09A5B1"/>
<path opacity="0.4" d="M287.881 194.992C287.881 197.895 286.353 199.376 284.466 198.284C282.571 197.192 281.043 193.961 281.043 191.051C281.043 188.141 282.571 186.667 284.466 187.759C284.97 188.05 285.451 188.493 285.864 189.042C286.032 190.952 286.796 192.915 287.843 194.251C287.873 194.503 287.881 194.755 287.881 195V194.992Z" fill="black"/>
<path opacity="0.4" d="M297.431 194.984C297.431 202.523 295.077 207.854 291.441 209.954C290.708 210.367 288.018 211.925 286.926 212.551C290.41 210.352 292.648 205.097 292.648 197.742C292.648 195.825 292.488 193.877 292.205 191.929C290.593 180.977 284.703 170.131 277.682 166.083C274.427 164.204 271.425 164.067 268.972 165.358C270.042 164.747 272.747 163.181 273.48 162.761C275.978 161.302 279.095 161.371 282.464 163.318C289.485 167.366 295.375 178.212 296.987 189.172C297.278 191.112 297.431 193.06 297.431 194.977V194.984Z" fill="white"/>
<path d="M292.648 197.749C292.648 205.105 290.41 210.359 286.926 212.559C288.018 211.933 290.715 210.375 291.441 209.962C295.077 207.854 297.43 202.523 297.43 194.992C297.43 194.717 297.423 194.435 297.415 194.152C295.773 195.099 294.107 196.062 292.633 196.909C292.633 197.192 292.648 197.475 292.648 197.749Z" fill="#09A5B1"/>
<path opacity="0.1" d="M292.648 197.749C292.648 205.105 290.41 210.359 286.926 212.559C288.018 211.933 290.715 210.375 291.441 209.962C295.077 207.854 297.43 202.523 297.43 194.992C297.43 194.717 297.423 194.435 297.415 194.152C295.773 195.099 294.107 196.062 292.633 196.909C292.633 197.192 292.648 197.475 292.648 197.749Z" fill="black"/>
<path opacity="0.15" d="M263.449 177.815V179.373L220.651 154.665L221.438 154.214V153.565L263.449 177.815Z" fill="black"/>
<path opacity="0.15" d="M263.449 178.456V179.373L220.651 154.665L221.438 154.214V154.207L263.449 178.456Z" fill="black"/>
<path opacity="0.15" d="M265.229 181.924C265.229 192.518 270.806 204.318 277.689 208.29C284.573 212.261 290.15 206.892 290.15 196.306C290.15 185.72 284.573 173.912 277.689 169.94C270.806 165.969 265.229 171.338 265.229 181.924Z" stroke="black" stroke-miterlimit="10"/>
<path opacity="0.4" d="M264.794 170.024C264.144 171.361 263.625 172.911 263.281 174.676L220.659 150.067L225.441 147.31L264.801 170.024H264.794Z" fill="white"/>
<path d="M320.159 172.415C322.397 168.191 324.941 158.705 326.209 153.916C328.012 147.119 325.094 142.841 321.786 142.666C319.708 142.979 312.893 167.786 312.893 167.786C312.137 168.39 301.762 173.645 298.424 174.966C297.835 175.203 297.178 175.187 296.575 174.966C294.97 174.385 293.886 174.492 292.319 174.332C291.089 174.21 290.471 173.774 290.318 174.034C290.119 174.37 290.028 175.218 290.921 175.844C291.372 176.157 292.113 176.44 293.061 176.776C293.061 176.776 291.288 177.387 288.927 177.341C285.726 177.272 284.573 178.663 287.056 181.909C288.614 183.94 291.12 184.582 296.758 182.634C298.385 182.069 300.586 180.977 302.633 180.236C306.873 178.693 307.958 178.533 311.213 177.433C315.903 175.852 319.173 174.278 320.166 172.4L320.159 172.415Z" fill="#FDA18C"/>
<path d="M320.525 142.024C322.474 142.291 324.368 142.734 325.499 144.308C326.63 145.881 327.577 148.104 326.446 154.206C325.316 160.309 322.978 166.786 322.978 166.786C322.978 166.786 318.44 168.726 313.619 163.807L316.935 150.991C316.935 150.991 317.5 142.666 320.533 142.024H320.525Z" fill="#165863"/>
</g>
<defs>
<clipPath id="clip0_398_163">
<rect width="360" height="349" fill="white"/>
</clipPath>
</defs>
</svg>
