<svg width="100" height="34" viewBox="0 0 100 34" fill="none" xmlns="http://www.w3.org/2000/svg">
<path d="M21.1 26.3L25.3 0H28.7L24.5 26.3H21.1ZM41.7 25.8C40.9 30.9 38 33.6 33.3 33.6C30.4 33.6 28.2 32.5 26.7 30.7L28.6 28.4C29.9 30 31.5 30.6 33.3 30.6C36.1 30.6 37.9 29 38.4 25.7L38.6 24.4H38.5C37 25.8 35.2 26.6 33.3 26.6C29.7 26.6 27.9 24.8 27.9 21.3C27.9 20.6 28 19.9 28.1 19.2L29.8 8.4H33.1L31.4 19.2C31.3 19.8 31.3 20.3 31.3 20.7C31.3 22.7 32.2 23.6 34.1 23.6C36.2 23.6 38 22.4 39.2 20.2L41 8.4H44.4L41.7 25.8ZM79.7 11.7L80.4 8.4H77L74.2 26.4H77.6L79.1 16.8C79.8 13.2 82.3 11.5 85.1 11.5C85.4 11.5 85.7 11.5 86 11.5L86.5 8.3C83.3 7.8 80.9 9.4 79.7 11.7ZM66.9 8.5L61.4 20.9L59.4 8.5H56.2L50.4 20.9L48.5 8.5H45.1L48 26.4H51.6L57.2 14L59.1 26.4H62.5L70.5 8.5H66.9ZM68.1 26.4L70.9 8.5H74.3L71.5 26.4H68.1ZM75.2 4.9C75.2 6 74.3 6.8 73.3 6.8C72.3 6.8 71.3 5.9 71.3 4.9C71.3 3.9 72.2 3 73.2 3C74.3 2.9 75.2 3.8 75.2 4.9ZM12.5 13.4L12.8 11.5H0.8L1.3 8.4H13.3L13.5 6.9C14.2 2.5 17.1 0 21.5 0H24L23.5 3.1H21.3C18.9 3.1 17.5 4.3 17.1 7L16.9 8.4H21.5L21 11.5H16.4L13.8 26.6C13.1 31 10.2 33.5 5.7 33.4H5.5L6 30.1H6.2C8.7 30.1 10 29 10.4 26.4L12 16.6H0L0.5 13.5H12.5V13.4ZM90.9 23.7C95.6 23.6 95.7 20.3 95.7 20.3H98.8C98.8 20.3 98.1 26.5 90.8 26.5C88.6 26.5 86.7 25.8 85.6 24.4C84.4 22.9 84 21.1 84.4 18.8L84.6 17.2C85.3 13 86.2 7.8 93.5 7.8C95.5 7.8 97.2 8.4 98.3 9.5C99.3 10.4 99.9 11.8 99.9 13.1C99.9 15 99.1 16.5 97.5 17.5C95.9 18.5 93.9 18.7 92.4 18.7H87.5C87.2 20.4 87.4 21.8 88.1 22.5C88.8 23.4 89.7 23.8 90.9 23.7ZM88.1 15.5L88 16.1H92.6C95.5 16.1 96.8 15.2 96.8 13.4C96.8 11.8 95.5 10.9 93.4 10.9C90.5 10.8 88.7 12.5 88.1 15.5Z" fill="#0279D4"/>
</svg>
