<svg width="348" height="96" viewBox="0 0 348 96" fill="none" xmlns="http://www.w3.org/2000/svg">
<rect width="348" height="96" rx="12" fill="white"/>
<g clip-path="url(#clip0_426_131)">
<path d="M19.3359 49.6211C19.5076 49.6946 19.8019 49.7845 20.1535 49.7926C20.6032 49.7926 21.151 49.662 21.6579 49.1475L35.9416 34.8645L18.5591 17.5599C18.3466 17.3476 17.9868 17.4946 17.9868 17.7967V46.2974L18.0113 47.6285C18.0113 48.927 18.9434 49.4496 19.3441 49.613" fill="#07C8CC"/>
<path d="M68.4336 54.7986C65.9236 53.3041 64.4192 50.6664 64.4192 47.6612V20.3854C64.4192 19.087 63.4871 18.5643 63.0864 18.401C62.9147 18.3275 62.6204 18.2377 62.2688 18.2295C61.8191 18.2295 61.2713 18.3602 60.7562 18.8746L26.0812 53.541C24.4623 55.1661 22.3692 56.0154 20.2107 56.0154C20.1617 56.0154 20.1044 56.0154 20.0554 56.0154C19.9981 56.0154 19.9491 56.0154 19.8918 56.0154C19.7528 56.0154 19.622 55.9991 19.483 55.9909C19.3686 55.9827 19.2541 55.9664 19.1396 55.9501C19.0742 55.9419 19.0006 55.9337 18.9352 55.9174C18.8208 55.9011 18.6981 55.8766 18.5837 55.8602C18.5837 55.8602 18.5837 55.8602 18.5755 55.8602C18.0277 55.7541 17.4799 55.5907 16.9402 55.3702C16.7031 55.2722 16.4824 55.1661 16.2616 55.0517C16.0818 54.9619 15.9182 55.1906 16.0572 55.3376L36.2768 75.5331C39.5146 78.7669 44.7637 78.7669 47.9933 75.5331C47.9933 75.5331 68.4255 55.1252 68.4991 55.0517C68.5726 54.9782 68.5481 54.8721 68.4418 54.8068" fill="#07C8CC"/>
<path d="M70.6331 20.3853V39.3395L70.6576 39.7805V47.5549C70.6576 48.8779 71.606 49.4169 72.0148 49.5802C72.3746 49.7272 73.2167 49.964 74.0425 49.4087C74.1324 49.3434 74.2224 49.2699 74.3123 49.18L88.5225 34.9868C88.5797 34.9297 88.5797 34.848 88.5225 34.7909L69.7664 16.0408C69.6519 15.9265 69.4639 16.0653 69.5456 16.2041C70.2488 17.4373 70.6331 18.8582 70.6331 20.3772" fill="#07C8CC"/>
<path d="M115.97 17.5108C115.651 17.1924 115.128 17.1924 114.801 17.5108L79.3651 52.904L78.801 53.492C78.572 53.7206 78.3349 53.9248 78.0897 54.1208C78.0733 54.1371 78.0488 54.1534 78.0242 54.1698C77.9425 54.2351 77.8689 54.2923 77.7871 54.3576C76.3318 55.4601 74.6066 56.0317 72.8324 56.0317C71.745 56.0317 70.6412 55.8194 69.5783 55.3784C69.3412 55.2804 69.1449 55.1906 68.9242 55.0681C68.7607 54.9782 68.6053 55.1661 68.7852 55.3376C68.9569 55.5091 89.0048 75.5249 89.0048 75.5249C92.2344 78.7506 97.4753 78.7506 100.705 75.5249L131.447 44.8193C134.726 41.5445 134.726 36.2445 131.447 32.9698L115.97 17.5108Z" fill="#07C8CC"/>
<path d="M152.1 35.828C156.311 35.828 159.688 33.8517 159.688 28.5844V17.4373H157.169V28.6334C157.169 32.0388 155.362 33.7292 152.1 33.7292C148.838 33.7292 147.088 32.0388 147.088 28.6007V17.4373H144.537V28.5762C144.537 33.8435 147.889 35.8198 152.1 35.8198" fill="black"/>
<path d="M164.986 28.2904C164.986 25.9956 166.531 24.5093 168.485 24.5093C170.439 24.5093 171.568 25.8241 171.568 27.9147V35.4768H174.029V27.7106C174.029 24.787 172.663 22.6147 169.286 22.6147C167.357 22.6147 165.607 23.6764 164.986 25.1953V22.9577H162.525V35.4768H164.986V28.2904Z" fill="black"/>
<path d="M179.22 17.4373H176.669V20.1322H179.22V17.4373Z" fill="black"/>
<path d="M179.188 22.9658H176.727V35.4849H179.188V22.9658Z" fill="black"/>
<path d="M188.239 35.4767L193.578 22.9658H191.174L187.233 32.5858H187.11L183.08 22.9658H180.496L185.835 35.4767H188.239Z" fill="black"/>
<path d="M200.217 35.828C203.446 35.828 205.613 34.1049 206.267 31.2711L204.223 31.0425C203.692 32.9616 202.416 33.966 200.25 33.966C197.936 33.966 196.129 32.2511 196.006 29.8093H206.324V28.862C206.324 25.4566 204.223 22.6147 200.102 22.6147C196.366 22.6147 193.553 25.4485 193.553 29.401C193.553 33.3535 196.374 35.8198 200.225 35.8198M200.094 24.4277C202.555 24.4277 203.708 26.2651 203.798 28.2659H196.063C196.358 26.208 197.756 24.4277 200.094 24.4277Z" fill="black"/>
<path d="M210.911 28.862C210.911 26.4529 212.301 24.8197 214.174 24.8197C214.975 24.8197 215.482 24.9667 216.193 25.3342L216.43 23.1864C215.989 22.8107 215.392 22.6147 214.59 22.6147C212.726 22.6147 211.385 24.0765 210.911 25.5056V22.9577H208.45V35.4768H210.911V28.862Z" fill="black"/>
<path d="M222.881 34.0805C220.657 34.0805 219.267 33.0515 219.03 31.1324L216.953 31.2713C217.191 34.3663 219.652 35.8281 222.881 35.8281C225.906 35.8281 228.187 34.4806 228.187 31.9899C228.187 29.7278 226.642 28.7805 224.034 28.3559L221.606 27.9802C220.273 27.7515 219.619 27.2371 219.619 26.2326C219.619 25.0893 220.682 24.3707 222.317 24.3707C224.508 24.3707 225.726 25.2608 226.021 27.1799L228.008 27.0656C227.77 24.1747 225.751 22.623 222.317 22.623C219.325 22.623 217.338 24.1665 217.338 26.4613C217.338 28.609 218.793 29.6135 221.221 29.981L223.413 30.3566C225.015 30.6424 225.874 31.0426 225.874 32.2186C225.874 33.4762 224.598 34.0805 222.881 34.0805Z" fill="black"/>
<path d="M232.799 22.9658H230.338V35.4849H232.799V22.9658Z" fill="black"/>
<path d="M232.831 17.4373H230.281V20.1322H232.831V17.4373Z" fill="black"/>
<path d="M245.423 32.8717V35.4768H247.884V17.4373H245.423V25.6036C244.826 24.0602 243.199 22.6229 240.771 22.6229C236.92 22.6229 234.843 25.5465 234.843 29.2377C234.843 32.9289 236.92 35.828 240.771 35.828C243.199 35.828 244.834 34.4233 245.423 32.8799M237.361 29.2377C237.361 26.3713 238.784 24.542 241.335 24.542C243.681 24.542 245.455 26.1426 245.455 28.8702V29.5888C245.455 32.3409 243.681 33.9415 241.335 33.9415C238.784 33.9415 237.361 32.1123 237.361 29.2459" fill="black"/>
<path d="M255.259 28.4047C252.144 29.009 250.042 29.9808 250.042 32.3572C250.042 34.505 251.669 35.8198 254.196 35.8198C256.297 35.8198 258.137 34.7337 258.848 33.2719C258.995 34.7582 259.944 35.7381 261.276 35.7381C262.282 35.7381 262.822 35.4196 263.263 34.995V33.7047C262.912 33.9089 262.429 33.9905 262.135 33.9905C261.513 33.9905 261.129 33.672 261.129 33.0187V27.4003C261.129 24.2235 259.2 22.6147 255.937 22.6147C252.879 22.6147 250.958 24.3379 250.451 26.6816L252.642 26.9674C253.027 25.5056 254.032 24.444 255.905 24.444C257.777 24.444 258.75 25.5056 258.75 27.2206V27.7106L255.25 28.3966L255.259 28.4047ZM258.758 29.8992C258.758 32.4226 257.008 34.0804 254.727 34.0804C253.247 34.0804 252.503 33.2801 252.503 32.2184C252.503 30.6995 253.803 30.3238 255.855 29.8992L258.758 29.2949V29.8992Z" fill="black"/>
<path d="M269.649 35.828C272.077 35.828 273.712 34.4233 274.301 32.8799V35.485H276.762V17.4373H274.301V25.6036C273.712 24.0602 272.077 22.6229 269.649 22.6229C265.798 22.6229 263.721 25.5465 263.721 29.2377C263.721 32.9289 265.798 35.828 269.649 35.828ZM270.213 24.542C272.551 24.542 274.334 26.1426 274.334 28.8702V29.5888C274.334 32.3409 272.551 33.9415 270.213 33.9415C267.662 33.9415 266.239 32.1123 266.239 29.2459C266.239 26.3795 267.662 24.5502 270.213 24.5502" fill="black"/>
<path d="M156.94 54.7576L148.225 42.7285H144.594V60.7681H147.988V48.053L157.407 60.7681H160.334V42.7285H156.94V54.7576Z" fill="black"/>
<path d="M169.213 47.7917C165.231 47.7917 162.427 50.5438 162.427 54.4637C162.427 58.3836 165.231 61.1111 169.213 61.1111C173.195 61.1111 176.032 58.3917 176.032 54.4637C176.032 50.5357 173.227 47.7917 169.213 47.7917ZM169.213 58.5061C167.079 58.5061 165.967 56.8483 165.967 54.4637C165.967 52.0791 167.079 50.3968 169.213 50.3968C171.347 50.3968 172.491 52.0546 172.491 54.4637C172.491 56.8728 171.38 58.5061 169.213 58.5061Z" fill="black"/>
<path d="M186.465 51.5156L186.726 48.3062C186.35 47.9877 185.704 47.7917 184.911 47.7917C183.129 47.7917 181.78 49.1065 181.314 50.5438V48.1347H177.806V60.7681H181.314V54.5209C181.314 52.2261 182.54 50.9685 184.355 50.9685C185.205 50.9685 185.786 51.14 186.465 51.5156Z" fill="black"/>
<path d="M195.81 47.7918C193.496 47.7918 191.951 49.0249 191.362 50.5684V42.7205H187.854V60.7682H190.544L191.19 58.3346C191.861 59.9107 193.504 61.1112 195.753 61.1112C199.612 61.1112 201.631 58.1876 201.631 54.4637C201.631 50.7399 199.612 47.7918 195.81 47.7918ZM194.722 58.4244C192.736 58.4244 191.329 57.0198 191.329 54.7006V54.2106C191.329 51.9158 192.736 50.4867 194.722 50.4867C196.946 50.4867 198.083 52.0628 198.083 54.4719C198.083 56.881 196.938 58.4244 194.722 58.4244Z" fill="black"/>
<path d="M212.972 56.3583C212.473 57.7874 211.451 58.5061 209.726 58.5061C207.821 58.5061 206.333 57.1913 206.218 55.3293H215.899V54.0962C215.899 50.6582 213.732 47.7917 209.521 47.7917C205.662 47.7917 202.768 50.6582 202.768 54.6352C202.768 58.6122 205.638 61.1111 209.611 61.1111C212.914 61.1111 215.138 59.4534 215.817 56.6441L212.98 56.3583H212.972ZM209.489 50.3152C211.451 50.3152 212.358 51.7198 212.473 53.1816H206.267C206.586 51.6055 207.559 50.3152 209.489 50.3152Z" fill="black"/>
<path d="M224.328 50.9765C225.179 50.9765 225.759 51.148 226.438 51.5237L226.699 48.3143C226.323 47.9958 225.677 47.7998 224.884 47.7998C223.102 47.7998 221.753 49.1146 221.287 50.5519V48.1428H217.779V60.7762H221.287V54.5289C221.287 52.2342 222.513 50.9765 224.328 50.9765Z" fill="black"/>
<path d="M232.513 56.7912V50.5439H236.02V48.1349H232.513V44.6396H230.379L229.97 46.3546C229.676 47.5305 229.324 48.1594 228.065 48.3635L227.19 48.5105V50.5439H229.03V57.5589C229.03 60.2538 230.698 61.1113 232.684 61.1113C234.262 61.1113 235.317 60.7111 236.257 60.0251V57.763C235.497 58.106 234.761 58.3674 234.066 58.3674C233.011 58.3674 232.513 57.8774 232.513 56.7912Z" fill="black"/>
<path d="M262.176 42.7285L258.807 56.0152H258.693L255.095 42.7285H251.727L248.162 55.9907H248.047L244.654 42.7285H240.991L245.766 60.7681H249.772L253.28 47.7672H253.395L256.878 60.7681H260.917L265.683 42.7285H262.176Z" fill="black"/>
<path d="M270.474 42.7205H266.877V46.0687H270.474V42.7205Z" fill="black"/>
<path d="M270.45 48.1348H266.942V60.7682H270.45V48.1348Z" fill="black"/>
<path d="M278.945 47.7917C275.086 47.7917 272.191 50.6582 272.191 54.6352C272.191 58.6122 275.061 61.1111 279.035 61.1111C282.338 61.1111 284.562 59.4534 285.232 56.6441L282.395 56.3583C281.897 57.7874 280.875 58.5061 279.149 58.5061C277.244 58.5061 275.756 57.1913 275.642 55.3293H285.322V54.0962C285.322 50.6582 283.156 47.7917 278.945 47.7917ZM275.699 53.1816C276.018 51.6055 276.983 50.3152 278.92 50.3152C280.858 50.3152 281.79 51.7198 281.905 53.1816H275.707H275.699Z" fill="black"/>
<path d="M290.71 54.0145C290.71 51.8913 291.822 50.5193 293.605 50.5193C295.387 50.5193 296.123 51.6381 296.123 53.5817V60.7681H299.631V52.8876C299.631 50.0783 298.372 47.7917 294.921 47.7917C292.992 47.7917 291.356 48.7635 290.71 50.2008V48.1347H287.203V60.7681H290.71V54.0064V54.0145Z" fill="black"/>
<path d="M308.117 61.1111C311.421 61.1111 313.645 59.4534 314.323 56.6441L311.486 56.3583C310.987 57.7874 309.965 58.5061 308.24 58.5061C306.343 58.5061 304.847 57.1913 304.733 55.3293H314.413V54.0962C314.413 50.6582 312.246 47.7917 308.036 47.7917C304.177 47.7917 301.282 50.6582 301.282 54.6352C301.282 58.6122 304.152 61.1111 308.126 61.1111M308.003 50.3152C309.965 50.3152 310.873 51.7198 310.987 53.1816H304.782C305.1 51.6055 306.073 50.3152 308.003 50.3152Z" fill="black"/>
<path d="M319.793 54.5289C319.793 52.2342 321.019 50.9765 322.835 50.9765C323.685 50.9765 324.265 51.148 324.944 51.5237L325.206 48.3143C324.83 47.9958 324.184 47.7998 323.391 47.7998C321.608 47.7998 320.259 49.1146 319.793 50.5519V48.1428H316.285V60.7762H319.793V54.5289Z" fill="black"/>
<path d="M147.366 71.5315H144.57V77.9013H145.42V75.2962H147.366C148.633 75.3044 149.32 74.5939 149.32 73.4098C149.32 72.2256 148.633 71.5315 147.366 71.5315ZM147.08 74.5776H145.42V72.242H147.08C148.037 72.242 148.47 72.6503 148.47 73.4098C148.47 74.1692 148.037 74.5857 147.08 74.5776Z" fill="black"/>
<path d="M152.223 73.1812C150.759 73.1812 149.983 74.2428 149.983 75.5984C149.983 76.954 150.759 78.0075 152.223 78.0075C153.686 78.0075 154.463 76.9459 154.463 75.5984C154.463 74.251 153.686 73.1812 152.223 73.1812ZM152.223 77.3378C151.43 77.3378 150.784 76.7172 150.784 75.5984C150.784 74.4796 151.43 73.8508 152.223 73.8508C153.016 73.8508 153.662 74.4714 153.662 75.5984C153.662 76.7254 153.016 77.3378 152.223 77.3378Z" fill="black"/>
<path d="M159.581 77.06H159.565L158.6 73.2871H157.774L156.842 77.06H156.826L155.779 73.2871H154.937L156.425 77.9011H157.243L158.175 74.2344H158.191L159.132 77.9011H159.933L161.405 73.2871H160.62L159.581 77.06Z" fill="black"/>
<path d="M164.046 73.1812C162.786 73.1812 161.879 74.1938 161.879 75.5821C161.92 76.9949 162.623 78.0075 164.095 78.0075C165.133 78.0075 165.861 77.4522 166.065 76.4395H165.313C165.182 77.0357 164.741 77.3378 164.119 77.3378C163.113 77.3378 162.656 76.6274 162.68 75.8189H166.139C166.18 74.7083 165.681 73.1812 164.054 73.1812M162.68 75.1493C162.737 74.4469 163.203 73.8508 164.005 73.8508C164.757 73.8508 165.296 74.4306 165.337 75.1493H162.688H162.68Z" fill="black"/>
<path d="M167.627 74.2589H167.61V73.2871H166.899V77.9011H167.659V75.8514C167.659 74.6836 168.101 73.9894 169.327 73.9894V73.1891C168.502 73.1646 167.995 73.5321 167.635 74.2671" fill="black"/>
<path d="M171.821 73.1812C170.562 73.1812 169.654 74.1938 169.654 75.5821C169.695 76.9949 170.398 78.0075 171.87 78.0075C172.908 78.0075 173.636 77.4522 173.841 76.4395H173.088C172.958 77.0357 172.516 77.3378 171.895 77.3378C170.889 77.3378 170.431 76.6274 170.456 75.8189H173.914C173.955 74.7083 173.456 73.1812 171.829 73.1812M170.456 75.1493C170.505 74.4469 170.979 73.8508 171.78 73.8508C172.532 73.8508 173.072 74.4306 173.113 75.1493H170.464H170.456Z" fill="black"/>
<path d="M178.059 73.8997H178.043C177.708 73.3526 177.029 73.1811 176.555 73.1811C175.141 73.1811 174.446 74.2754 174.446 75.582C174.446 76.8886 175.149 78.0074 176.571 78.0074C177.201 78.0074 177.79 77.787 178.043 77.2806H178.059V77.9013H178.82V71.5315H178.059V73.8997ZM176.678 77.3378C175.697 77.3378 175.247 76.4967 175.247 75.631C175.247 74.7654 175.598 73.8507 176.629 73.8507C177.659 73.8507 178.084 74.6919 178.084 75.5984C178.084 76.5048 177.691 77.3378 176.669 77.3378" fill="black"/>
<path d="M184.748 73.1811C184.11 73.1811 183.521 73.4016 183.276 73.9161H183.26V71.5315H182.499V77.9013H183.26V77.2888H183.276C183.611 77.836 184.29 78.0074 184.764 78.0074C186.178 78.0074 186.873 76.9131 186.873 75.6065C186.873 74.2999 186.17 73.1811 184.748 73.1811ZM184.69 77.3378C183.644 77.3378 183.235 76.4967 183.235 75.5902C183.235 74.6837 183.627 73.8507 184.641 73.8507C185.655 73.8507 186.072 74.6919 186.072 75.5575C186.072 76.4232 185.721 77.3378 184.69 77.3378Z" fill="black"/>
<path d="M189.49 77.0601H189.473L188.124 73.2872H187.266L189.097 77.8686L188.787 78.6525C188.648 78.922 188.476 79.069 188.165 79.069C188.01 79.069 187.863 79.0037 187.715 78.9629V79.657C187.887 79.7223 188.059 79.7387 188.239 79.7387C188.917 79.7387 189.228 79.412 189.58 78.5055L191.591 73.2791H190.79L189.498 77.0519L189.49 77.0601Z" fill="black"/>
<path d="M196.325 69.6694L193.193 77.9012H195.033L195.679 76.0637H198.761L199.383 77.9012H201.263L198.181 69.6694H196.325ZM196.153 74.7244L197.224 71.7029H197.249L198.287 74.7244H196.153Z" fill="black"/>
<path d="M203.389 73.0505H203.365V71.9398H201.803V77.9013H203.446V75.2146C203.446 74.1611 203.863 73.3036 205.065 73.3036C205.261 73.3036 205.507 73.3281 205.654 73.3608V71.8418C205.548 71.8092 205.409 71.7847 205.294 71.7847C204.501 71.7847 203.692 72.3073 203.389 73.0505Z" fill="black"/>
<path d="M207.984 71.9397H206.341V77.9012H207.984V71.9397Z" fill="black"/>
<path d="M207.984 69.6694H206.341V71.0169H207.984V69.6694Z" fill="black"/>
<path d="M214.174 73.1728V71.9397H209.137V73.1728H212.007L208.908 76.668V77.9012H214.386V76.668H211.067L214.174 73.1728Z" fill="black"/>
<path d="M218.163 71.7764C216.291 71.7764 215.081 73.0177 215.081 74.9204C215.081 76.8232 216.291 78.0563 218.163 78.0563C220.036 78.0563 221.254 76.815 221.254 74.9204C221.254 73.0258 220.044 71.7764 218.163 71.7764ZM218.163 76.8314C217.051 76.8314 216.716 75.8759 216.716 74.9286C216.716 73.9813 217.051 73.0177 218.163 73.0177C219.275 73.0177 219.619 73.9731 219.619 74.9286C219.619 75.8841 219.284 76.8314 218.163 76.8314Z" fill="black"/>
<path d="M225.735 71.7765C225.04 71.7765 224.328 72.1031 223.911 72.7728H223.879V71.9398H222.317V77.9013H223.96V74.7735C223.96 73.5649 224.345 73.0668 225.228 73.0668C225.988 73.0668 226.282 73.5486 226.282 74.5285V77.8931H227.926V74.2264C227.926 72.7483 227.484 71.7683 225.743 71.7683" fill="black"/>
<path d="M234.516 73.475C234.516 72.0459 233.085 71.7764 231.891 71.7764C230.55 71.7764 229.177 72.2418 229.087 73.769H230.73C230.787 73.1238 231.196 72.8707 231.818 72.8707C232.398 72.8707 232.881 72.9768 232.881 73.6791C232.881 74.3814 231.948 74.3161 230.943 74.4631C229.929 74.6019 228.915 74.9204 228.915 76.276C228.915 77.501 229.814 78.0645 230.943 78.0645C231.67 78.0645 232.431 77.8685 232.954 77.3295C232.97 77.5255 233.011 77.7215 233.069 77.9093H234.728C234.581 77.6643 234.516 77.1254 234.516 76.5864V73.4831V73.475ZM232.881 75.5982C232.881 75.9576 232.831 76.9702 231.556 76.9702C231.025 76.9702 230.55 76.8232 230.55 76.2107C230.55 75.5982 231.016 75.4349 231.523 75.3369C232.03 75.2471 232.611 75.2307 232.889 74.9939V75.6064L232.881 75.5982Z" fill="black"/>
<path d="M243.142 73.0587C241.073 72.5279 240.681 72.4462 240.681 71.8174C240.681 71.1232 241.351 70.8864 241.932 70.8864C242.798 70.8864 243.501 71.1396 243.559 72.1277H245.316C245.316 70.2249 243.738 69.4736 242.013 69.4736C240.525 69.4736 238.931 70.2821 238.931 71.9644C238.931 73.5078 240.166 73.9815 241.392 74.3081C242.602 74.6348 243.837 74.7818 243.837 75.6719C243.837 76.5621 242.864 76.7009 242.234 76.7009C241.261 76.7009 240.411 76.2762 240.411 75.1819H238.653C238.628 77.2154 240.337 78.1137 242.16 78.1137C244.401 78.1137 245.594 76.9867 245.594 75.4759C245.594 73.6058 243.747 73.2302 243.15 73.075" fill="black"/>
<path d="M248.562 70.1514H246.919V71.9398H245.922V73.0341H246.919V76.5538C246.919 77.7461 247.794 77.9748 248.8 77.9748C249.118 77.9748 249.478 77.9666 249.756 77.9176V76.6355C249.584 76.6681 249.421 76.6845 249.249 76.6845C248.693 76.6845 248.554 76.5457 248.554 75.9903V73.0341H249.756V71.9398H248.554V70.1514H248.562Z" fill="black"/>
<path d="M255.905 73.475C255.905 72.0459 254.474 71.7764 253.28 71.7764C251.939 71.7764 250.566 72.2418 250.476 73.769H252.119C252.176 73.1238 252.577 72.8707 253.206 72.8707C253.787 72.8707 254.269 72.9768 254.269 73.6791C254.269 74.3814 253.337 74.3161 252.332 74.4631C251.318 74.6019 250.296 74.9204 250.296 76.276C250.296 77.501 251.195 78.0645 252.332 78.0645C253.059 78.0645 253.82 77.8685 254.343 77.3295C254.351 77.5255 254.4 77.7215 254.457 77.9093H256.117C255.97 77.6643 255.913 77.1254 255.913 76.5864V73.4831L255.905 73.475ZM254.261 75.5982C254.261 75.9576 254.212 76.9702 252.937 76.9702C252.405 76.9702 251.931 76.8232 251.931 76.2107C251.931 75.5982 252.397 75.4349 252.904 75.3369C253.411 75.2471 253.991 75.2307 254.269 74.9939V75.6064L254.261 75.5982Z" fill="black"/>
<path d="M259.249 70.1514H257.605V71.9398H256.608V73.0341H257.605V76.5538C257.605 77.7461 258.48 77.9748 259.486 77.9748C259.805 77.9748 260.164 77.9666 260.442 77.9176V76.6355C260.271 76.6681 260.107 76.6845 259.935 76.6845C259.379 76.6845 259.24 76.5457 259.24 75.9903V73.0341H260.442V71.9398H259.24V70.1514H259.249Z" fill="black"/>
<path d="M263.991 71.7764C262.176 71.7764 260.941 73.1402 260.941 74.9286C260.941 76.717 262.11 78.0645 263.991 78.0645C265.34 78.0645 266.321 77.4602 266.787 76.0556H265.34C265.234 76.423 264.702 76.8314 264.048 76.8314C263.141 76.8314 262.625 76.3577 262.585 75.3206H266.893C267.008 73.4831 266.027 71.7764 263.999 71.7764M262.585 74.2834C262.609 73.8261 262.912 73.0177 263.95 73.0177C264.743 73.0177 265.103 73.4586 265.258 74.2834H262.593H262.585Z" fill="black"/>
<path d="M276.427 74.7898C276.427 76.0147 276.01 76.5782 274.718 76.5782C273.254 76.5782 273.017 75.6881 273.017 74.7898V69.6694H271.202V74.7898C271.202 77.0273 272.494 78.0971 274.71 78.0971C276.925 78.0971 278.234 77.011 278.234 74.7898V69.6694H276.419V74.7898H276.427Z" fill="black"/>
<path d="M283.033 71.7765C282.338 71.7765 281.627 72.1031 281.21 72.7728H281.177V71.9398H279.615V77.9013H281.259V74.7735C281.259 73.5649 281.643 73.0668 282.526 73.0668C283.287 73.0668 283.573 73.5486 283.573 74.5285V77.8931H285.216V74.2264C285.216 72.7483 284.775 71.7683 283.033 71.7683" fill="black"/>
<path d="M288.151 69.6694H286.508V71.0169H288.151V69.6694Z" fill="black"/>
<path d="M288.151 71.9397H286.508V77.9012H288.151V71.9397Z" fill="black"/>
<path d="M291.88 76.0147H291.855L290.596 71.9397H288.871L290.915 77.9012H292.746L294.766 71.9397H293.139L291.88 76.0147Z" fill="black"/>
<path d="M298.2 71.7764C296.385 71.7764 295.15 73.1402 295.15 74.9286C295.15 76.717 296.319 78.0645 298.2 78.0645C299.549 78.0645 300.53 77.4602 300.996 76.0556H299.549C299.443 76.423 298.911 76.8314 298.257 76.8314C297.341 76.8314 296.834 76.3577 296.794 75.3206H301.102C301.217 73.4831 300.236 71.7764 298.208 71.7764M296.794 74.2834C296.818 73.8261 297.121 73.0177 298.159 73.0177C298.952 73.0177 299.312 73.4586 299.467 74.2834H296.802H296.794Z" fill="black"/>
<path d="M303.653 73.0505H303.629V71.9398H302.067V77.9013H303.711V75.2146C303.711 74.1611 304.128 73.3036 305.329 73.3036C305.526 73.3036 305.771 73.3281 305.918 73.3608V71.8418C305.812 71.8092 305.673 71.7847 305.558 71.7847C304.757 71.7847 303.956 72.3073 303.653 73.0505Z" fill="black"/>
<path d="M309.908 74.3161C308.976 74.0956 308.052 74.014 308.052 73.426C308.052 72.9442 308.592 72.8707 308.968 72.8707C309.556 72.8707 310.039 73.0422 310.088 73.6791H311.65C311.519 72.2173 310.325 71.7764 309.017 71.7764C307.709 71.7764 306.417 72.1684 306.417 73.6955C306.417 74.7408 307.365 75.0756 308.314 75.2879C309.491 75.5411 310.17 75.7126 310.17 76.2107C310.17 76.7905 309.573 76.9702 309.099 76.9702C308.453 76.9702 307.856 76.6844 307.839 75.9657H306.278C306.351 77.5418 307.7 78.0645 309.082 78.0645C310.464 78.0645 311.805 77.5582 311.805 75.9902C311.805 74.8796 310.873 74.5366 309.908 74.3161Z" fill="black"/>
<path d="M314.446 71.9397H312.802V77.9012H314.446V71.9397Z" fill="black"/>
<path d="M314.446 69.6694H312.802V71.0169H314.446V69.6694Z" fill="black"/>
<path d="M317.814 70.1514H316.171V71.9398H315.173V73.0341H316.171V76.5538C316.171 77.7461 317.046 77.9748 318.051 77.9748C318.37 77.9748 318.73 77.9666 319.008 77.9176V76.6355C318.836 76.6681 318.673 76.6845 318.501 76.6845C317.945 76.6845 317.806 76.5457 317.806 75.9903V73.0341H319.008V71.9398H317.806V70.1514H317.814Z" fill="black"/>
<path d="M322.23 76.0229H322.205L320.856 71.9397H319.098L321.199 77.5337C321.387 78.0073 321.199 78.5953 320.635 78.6525C320.308 78.6606 319.989 78.6198 319.679 78.5953V79.9428C320.014 79.9754 320.349 79.9999 320.684 79.9999C321.813 79.9999 322.385 79.6079 322.736 78.6525L325.23 71.9397H323.53L322.221 76.0229H322.23Z" fill="black"/>
<path d="M330.348 72.3072C330.299 71.9316 330.152 71.7438 329.801 71.6376V71.6213C330.242 71.4743 330.438 71.1884 330.438 70.7801C330.438 70.1513 329.931 69.792 329.253 69.792H327.609V73.2464H328.402V71.9234H328.991C329.375 71.9234 329.547 72.1031 329.588 72.4461C329.629 72.8299 329.621 73.1974 329.711 73.2464H330.496V73.2055C330.381 73.1565 330.414 72.7727 330.348 72.2991M329.114 71.3436H328.411V70.4208H329.138C329.49 70.4208 329.662 70.6086 329.662 70.8863C329.662 71.1639 329.474 71.3436 329.114 71.3436Z" fill="black"/>
<path d="M329.057 68.5835C327.438 68.5835 326.113 69.8983 326.113 71.5234C326.113 73.1485 327.43 74.4633 329.057 74.4633C330.684 74.4633 332 73.1485 332 71.5234C332 69.8983 330.684 68.5835 329.057 68.5835ZM329.057 74.0631C327.658 74.0631 326.514 72.928 326.514 71.5234C326.514 70.1188 327.65 68.9836 329.057 68.9836C330.463 68.9836 331.599 70.1188 331.599 71.5234C331.599 72.928 330.463 74.0631 329.057 74.0631Z" fill="black"/>
</g>
<defs>
<clipPath id="clip0_426_131">
<rect width="316" height="64" fill="white" transform="translate(16 16)"/>
</clipPath>
</defs>
</svg>
