<svg width="36" height="22" viewBox="0 0 36 22" fill="none" xmlns="http://www.w3.org/2000/svg">
<g id="Vector">
<path d="M22.2607 2.35278H12.7972V19.6472H22.2607V2.35278Z" fill="#FF5F00"/>
<path d="M13.398 11C13.398 7.48611 15.0203 4.36945 17.5139 2.35278C15.6813 0.886115 13.368 0 10.8444 0C4.86584 0 0.0289307 4.91945 0.0289307 11C0.0289307 17.0806 4.86584 22 10.8444 22C13.368 22 15.6813 21.1139 17.5139 19.6472C15.0203 17.6611 13.398 14.5139 13.398 11Z" fill="#EB001B"/>
<path d="M35.0289 11C35.0289 17.0806 30.192 22 24.2135 22C21.6899 22 19.3766 21.1139 17.544 19.6472C20.0676 17.6306 21.6598 14.5139 21.6598 11C21.6598 7.48611 20.0375 4.36945 17.544 2.35278C19.3766 0.886115 21.6899 0 24.2135 0C30.192 0 35.0289 4.95 35.0289 11Z" fill="#F79E1B"/>
</g>
</svg>
