<svg width="130" height="32" viewBox="0 0 130 32" fill="none" xmlns="http://www.w3.org/2000/svg">
<g clip-path="url(#clip0_808_365)">
<path fill-rule="evenodd" clip-rule="evenodd" d="M0.799805 31.192H5.3998V18.008C5.3998 14.564 8.2198 11.744 11.6638 11.744C15.1078 11.744 17.9278 14.564 17.9278 18.008V31.192H22.5278V17.824C22.5278 11.848 17.6398 6.95996 11.6638 6.95996C5.6878 6.95996 0.799805 11.848 0.799805 17.824V31.192Z" fill="#231F20"/>
<path fill-rule="evenodd" clip-rule="evenodd" d="M71.6437 26.7761C75.6877 26.7761 78.9997 23.468 78.9997 19.42V19.344C78.9997 15.3 75.6917 11.988 71.6437 11.988C67.5997 11.988 64.2877 15.296 64.2877 19.344V19.42C64.2877 23.464 67.5957 26.7761 71.6437 26.7761ZM71.6437 31.344C78.1877 31.344 83.5437 25.9881 83.5437 19.444V19.324C83.5437 12.78 78.1877 7.42405 71.6437 7.42405C68.9117 7.42405 66.3876 8.36005 64.3716 9.92005V0.800049H59.7437V19.776H59.7477C59.9237 26.164 65.2077 31.344 71.6437 31.344Z" fill="#231F20"/>
<path d="M30.96 6.95996H26.332V31.192H30.96V6.95996Z" fill="#231F20"/>
<path d="M91.9717 6.95996H87.3438V31.192H91.9717V6.95996Z" fill="#231F20"/>
<path fill-rule="evenodd" clip-rule="evenodd" d="M34.3599 6.95996H38.9599V20.144C38.9599 23.588 41.7799 26.408 45.2239 26.408C48.6679 26.408 51.4879 23.588 51.4879 20.144V6.95996H56.0879V20.328C56.0879 26.304 51.1999 31.192 45.2239 31.192C39.2479 31.192 34.3599 26.304 34.3599 20.328V6.95996Z" fill="#231F20"/>
<path fill-rule="evenodd" clip-rule="evenodd" d="M96.2236 12.248H111.6L96.2236 25.348V31.192H117.952V26.28H102.396L117.952 12.96V12.716V7.58401V7.26001H96.2236V12.248Z" fill="#231F20"/>
<path fill-rule="evenodd" clip-rule="evenodd" d="M125.876 12.208C127.572 12.208 128.948 13.584 128.948 15.28C128.948 16.976 127.572 18.352 125.876 18.352C124.18 18.352 122.804 16.976 122.804 15.28C122.804 13.584 124.18 12.208 125.876 12.208Z" fill="#37A4DD"/>
<path fill-rule="evenodd" clip-rule="evenodd" d="M125.876 24.8521C127.572 24.8521 128.948 26.228 128.948 27.924C128.948 29.62 127.572 30.996 125.876 30.996C124.18 30.996 122.804 29.62 122.804 27.924C122.804 26.228 124.18 24.8521 125.876 24.8521Z" fill="#37A4DD"/>
</g>
<defs>
<clipPath id="clip0_808_365">
<rect width="128.148" height="30.544" fill="white" transform="translate(0.799805 0.800049)"/>
</clipPath>
</defs>
</svg>
