<svg width="165" height="48" viewBox="0 0 165 48" fill="none" xmlns="http://www.w3.org/2000/svg">
<path fill-rule="evenodd" clip-rule="evenodd" d="M10.8505 6.26336L9.65894 11.8446H12.8415C14.5774 11.8446 15.9366 10.7282 16.2979 9.03583C16.6513 7.37956 15.7687 6.26336 14.0328 6.26336H10.8505ZM22.6266 9.03583C21.5733 13.9689 16.896 17.2456 11.6522 17.2456H8.50608L6.93016 24.6272H0.710144L5.78333 0.862366H15.1497C20.3933 0.862366 23.7026 3.99489 22.6266 9.03583Z" fill="#9930E2"/>
<path fill-rule="evenodd" clip-rule="evenodd" d="M28.5976 15.6253C28.121 17.8577 29.2086 19.37 31.3061 19.37C33.259 19.37 35.1005 17.8577 35.5771 15.6253C36.0459 13.4289 34.8577 11.8805 32.9048 11.8805C30.8076 11.8805 29.0665 13.4289 28.5976 15.6253ZM41.9419 15.6253C40.7965 20.9905 35.4799 25.0592 30.0553 25.0592C24.5947 25.0592 21.0876 20.9905 22.233 15.6253C23.3782 10.2603 28.6226 6.19135 34.0832 6.19135C39.5078 6.19135 43.0871 10.2603 41.9419 15.6253Z" fill="#9930E2"/>
<path fill-rule="evenodd" clip-rule="evenodd" d="M74.348 13.7529H80.6404C80.9217 12.0967 79.8067 11.0523 78.2154 11.0523C76.6965 11.0523 75.2232 12.0245 74.348 13.7529ZM85.2763 17.7858H73.7041C74.0915 19.19 75.3634 19.8382 77.3163 19.8382C79.0522 19.8382 80.6786 19.3342 82.3535 18.4338L83.6963 22.6468C81.1807 24.267 78.6247 25.0592 75.9848 25.0592C70.0178 25.0592 66.6914 20.9905 67.8369 15.6253C68.9821 10.2604 74.0819 6.19138 79.5062 6.19138C84.8585 6.19138 87.3038 10.1522 86.3277 14.7252C86.0969 15.8053 85.6623 16.9936 85.2763 17.7858Z" fill="#9930E2"/>
<path fill-rule="evenodd" clip-rule="evenodd" d="M102.486 6.62347L101.318 12.0966H99.8349C97.0867 12.0966 95.2781 13.2849 94.6092 16.4174L92.8566 24.6272H86.6366L90.4801 6.62347H96.1574L95.75 8.53189C97.1709 7.12748 98.9312 6.33527 100.776 6.33527C101.463 6.33527 102.018 6.44344 102.486 6.62347Z" fill="#9930E2"/>
<path fill-rule="evenodd" clip-rule="evenodd" d="M115.645 15.6253C116.183 13.1046 114.76 11.8084 112.916 11.8084C111.18 11.8084 109.162 12.9607 108.601 15.5892C108.047 18.1819 109.514 19.4421 111.286 19.4421C113.094 19.4421 115.107 18.1459 115.645 15.6253ZM122.017 15.5892C120.841 21.0984 116.379 25.0592 111.317 25.0592C109.364 25.0592 107.94 24.447 107.041 23.4029L105.396 31.1084H99.1762L104.403 6.62351H110.081L109.681 8.49587C111.125 6.98356 113.03 6.19135 115.344 6.19135C120.407 6.19135 123.193 10.08 122.017 15.5892Z" fill="#073382"/>
<path fill-rule="evenodd" clip-rule="evenodd" d="M133.863 18.0378L133.894 17.8938H130.965C129.916 17.8938 129.193 18.3978 129.009 19.2622C128.824 20.1262 129.36 20.6663 130.553 20.6663C132.109 20.6663 133.509 19.694 133.863 18.0378ZM140.906 14.1849L138.676 24.6271H132.999L133.314 23.1508C131.795 24.3392 129.869 25.0593 127.699 25.0593C123.613 25.0593 122.032 22.4665 122.67 19.478C123.393 16.0933 126.564 14.113 130.904 14.113H134.701L134.762 13.8248C135.039 12.5286 134.459 11.5203 132.506 11.5203C130.77 11.5203 129.364 12.3486 127.517 13.7169L125.461 9.79219C128.319 7.41555 131.04 6.19144 134.403 6.19144C139.321 6.19144 142.043 8.85574 140.906 14.1849Z" fill="#073382"/>
<path fill-rule="evenodd" clip-rule="evenodd" d="M164.29 6.62347L151.741 25.5995C149.071 29.6321 146.35 31.5405 142.589 31.5405C141.431 31.5405 140.204 31.3605 139.209 31.1084L140.316 25.9235C141.177 25.9592 141.82 25.9953 142.398 25.9953C143.845 25.9953 145.128 25.7434 146.396 23.8711L146.816 23.2589L143.749 6.62347H150.367L151.679 16.7414L157.708 6.62347H164.29Z" fill="#073382"/>
<path fill-rule="evenodd" clip-rule="evenodd" d="M50.4702 6.36298H42.1746L48.0709 20.7818L52.2853 12.6359L50.4702 6.36298Z" fill="#9930E2"/>
<path fill-rule="evenodd" clip-rule="evenodd" d="M66.1512 1.5076L58.0401 13.5837L57.29 6.80751L44.5185 31.862L54.1897 21.4616L55.5815 26.2556L74.6476 1.5076H66.1512Z" fill="#9930E2"/>
<path fill-rule="evenodd" clip-rule="evenodd" d="M140.365 37.0971L137.622 42.2954C137.562 42.4079 137.394 42.4079 137.334 42.2956L134.589 37.0968C134.562 37.0452 134.507 37.0124 134.449 37.0124H133.122C133.032 37.0124 132.974 37.108 133.017 37.1872L137.338 45.2399C137.398 45.3511 137.558 45.3511 137.618 45.2399L141.939 37.1875C141.982 37.1083 141.924 37.0127 141.834 37.0127H140.505C140.446 37.0127 140.392 37.0452 140.365 37.0971Z" fill="#073382"/>
<path fill-rule="evenodd" clip-rule="evenodd" d="M141.922 44.0339L144.664 38.8356C144.724 38.7231 144.893 38.7231 144.953 38.8354L147.697 44.0342C147.725 44.0861 147.779 44.1186 147.838 44.1186H149.165C149.255 44.1186 149.312 44.023 149.27 43.9438L144.949 35.8911C144.889 35.7799 144.728 35.7799 144.668 35.8911L140.347 43.9435C140.305 44.0227 140.362 44.1184 140.453 44.1184H141.781C141.84 44.1184 141.894 44.0858 141.922 44.0339Z" fill="#073382"/>
<path fill-rule="evenodd" clip-rule="evenodd" d="M121.406 44.1183L118.934 44.1186C118.846 44.1186 118.775 44.0476 118.775 43.9601L118.774 41.7526C118.774 41.6655 118.846 41.5944 118.933 41.5944H121.406C122.585 41.5944 123.111 41.9272 123.111 42.8565C123.111 43.7859 122.596 44.1183 121.406 44.1183ZM118.935 38.2141H121.373C122.272 38.2141 122.73 38.5971 122.73 39.3025C122.73 40.0111 122.274 40.3908 121.373 40.3908H118.935C118.847 40.3908 118.776 40.3201 118.776 40.2326V38.3726C118.776 38.2852 118.847 38.2141 118.935 38.2141ZM123.18 40.8476C123.752 40.5624 124.11 39.9453 124.11 39.1853C124.11 37.891 123.096 37.0127 121.666 37.0127H117.554C117.467 37.0127 117.396 37.0834 117.396 37.1706V45.1649C117.396 45.2523 117.467 45.3236 117.554 45.3236H121.485C123.453 45.3236 124.49 44.4803 124.49 42.83C124.49 41.2191 123.18 40.8476 123.18 40.8476Z" fill="#073382"/>
<path fill-rule="evenodd" clip-rule="evenodd" d="M129.84 44.1183L127.367 44.1186C127.28 44.1186 127.208 44.0476 127.208 43.9601V41.7526C127.208 41.6655 127.28 41.5944 127.367 41.5944H129.84C131.018 41.5944 131.545 41.9272 131.545 42.8565C131.545 43.7859 131.03 44.1183 129.84 44.1183ZM127.369 38.2141H129.807C130.706 38.2141 131.163 38.5971 131.163 39.3025C131.163 40.0111 130.707 40.3908 129.807 40.3908H127.369C127.281 40.3908 127.21 40.3201 127.21 40.2326V38.3726C127.21 38.2852 127.281 38.2141 127.369 38.2141ZM131.614 40.8476C132.186 40.5624 132.544 39.9453 132.544 39.1853C132.544 37.891 131.53 37.0127 130.099 37.0127H125.988C125.9 37.0127 125.829 37.0834 125.829 37.1706V45.1649C125.829 45.2523 125.9 45.3236 125.988 45.3236H129.919C131.886 45.3236 132.924 44.4803 132.924 42.83C132.924 41.2191 131.614 40.8476 131.614 40.8476Z" fill="#073382"/>
<path fill-rule="evenodd" clip-rule="evenodd" d="M16.3976 44.0478V40.6656H17.0111V43.9238C17.0111 44.5789 17.2868 44.8977 17.9447 44.8977C18.5406 44.8977 19.0474 44.5789 19.581 44.0833V40.6656H20.1945V45.3227H19.643L19.581 44.5879C19.1096 45.0395 18.5137 45.42 17.8023 45.42C16.8689 45.42 16.3976 44.9154 16.3976 44.0478Z" fill="#073382"/>
<path fill-rule="evenodd" clip-rule="evenodd" d="M21.6081 45.3228V40.6656H22.1593L22.2216 41.4008C22.6839 40.9402 23.2798 40.5684 23.9912 40.5684C24.9336 40.5684 25.405 41.0729 25.405 41.9406V45.3228H24.7915V42.0646C24.7915 41.4095 24.5067 41.082 23.8488 41.082C23.2529 41.082 22.7461 41.3917 22.2216 41.8963V45.3228H21.6081Z" fill="#073382"/>
<path fill-rule="evenodd" clip-rule="evenodd" d="M29.6639 44.1628V42.7111C27.601 43.0649 27.0943 43.552 27.0943 44.1541C27.0943 44.6411 27.4144 44.8976 27.9478 44.8976C28.606 44.8976 29.1838 44.6234 29.6639 44.1628ZM26.4896 44.2251C26.4896 43.3039 27.2808 42.6401 29.6639 42.2773V42.038C29.6639 41.4007 29.3171 41.0819 28.7036 41.0819C27.9747 41.0819 27.4677 41.3739 26.9697 41.8168L26.6229 41.4362C27.1831 40.9226 27.7966 40.5683 28.7481 40.5683C29.7885 40.5683 30.2686 41.1262 30.2686 42.0558V45.3227H29.7265L29.6639 44.6586C29.1215 45.1367 28.5168 45.4025 27.8144 45.4025C26.9787 45.4025 26.4896 44.9509 26.4896 44.2251Z" fill="#073382"/>
<path fill-rule="evenodd" clip-rule="evenodd" d="M33.381 42.9944C33.381 41.3209 34.4214 40.5683 35.4705 40.5683C36.3243 40.5683 36.8752 41.0288 37.1954 41.6752L36.7153 41.9672C36.4486 41.4006 36.093 41.0818 35.4527 41.0818C34.7591 41.0818 33.9945 41.6042 33.9945 42.9944C33.9945 44.1895 34.617 44.9066 35.4439 44.9066C36.0749 44.9066 36.4395 44.5968 36.7509 43.9947L37.2045 44.2868C36.8132 45.0306 36.2442 45.4202 35.4082 45.4202C34.3325 45.4202 33.381 44.5438 33.381 42.9944Z" fill="#073382"/>
<path fill-rule="evenodd" clip-rule="evenodd" d="M41.6507 42.9944C41.6507 41.9672 41.1349 41.0906 40.1478 41.0906C39.1966 41.0906 38.6363 41.8962 38.6363 42.9944C38.6363 44.0302 39.1431 44.8979 40.1478 44.8979C41.0905 44.8979 41.6507 44.0923 41.6507 42.9944ZM38.0226 42.9944C38.0226 41.4362 38.9922 40.5683 40.1478 40.5683C41.2949 40.5683 42.2642 41.4362 42.2642 42.9944C42.2642 44.5438 41.2949 45.4202 40.1478 45.4202C39.001 45.4202 38.0226 44.5438 38.0226 42.9944Z" fill="#073382"/>
<path fill-rule="evenodd" clip-rule="evenodd" d="M43.4199 45.3228V40.6656H43.9711L44.0333 41.4008C44.4956 40.9402 45.0471 40.5684 45.7495 40.5684C46.541 40.5684 46.9141 40.9137 47.0477 41.4095C47.5279 40.9489 48.1147 40.5684 48.8083 40.5684C49.7688 40.5684 50.1598 41.1085 50.1598 41.9496V45.3228H49.5463V42.0646C49.5463 41.4095 49.3241 41.0907 48.6659 41.0907C48.0969 41.0907 47.6255 41.4008 47.101 41.9053V45.3228H46.4875V42.0646C46.4875 41.4095 46.2652 41.0907 45.5983 41.0907C45.038 41.0907 44.5579 41.4008 44.0333 41.9053V45.3228H43.4199Z" fill="#073382"/>
<path fill-rule="evenodd" clip-rule="evenodd" d="M55.0326 42.9944C55.0326 41.7107 54.3926 41.0906 53.6098 41.0906C53.032 41.0906 52.6232 41.3832 52.1519 41.8519V44.1365C52.632 44.6233 53.0677 44.8891 53.6279 44.8891C54.4101 44.8891 55.0326 44.3313 55.0326 42.9944ZM51.5384 47.1376V40.6658H52.0893L52.1519 41.3209C52.5253 40.9138 53.0144 40.5683 53.7168 40.5683C54.7926 40.5683 55.6461 41.3564 55.6461 42.9853C55.6461 44.6146 54.7838 45.4024 53.699 45.4024C53.0589 45.4024 52.5697 45.1104 52.1519 44.685V47.0494L51.5384 47.1376Z" fill="#073382"/>
<path fill-rule="evenodd" clip-rule="evenodd" d="M59.612 44.1628V42.7111C57.5491 43.0649 57.0423 43.552 57.0423 44.1541C57.0423 44.6411 57.3625 44.8976 57.8959 44.8976C58.5541 44.8976 59.1319 44.6234 59.612 44.1628ZM56.4377 44.2251C56.4377 43.3039 57.2289 42.6401 59.612 42.2773V42.038C59.612 41.4007 59.2652 41.0819 58.6517 41.0819C57.9228 41.0819 57.4157 41.3739 56.9178 41.8168L56.571 41.4362C57.1312 40.9226 57.7447 40.5683 58.6962 40.5683C59.7366 40.5683 60.2167 41.1262 60.2167 42.0558V45.3227H59.6746L59.612 44.6586C59.0696 45.1367 58.4649 45.4025 57.7625 45.4025C56.9268 45.4025 56.4377 44.9509 56.4377 44.2251Z" fill="#073382"/>
<path fill-rule="evenodd" clip-rule="evenodd" d="M62.8666 39.692C62.6087 39.692 62.502 39.8337 62.5107 40.2055L62.1195 40.1345C62.1195 39.5059 62.3774 39.1961 62.8666 39.1961C63.3643 39.1961 63.8181 39.692 64.1827 39.692C64.4403 39.692 64.547 39.5502 64.547 39.1784L64.9295 39.2491C64.9295 39.878 64.6716 40.1875 64.1827 40.1875C63.6845 40.1875 63.2309 39.692 62.8666 39.692ZM61.5862 45.3227V40.6656H62.1373L62.1996 41.4007C62.6619 40.9401 63.2578 40.5683 63.9692 40.5683C64.9117 40.5683 65.383 41.0731 65.383 41.9405V45.3227H64.7695V42.0648C64.7695 41.4094 64.4848 41.0819 63.8268 41.0819C63.2309 41.0819 62.7242 41.3919 62.1996 41.8962V45.3227H61.5862Z" fill="#073382"/>
<path fill-rule="evenodd" clip-rule="evenodd" d="M67.8015 38.7798H68.6106L67.3571 40.1613H66.9568L67.8015 38.7798ZM66.8056 45.3227H67.4191V40.6656H66.8056V45.3227Z" fill="#073382"/>
<path fill-rule="evenodd" clip-rule="evenodd" d="M71.7759 44.1628V42.7111C69.713 43.0649 69.2063 43.552 69.2063 44.1541C69.2063 44.6411 69.5265 44.8976 70.0598 44.8976C70.718 44.8976 71.2958 44.6234 71.7759 44.1628ZM68.6016 44.2251C68.6016 43.3039 69.3928 42.6401 71.7759 42.2773V42.038C71.7759 41.4007 71.4291 41.0819 70.8157 41.0819C70.0867 41.0819 69.5797 41.3739 69.0817 41.8168L68.7349 41.4362C69.2952 40.9226 69.9086 40.5683 70.8601 40.5683C71.9005 40.5683 72.3806 41.1262 72.3806 42.0558V45.3227H71.8385L71.7759 44.6586C71.2335 45.1367 70.6288 45.4025 69.9265 45.4025C69.0908 45.4025 68.6016 44.9509 68.6016 44.2251Z" fill="#073382"/>
<path fill-rule="evenodd" clip-rule="evenodd" d="M78.9965 44.1185V41.8432C78.5161 41.3564 78.0804 41.0819 77.5201 41.0819C76.7467 41.0819 76.1154 41.6752 76.1154 42.9944C76.1154 44.278 76.7555 44.8801 77.5383 44.8801C78.1161 44.8801 78.5251 44.5968 78.9965 44.1185ZM75.502 43.0031C75.502 41.3739 76.3643 40.5683 77.4491 40.5683C78.0892 40.5683 78.6406 40.8871 78.9965 41.3031V38.8153L79.6097 38.7268V45.3227H79.0588L78.9965 44.6498C78.6231 45.0571 78.1336 45.4024 77.4315 45.4024C76.3555 45.4024 75.502 44.6321 75.502 43.0031Z" fill="#073382"/>
<path fill-rule="evenodd" clip-rule="evenodd" d="M84.1359 42.6313C84.0733 41.7459 83.6467 41.0818 82.811 41.0818C82.1353 41.0818 81.4949 41.5866 81.3882 42.6313H84.1359ZM80.7659 42.9853C80.7659 41.3389 81.8326 40.5682 82.8198 40.5682C83.9046 40.5682 84.7315 41.4006 84.7315 42.9943V43.1093H81.3794C81.3882 44.2515 82.0464 44.9066 82.9177 44.9066C83.54 44.9066 83.9847 44.6675 84.4204 44.2162L84.7227 44.6145C84.207 45.1543 83.6912 45.4201 82.9087 45.4201C81.7262 45.4201 80.7659 44.579 80.7659 42.9853Z" fill="#073382"/>
<path fill-rule="evenodd" clip-rule="evenodd" d="M85.9408 45.3228V38.8154L86.5543 38.7266V45.3228H85.9408Z" fill="#073382"/>
<path fill-rule="evenodd" clip-rule="evenodd" d="M89.8444 42.0204C89.8444 39.9664 91.0006 38.6472 92.5921 38.6472C93.6591 38.6472 94.4416 39.1873 94.8507 40.1789L94.2904 40.4444C93.9793 39.6388 93.4635 39.2228 92.5921 39.2228C91.445 39.2228 90.476 40.1702 90.476 41.9939C90.476 43.8089 91.3383 44.8803 92.6009 44.8803C93.7036 44.8803 94.4328 44.0922 94.4238 42.7817H92.8766L92.7787 42.2419H95.0375V45.3228H94.4685V44.3754H94.4504C94.1483 44.9598 93.5527 45.4468 92.5477 45.4468C90.8316 45.4468 89.8444 43.9772 89.8444 42.0204Z" fill="#073382"/>
<path fill-rule="evenodd" clip-rule="evenodd" d="M96.4599 45.3228V40.6656H97.0111L97.0733 41.5778H97.0912C97.447 41.0112 98.016 40.5684 98.9319 40.5684H98.9939L99.0474 41.135C99.0295 41.1262 98.843 41.1262 98.8251 41.1262C98.0514 41.1262 97.4289 41.551 97.0733 42.2861V45.3228H96.4599Z" fill="#073382"/>
<path fill-rule="evenodd" clip-rule="evenodd" d="M99.919 44.0478V40.6656H100.532V43.9238C100.532 44.5789 100.808 44.8977 101.466 44.8977C102.062 44.8977 102.569 44.5789 103.102 44.0833V40.6656H103.716V45.3227H103.164L103.102 44.5879C102.631 45.0395 102.035 45.42 101.324 45.42C100.39 45.42 99.919 44.9154 99.919 44.0478Z" fill="#073382"/>
<path fill-rule="evenodd" clip-rule="evenodd" d="M108.624 42.9944C108.624 41.7107 107.984 41.0906 107.201 41.0906C106.624 41.0906 106.215 41.3832 105.743 41.8519V44.1365C106.223 44.6233 106.659 44.8891 107.219 44.8891C108.002 44.8891 108.624 44.3313 108.624 42.9944ZM105.13 47.1376V40.6658H105.681L105.743 41.3209C106.117 40.9138 106.606 40.5683 107.308 40.5683C108.384 40.5683 109.238 41.3564 109.238 42.9853C109.238 44.6146 108.375 45.4024 107.29 45.4024C106.65 45.4024 106.161 45.1104 105.743 44.685V47.0494L105.13 47.1376Z" fill="#073382"/>
<path fill-rule="evenodd" clip-rule="evenodd" d="M113.763 42.9944C113.763 41.9672 113.247 41.0906 112.26 41.0906C111.309 41.0906 110.749 41.8962 110.749 42.9944C110.749 44.0302 111.256 44.8979 112.26 44.8979C113.203 44.8979 113.763 44.0923 113.763 42.9944ZM110.135 42.9944C110.135 41.4362 111.105 40.5683 112.26 40.5683C113.408 40.5683 114.377 41.4362 114.377 42.9944C114.377 44.5438 113.408 45.4202 112.26 45.4202C111.113 45.4202 110.135 44.5438 110.135 42.9944Z" fill="#073382"/>
</svg>
