<svg width="50" height="16" viewBox="0 0 50 16" fill="none" xmlns="http://www.w3.org/2000/svg">
<path id="visa-logo" fill-rule="evenodd" clip-rule="evenodd" d="M12.5035 15.8756H8.28877L5.12823 3.46323C4.97822 2.89226 4.6597 2.38749 4.19116 2.14959C3.02189 1.55173 1.73342 1.07592 0.32782 0.835948V0.358073H7.11744C8.05451 0.358073 8.75731 1.07592 8.87444 1.90962L10.5143 10.8631L14.727 0.358073H18.8246L12.5035 15.8756ZM21.1671 15.8756H17.1866L20.4643 0.358073H24.4448L21.1671 15.8756ZM29.5949 4.6567C29.712 3.82093 30.4148 3.34306 31.2348 3.34306C32.5232 3.22307 33.9268 3.46304 35.0981 4.05884L35.8009 0.717847C34.6296 0.239972 33.3411 0 32.1718 0C28.3085 0 25.4973 2.1494 25.4973 5.1325C25.4973 7.4019 27.4885 8.59348 28.8941 9.31133C30.4148 10.0271 31.0005 10.505 30.8834 11.2208C30.8834 12.2944 29.712 12.7723 28.5427 12.7723C27.1371 12.7723 25.7315 12.4144 24.4451 11.8166L23.7423 15.1596C25.1479 15.7554 26.6686 15.9954 28.0742 15.9954C32.4061 16.1133 35.0981 13.966 35.0981 10.7429C35.0981 6.68405 29.5949 6.44615 29.5949 4.6567ZM49.0289 15.8756L45.8684 0.358073H42.4736C41.7708 0.358073 41.068 0.835948 40.8337 1.55173L34.9812 15.8756H39.0788L39.8966 13.6082H44.9313L45.3999 15.8756H49.0289ZM43.0591 4.53646L44.2284 10.3847H40.9507L43.0591 4.53646Z" fill="#172B85"/>
</svg>
