<?xml version="1.0" encoding="UTF-8"?>
<svg id="Capa_1" xmlns="http://www.w3.org/2000/svg" version="1.1" viewBox="0 0 72 72">
  <!-- Generator: Adobe Illustrator 29.8.1, SVG Export Plug-In . SVG Version: 2.1.1 Build 2)  -->
  <defs>
    <style>
      .st0 {
        fill: #fff;
      }

      .st1 {
        fill: #00c9ce;
      }

      .st2 {
        fill: #02669e;
      }
    </style>
  </defs>
  <circle class="st1" cx="36" cy="36" r="35.81"/>
  <g>
    <circle class="st2" cx="18.77" cy="40.62" r="14.96"/>
    <g>
      <path class="st0" d="M61.17,41.12h-5.36l3.76-2.17c.23-.14.41-.36.47-.62.07-.26.04-.54-.1-.77l-14.24-24.67c-.27-.49-.9-.65-1.38-.37l-5.52,3.18v-6.12c0-.56-.46-1.02-1.02-1.02h-12.21c-.56,0-1.02.46-1.02,1.02v5.09h-9.16c-.56,0-1.02.46-1.02,1.02v25.43h-2.03c-.56,0-1.02.46-1.02,1.02v6.1c0,.56.46,1.02,1.02,1.02h1.02v9.16c0,.56.46,1.02,1.02,1.02h4.07c.56,0,1.02-.46,1.02-1.02v-5.09h34.59v5.09c0,.56.46,1.02,1.02,1.02h4.07c.56,0,1.02-.46,1.02-1.02v-9.16h1.02c.56,0,1.02-.46,1.02-1.02v-6.1c0-.56-.46-1.02-1.02-1.02ZM44.44,14.79l13.22,22.9-5.28,3.05-13.22-22.9,5.28-3.05ZM38.79,21.26l11.46,19.86h-11.46v-19.86ZM26.58,10.6h10.17v6.1h-10.17v-6.1ZM26.58,18.74h10.17v14.24h-10.17v-14.24ZM26.58,35.02h10.17v6.1h-10.17v-6.1ZM16.41,16.71h8.14v14.24h-8.14v-14.24ZM16.41,32.98h8.14v2.03h-8.14v-2.03ZM16.41,37.05h8.14v4.07h-8.14v-4.07ZM17.43,57.4h-2.03v-8.14h2.03v8.14ZM54.05,51.29H19.46v-2.03h34.59v2.03ZM58.12,57.4h-2.03v-8.14h2.03v8.14ZM60.15,47.22H13.36v-4.07h46.79v4.07Z"/>
      <path class="st0" d="M29.63,30.95c.56,0,1.02-.46,1.02-1.02v-8.14c0-.56-.46-1.02-1.02-1.02s-1.02.46-1.02,1.02v8.14c0,.56.46,1.02,1.02,1.02Z"/>
      <path class="st0" d="M33.7,30.95c.56,0,1.02-.46,1.02-1.02v-8.14c0-.56-.46-1.02-1.02-1.02s-1.02.46-1.02,1.02v8.14c0,.56.46,1.02,1.02,1.02Z"/>
    </g>
  </g>
</svg>