<?xml version="1.0" encoding="UTF-8"?>
<svg id="Capa_1" xmlns="http://www.w3.org/2000/svg" version="1.1" viewBox="0 0 72 72">
  <!-- Generator: Adobe Illustrator 29.8.1, SVG Export Plug-In . SVG Version: 2.1.1 Build 2)  -->
  <defs>
    <style>
      .st0 {
        fill: #fff;
      }

      .st1 {
        fill: #00c9ce;
      }

      .st2 {
        fill: #02669e;
      }
    </style>
  </defs>
  <circle class="st1" cx="36" cy="36" r="35.81"/>
  <g>
    <circle class="st2" cx="22.2" cy="47.82" r="14.83"/>
    <g>
      <path class="st0" d="M53.1,29.42h-2.57c-.71,0-1.28.57-1.28,1.28s.57,1.28,1.28,1.28h2.57c.71,0,1.28-.57,1.28-1.28s-.57-1.28-1.28-1.28Z"/>
      <path class="st0" d="M45.4,29.42h-2.57c-.71,0-1.28.57-1.28,1.28s.57,1.28,1.28,1.28h2.57c.71,0,1.28-.57,1.28-1.28s-.57-1.28-1.28-1.28Z"/>
      <path class="st0" d="M37.7,29.42h-2.57c-.71,0-1.28.57-1.28,1.28s.57,1.28,1.28,1.28h2.57c.71,0,1.28-.57,1.28-1.28s-.57-1.28-1.28-1.28Z"/>
      <path class="st0" d="M53.1,34.55h-2.57c-.71,0-1.28.57-1.28,1.28s.57,1.28,1.28,1.28h2.57c.71,0,1.28-.57,1.28-1.28s-.57-1.28-1.28-1.28Z"/>
      <path class="st0" d="M45.4,34.55h-2.57c-.71,0-1.28.57-1.28,1.28s.57,1.28,1.28,1.28h2.57c.71,0,1.28-.57,1.28-1.28s-.57-1.28-1.28-1.28Z"/>
      <path class="st0" d="M37.7,34.55h-2.57c-.71,0-1.28.57-1.28,1.28s.57,1.28,1.28,1.28h2.57c.71,0,1.28-.57,1.28-1.28s-.57-1.28-1.28-1.28Z"/>
      <path class="st0" d="M53.1,39.69h-2.57c-.71,0-1.28.57-1.28,1.28s.57,1.28,1.28,1.28h2.57c.71,0,1.28-.57,1.28-1.28s-.57-1.28-1.28-1.28Z"/>
      <path class="st0" d="M45.4,39.69h-2.57c-.71,0-1.28.57-1.28,1.28s.57,1.28,1.28,1.28h2.57c.71,0,1.28-.57,1.28-1.28s-.57-1.28-1.28-1.28Z"/>
      <path class="st0" d="M37.7,39.69h-2.57c-.71,0-1.28.57-1.28,1.28s.57,1.28,1.28,1.28h2.57c.71,0,1.28-.57,1.28-1.28s-.57-1.28-1.28-1.28Z"/>
      <path class="st0" d="M27.43,29.42c-.71,0-1.28.57-1.28,1.28s.57,1.28,1.28,1.28h2.57c.71,0,1.28-.57,1.28-1.28s-.57-1.28-1.28-1.28h-2.57Z"/>
      <path class="st0" d="M21.01,42.25v4.6l-3.26,3.26c-.5.5-.5,1.31,0,1.81.48.48,1.31.5,1.81,0l3.63-3.63c.24-.24.38-.57.38-.91v-5.13c0-.71-.57-1.28-1.28-1.28s-1.28.57-1.28,1.28Z"/>
      <path class="st0" d="M55.67,14.02h-1.47c-.57-2.21-2.57-3.85-4.95-3.85s-4.38,1.64-4.95,3.85h-8.07c-.57-2.21-2.57-3.85-4.95-3.85s-4.38,1.64-4.95,3.85h-1.47c-2.12,0-3.85,1.73-3.85,3.85v18.04c-5.77.64-10.27,5.54-10.27,11.48,0,6.37,5.18,11.55,11.55,11.55,5.93,0,10.83-4.5,11.48-10.27h21.9c2.12,0,3.85-1.73,3.85-3.85v-3.85c0-.71-.57-1.28-1.28-1.28s-1.28.57-1.28,1.28v3.85c0,.71-.58,1.28-1.28,1.28h-21.9c-.59-5.34-4.85-9.6-10.19-10.19v-10.34h33.37v5.13c0,.71.57,1.28,1.28,1.28s1.28-.57,1.28-1.28v-12.84c0-2.12-1.73-3.85-3.85-3.85ZM49.25,12.73c.95,0,1.76.52,2.21,1.28h-4.42c.45-.76,1.26-1.28,2.21-1.28ZM31.28,12.73c.95,0,1.76.52,2.21,1.28h-4.42c.45-.76,1.26-1.28,2.21-1.28ZM31.28,47.39c0,4.95-4.03,8.98-8.98,8.98s-8.98-4.03-8.98-8.98,4.03-8.98,8.98-8.98,8.98,4.03,8.98,8.98ZM23.58,23v-5.13c0-.71.58-1.28,1.28-1.28h1.47c.57,2.21,2.57,3.85,4.95,3.85.71,0,1.28-.57,1.28-1.28s-.57-1.28-1.28-1.28c-.95,0-1.76-.52-2.21-1.28h15.23c.57,2.21,2.57,3.85,4.95,3.85.71,0,1.28-.57,1.28-1.28s-.57-1.28-1.28-1.28c-.95,0-1.76-.52-2.21-1.28h8.63c.71,0,1.28.58,1.28,1.28v5.13H23.58Z"/>
      <circle class="st0" cx="58.24" cy="35.84" r="1.28"/>
    </g>
  </g>
</svg>