<?xml version="1.0" encoding="UTF-8"?>
<svg id="Capa_1" xmlns="http://www.w3.org/2000/svg" version="1.1" viewBox="0 0 72 72">
  <!-- Generator: Adobe Illustrator 29.8.1, SVG Export Plug-In . SVG Version: 2.1.1 Build 2)  -->
  <defs>
    <style>
      .st0 {
        fill: none;
        stroke: #fff;
        stroke-linecap: round;
        stroke-linejoin: round;
        stroke-width: 3px;
      }

      .st1 {
        fill: #00c9ce;
      }

      .st2 {
        fill: #02669e;
      }
    </style>
  </defs>
  <circle class="st1" cx="36" cy="36" r="35.81"/>
  <circle class="st2" cx="37.93" cy="35.04" r="13.16"/>
  <g>
    <g>
      <g>
        <line class="st0" x1="20.91" y1="25.32" x2="20.91" y2="25.32"/>
        <line class="st0" x1="26.39" y1="25.32" x2="26.39" y2="25.32"/>
      </g>
      <line class="st0" x1="31.87" y1="25.32" x2="31.87" y2="25.32"/>
    </g>
    <path class="st0" d="M50.73,36.22l-1.31-.67c-2.25-1.16-3.31-3.84-2.46-6.23l1.33-3.74c.72-2.02,2.65-3.38,4.79-3.38.38,0,.76.04,1.13.13l3.11.7c2.35.53,4.02,2.64,3.98,5-.24,13.41-9.15,22.32-9.53,22.69-.36.36-9.26,9.27-22.68,9.51h-.09c-2.33,0-4.39-1.67-4.92-3.98l-.7-3.11c-.57-2.51.83-5.05,3.25-5.92l3.74-1.33c.55-.2,1.13-.3,1.71-.3,1.91,0,3.65,1.06,4.52,2.76l.72,1.39c1.41-.42,4.58-1.66,8.44-5.13,1.01-1.01,1.87-2.21,2.59-3.4"/>
    <path class="st0" d="M38.13,31.08c1.05-2.13,1.55-4.58,1.27-7.17-.63-5.99-5.42-10.87-11.39-11.59-8.5-1.02-15.64,6.11-14.62,14.62.72,5.98,5.61,10.76,11.59,11.39,2.59.27,5.04-.22,7.17-1.27.16-.08.35-.11.53-.07l5.56,1.16c.58.12,1.1-.39.98-.98l-1.16-5.57c-.04-.18-.01-.36.07-.53Z"/>
  </g>
</svg>