<?xml version="1.0" encoding="UTF-8"?>
<svg id="Capa_1" xmlns="http://www.w3.org/2000/svg" version="1.1" xmlns:xlink="http://www.w3.org/1999/xlink" viewBox="0 0 72 72">
  <!-- Generator: Adobe Illustrator 29.8.1, SVG Export Plug-In . SVG Version: 2.1.1 Build 2)  -->
  <defs>
    <style>
      .st0 {
        fill: #fff;
      }

      .st1 {
        fill: none;
      }

      .st2 {
        fill: #00c9ce;
      }

      .st3 {
        fill: #02669e;
      }

      .st4 {
        clip-path: url(#clippath);
      }
    </style>
    <clipPath id="clippath">
      <rect class="st1" x="7.96" y="13.89" width="58.07" height="58.07"/>
    </clipPath>
  </defs>
  <circle class="st2" cx="36" cy="36" r="35.81"/>
  <circle class="st3" cx="36.48" cy="35.44" r="13.48"/>
  <g class="st4">
    <path class="st0" d="M57.98,48.48v-15.43c1.39-.93,2.27-2.5,2.27-4.25v-4.15c0-2.19-1.78-3.97-3.97-3.97h-10.78v-1.7c0-2.81-2.29-5.1-5.1-5.1h-6.81c-2.81,0-5.1,2.29-5.1,5.1v1.7h-10.78c-2.19,0-3.97,1.78-3.97,3.97v4.15c0,1.75.88,3.32,2.27,4.24v15.43c0,2.81,2.29,5.1,5.1,5.1h31.76c2.81,0,5.1-2.29,5.1-5.1h0ZM31.9,18.99c0-.94.76-1.7,1.7-1.7h6.81c.94,0,1.7.76,1.7,1.7v1.7h-10.21v-1.7ZM54.58,48.48c0,.94-.76,1.7-1.7,1.7h-31.76c-.94,0-1.7-.76-1.7-1.7v-14.27l12.48,3.12v2.07c0,2.81,2.29,5.1,5.1,5.1s5.1-2.29,5.1-5.1v-2.07l12.48-3.12v14.27ZM35.3,39.41v-1.7h3.4v1.7c0,.94-.76,1.7-1.7,1.7s-1.7-.76-1.7-1.7h0ZM55.56,30.46l-15.37,3.84h-6.39l-15.37-3.84c-.76-.19-1.29-.87-1.29-1.65v-4.15c0-.31.25-.57.57-.57h38.56c.31,0,.57.25.57.57v4.15c0,.78-.53,1.46-1.29,1.65h0ZM55.56,30.46"/>
  </g>
</svg>