<?xml version="1.0" encoding="UTF-8"?>
<svg id="Capa_1" xmlns="http://www.w3.org/2000/svg" version="1.1" viewBox="0 0 72 72">
  <!-- Generator: Adobe Illustrator 29.8.1, SVG Export Plug-In . SVG Version: 2.1.1 Build 2)  -->
  <defs>
    <style>
      .st0 {
        fill: #fff;
      }

      .st1 {
        fill: #00c9ce;
      }

      .st2 {
        fill: #02669e;
      }
    </style>
  </defs>
  <circle class="st1" cx="36" cy="36" r="35.81"/>
  <circle class="st2" cx="27.37" cy="21.56" r="14.04"/>
  <g>
    <path class="st0" d="M58.95,41.73c.52,0,.96-.43.96-.96v-4.79c0-.52-.43-.96-.96-.96h-3.83v-3.83c0-.52-.43-.96-.96-.96h-3.83v-10.52c0-.52-.43-.96-.96-.96h-15.3v-5.74c0-.66-.7-1.13-1.31-.89l-9.39,3.76h-2.68c-1.77,0-3.27,1.23-3.69,2.87h-3.96c-.52,0-.96.43-.96.96v26.78c0,.52.43.96.96.96s.96-.43.96-.96v-25.82h3c.35,1.34,1.4,2.38,2.73,2.73v6.83c0,.52.43.96.96.96h5.74c.7,0,1.24-.84.79-1.48l-1.75-2.64v-2.7s7.29,2.91,7.3,2.91c.58.23,1.31-.21,1.31-.89v-5.74h14.34v33.48c0,1.47.56,2.82,1.47,3.83H17.82c-2.11,0-3.83-1.71-3.83-3.83v-3.83c0-.52-.43-.96-.96-.96s-.96.43-.96.96v3.83c0,3.17,2.57,5.74,5.74,5.74h36.35c3.17,0,5.74-2.57,5.74-5.74v-9.57c0-.52-.43-.96-.96-.96s-.96.43-.96.96v9.57c0,2.11-1.71,3.83-3.83,3.83s-3.83-1.71-3.83-3.83v-21.99h2.87v21.99c0,.52.43.96.96.96s.96-.43.96-.96v-17.22h2.87v3.83c0,.52.43.96.96.96h0ZM18.78,19.74c0-1.06.86-1.92,1.92-1.92h1.92v3.83h-1.92c-1.06,0-1.92-.86-1.92-1.92h0ZM21.66,29.3v-5.74h1.74l.18.07v3.75c0,.19.06.38.16.52l.92,1.38h-3ZM32.17,25.02l-7.27-2.9-.38-.16v-4.43l7.65-3.06v10.55Z"/>
    <path class="st0" d="M15.91,35.04c0,.53.43.96.96.96h28.7c.52,0,.96-.43.96-.96s-.43-.96-.96-.96h-28.7c-.52,0-.96.43-.96.96Z"/>
    <path class="st0" d="M16.87,39.83h28.7c.52,0,.96-.43.96-.96s-.43-.96-.96-.96h-28.7c-.52,0-.96.43-.96.96s.43.96.96.96Z"/>
    <path class="st0" d="M17.83,41.73c-.52,0-.96.43-.96.96v7.65c0,.53.43.96.96.96h7.65c.52,0,.96-.43.96-.96v-7.65c0-.53-.43-.96-.96-.96h-7.65ZM24.52,49.38h-5.74v-5.74h5.74v5.74Z"/>
    <path class="st0" d="M16.87,55.13h28.7c.52,0,.96-.43.96-.96s-.43-.96-.96-.96h-28.7c-.52,0-.96.43-.96.96s.43.96.96.96Z"/>
    <path class="st0" d="M45.57,41.73h-16.26c-.52,0-.96.43-.96.96s.43.96.96.96h16.26c.52,0,.96-.43.96-.96s-.43-.96-.96-.96Z"/>
    <path class="st0" d="M45.57,45.56h-16.26c-.52,0-.96.43-.96.96s.43.96.96.96h16.26c.52,0,.96-.43.96-.96s-.43-.96-.96-.96Z"/>
    <path class="st0" d="M45.57,49.38h-16.26c-.52,0-.96.43-.96.96s.43.96.96.96h16.26c.52,0,.96-.43.96-.96s-.43-.96-.96-.96Z"/>
    <circle class="st0" cx="45.57" cy="23.56" r=".96"/>
    <circle class="st0" cx="41.74" cy="23.56" r=".96"/>
    <circle class="st0" cx="37.92" cy="23.56" r=".96"/>
  </g>
</svg>