<?xml version="1.0" encoding="UTF-8"?>
<svg id="Capa_1" xmlns="http://www.w3.org/2000/svg" version="1.1" viewBox="0 0 72 72">
  <!-- Generator: Adobe Illustrator 29.8.1, SVG Export Plug-In . SVG Version: 2.1.1 Build 2)  -->
  <defs>
    <style>
      .st0 {
        fill: none;
        stroke: #fffdfe;
        stroke-linejoin: round;
        stroke-width: 2px;
      }

      .st1 {
        fill: #00c9ce;
      }

      .st2 {
        fill: #02669e;
      }
    </style>
  </defs>
  <circle class="st1" cx="36" cy="36" r="35.81"/>
  <g>
    <circle class="st2" cx="36" cy="48.75" r="14.06"/>
    <g>
      <path class="st0" d="M43.12,43.76c-1.7-1.7-4.46-1.7-6.16,0l-.57.57-.57-.57c-1.7-1.69-4.45-1.69-6.15,0-1.71,1.71-1.71,4.46,0,6.16l6.72,6.72,6.73-6.74c1.7-1.7,1.7-4.45,0-6.15Z"/>
      <path class="st0" d="M24.29,32.43v-11.7c0-6.5,5.27-11.77,11.77-11.77s11.77,5.27,11.77,11.77v11.7"/>
      <path class="st0" d="M21.34,49.59l7.39,8.05c1.2,1.31,1.12,3.34-.19,4.55-1.28,1.18-3.26,1.13-4.48-.11l-8.18-8.31c-1.84-1.87-2.01-4.82-.4-6.89l6.34-8.13c.96-1.23,2.34-2.05,3.87-2.3l3.5-.58"/>
      <path class="st0" d="M50.66,49.59l-7.39,8.05c-1.2,1.31-1.12,3.34.19,4.55,1.28,1.18,3.26,1.13,4.48-.11l8.18-8.31c1.84-1.87,2.01-4.82.4-6.89l-6.34-8.13c-.96-1.23-2.34-2.05-3.87-2.3l-3.5-.58"/>
      <path class="st0" d="M42.43,24.09c0,3.79-2.85,6.87-6.37,6.87s-6.37-3.07-6.37-6.87c0,0,7.53,0,12.17-3.92"/>
    </g>
  </g>
</svg>