<?xml version="1.0" encoding="UTF-8"?>
<svg id="Capa_1" xmlns="http://www.w3.org/2000/svg" version="1.1" viewBox="0 0 72 72">
  <!-- Generator: Adobe Illustrator 29.8.1, SVG Export Plug-In . SVG Version: 2.1.1 Build 2)  -->
  <defs>
    <style>
      .st0 {
        fill: #fff;
      }

      .st1 {
        fill: #00c9ce;
      }

      .st2 {
        fill: #02669e;
      }
    </style>
  </defs>
  <circle class="st1" cx="36" cy="36" r="35.81"/>
  <g>
    <circle class="st2" cx="46.42" cy="43.23" r="14.54"/>
    <path class="st0" d="M47.59,31.34c-.15-.24-.35-.44-.6-.57l-1.48-.78c-.61-.32-1.34-.22-1.84.24l-.12.08c-.07-.11-.12-.23-.13-.37l-.18-1.46c3.2-1.63,5.32-5.07,5.32-9.26,0-.54-.05-1.06-.11-1.57,0-.04,0-.07,0-.11,0,0,0,0,0-.01-.71-5-4.54-8.59-9.47-8.59-5.48,0-9.6,4.42-9.6,10.28,0,4.18,2.11,7.61,5.29,9.25l-.18,1.49c-.01.13-.06.24-.13.34l-.11-.07c-.5-.46-1.24-.56-1.84-.24l-1.48.78c-.25.13-.45.33-.6.57-2.35.23-4.04.99-5.15,2.34-1.13,1.38-1.66,3.31-1.66,6.08,0,.32.03.72.09,1.17-.37.17-.74.35-1.1.56l-5.47,3.21c-.33-.14-.68-.25-1.04-.3-1.08-.14-2.15.14-3.01.8l-.33.25c-1.78,1.36-2.12,3.92-.76,5.7h0s4.82,6.29,4.82,6.29c.8,1.05,2.01,1.59,3.24,1.59.86,0,1.73-.27,2.47-.84l.33-.25c.86-.66,1.41-1.62,1.56-2.7.03-.23.03-.46.02-.69,1.7-.86,3.65-1.2,5.53-.92l10.97,1.61c.45.07.9.1,1.35.1,1.51,0,3.02-.37,4.35-1.09l10.87-5.78c1.5-.8,2.07-2.68,1.28-4.18-.08-.15-.18-.31-.28-.44-.82-1.07-2.26-1.49-3.52-1.03l-.98.36c.32-1.33.53-2.62.53-3.43,0-5.37-2.11-7.99-6.81-8.43ZM43.95,32.06s.02-.02.04-.02l.68-.45s.08-.06.11-.09l1.39.69-3.24,5.77-3.08-3.17,4.11-2.73ZM38.94,33.38l-3.23-2.14c.21-.32.36-.68.4-1.07l.13-1.04c.85.25,1.75.39,2.7.39s1.83-.14,2.68-.38l.12,1.02c.04.4.19.77.41,1.1l-3.22,2.14ZM38.95,10.63c3.93,0,6.93,2.65,7.72,6.54-2.12.45-4.4.21-6.37-.69l-.3-.14c-.72-.34-1.53-.73-2.48-.64-.69.07-1.27.4-1.77.69-.12.07-.23.13-.35.19-1.28.68-2.77.9-4.18.64.77-3.91,3.78-6.59,7.73-6.59ZM31.02,19.23c0-.12.01-.24.01-.35,1.75.29,3.57.01,5.15-.83.13-.07.26-.14.39-.21.4-.23.78-.44,1.13-.48.49-.05,1.01.21,1.59.48l.32.15c1.54.71,3.25,1.07,4.96,1.07.77,0,1.55-.08,2.31-.23,0,.13.02.26.02.4,0,4.99-3.34,8.6-7.93,8.6s-7.93-3.62-7.93-8.6ZM31.7,32.25l1.42-.75s.07.06.11.09l4.83,3.21-3.07,3.19-3.29-5.71s0-.02,0-.03ZM26.45,34.75c.8-.98,2.03-1.53,3.83-1.73l3.32,5.91c.26.42.7.69,1.19.74.06,0,.11,0,.17,0,.43,0,.85-.17,1.15-.49l2.83-2.92,2.83,2.91c.31.32.72.49,1.15.49.05,0,.11,0,.17,0,.49-.05.93-.32,1.21-.78l3.29-5.85s0-.02.01-.02c3.66.4,5.11,2.34,5.11,6.75,0,.77-.27,2.4-.77,4.13l-4.99,1.83c-1.47.54-3.09.6-4.6.19.18-1.45-.66-2.96-1.9-3.44-1.18-.46-6.31-1.5-10.4-2.29-1.62-.32-3.28-.25-4.85.16-.02-.22-.04-.43-.04-.59,0-2.33.42-3.98,1.28-5.02ZM22.62,55.04c-.08.64-.41,1.2-.92,1.59l-.33.25c-1.05.8-2.56.6-3.36-.45l-4.82-6.29c-.8-1.05-.6-2.56.45-3.36l.33-.25c.5-.39,1.13-.56,1.77-.47.64.08,1.2.41,1.59.91l4.82,6.29c.39.51.55,1.13.47,1.77ZM55.42,44.41c.58-.21,1.24-.02,1.62.47.04.06.09.12.12.2.37.7.11,1.55-.58,1.93l-10.87,5.78c-1.41.76-3.07,1.05-4.66.81l-10.97-1.61c-2.09-.31-4.26.02-6.19.92-.11-.23-.25-.45-.41-.66l-4.82-6.29c-.05-.07-.12-.12-.17-.19l4.84-2.84c.47-.28.96-.51,1.46-.69.03,0,.05-.02.07-.03,1.55-.56,3.23-.7,4.86-.38,5.61,1.09,9.3,1.89,10.12,2.21.48.18.94.92.84,1.68-.12.88-.96,1.45-2.37,1.6-4.13.42-7.74.13-7.77.12-.46-.05-.87.3-.9.76-.04.46.3.87.76.9.09,0,1.36.11,3.25.11,1.36,0,3.04-.05,4.84-.24,1.44-.15,2.54-.7,3.2-1.52,1.9.56,3.96.51,5.83-.17l5.36-1.96s0,0,0,0l2.53-.93Z"/>
  </g>
</svg>