<?xml version="1.0" encoding="UTF-8"?>
<svg id="Capa_1" xmlns="http://www.w3.org/2000/svg" version="1.1" viewBox="0 0 72 72">
  <!-- Generator: Adobe Illustrator 29.8.1, SVG Export Plug-In . SVG Version: 2.1.1 Build 2)  -->
  <defs>
    <style>
      .st0 {
        fill: #fff;
      }

      .st1 {
        fill: #00c9ce;
      }

      .st2 {
        fill: #02669e;
      }
    </style>
  </defs>
  <circle class="st1" cx="36" cy="36" r="35.81"/>
  <circle class="st2" cx="46.02" cy="40.17" r="15.28"/>
  <g>
    <path class="st0" d="M58.51,14.41c0-1.63-1.33-2.96-2.96-2.96h-.18c-.41-1.15-1.5-1.97-2.78-1.97h-1.97c-.54,0-.99.44-.99.99v3.95c0,.54.44.99.99.99h1.97c1.28,0,2.37-.83,2.78-1.97h.18c.54,0,.99.44.99.99v9.48c0,3.45-1.46,6.68-4,8.99l-.94-.7c-.43-.33-1.06-.24-1.38.2l-1.18,1.58c-.55.74-1.44,1.18-2.37,1.18s-1.82-.44-2.37-1.18l-1.18-1.58c-.33-.43-.95-.52-1.38-.2l-.94.7c-2.54-2.31-4-5.54-4-8.99v-9.48c0-.54.44-.99.99-.99h.18c.41,1.15,1.5,1.97,2.78,1.97h1.97c.54,0,.99-.44.99-.99v-3.95c0-.54-.44-.99-.99-.99h-1.97c-1.28,0-2.37.83-2.78,1.97h-.18c-1.63,0-2.96,1.33-2.96,2.96v9.48c0,3.89,1.59,7.54,4.37,10.2l-.62.46c-.43.33-.52.95-.2,1.38l1.68,2.24c1.18,1.57,2.09,3.32,2.71,5.18.62,1.87.94,3.8.94,5.76v1.82c0,.54.44.99.99.99h.9c-.47,2.79-2.9,4.94-5.83,4.94h-.99c-3.27,0-5.92-2.66-5.92-5.92v-5.92c0-.54-.44-.99-.99-.99s-.99.44-.99.99v5.92c0,4.35,3.54,7.9,7.9,7.9h.99c4.02,0,7.34-3.02,7.83-6.91h1.06c.54,0,.99-.44.99-.99v-1.82c0-1.96.32-3.9.94-5.76.62-1.87,1.53-3.61,2.71-5.18l1.68-2.24c.33-.43.24-1.06-.2-1.38l-.62-.46c2.78-2.66,4.37-6.31,4.37-10.2v-9.48ZM52.58,13.42h-.99v-1.97h.99c.54,0,.99.44.99.99s-.44.99-.99.99ZM40.74,11.44h.99v1.97h-.99c-.54,0-.99-.44-.99-.99s.44-.99.99-.99ZM51.69,36.98c-1.31,1.74-2.32,3.67-3.01,5.74-.69,2.07-1.04,4.22-1.04,6.4v.83h-1.97v-.83c0-2.17-.35-4.32-1.04-6.4-.69-2.06-1.7-4-3.01-5.74l-1.09-1.45,1.58-1.18.59.79c.93,1.23,2.4,1.97,3.95,1.97s3.02-.74,3.95-1.97l.59-.79,1.58,1.18-1.09,1.45Z"/>
    <path class="st0" d="M13.1,51.92c0,1.63,1.33,2.96,2.96,2.96s2.96-1.33,2.96-2.96-1.33-2.96-2.96-2.96-2.96,1.33-2.96,2.96ZM17.05,51.92c0,.54-.44.99-.99.99s-.99-.44-.99-.99.44-.99.99-.99.99.44.99.99Z"/>
    <path class="st0" d="M43.7,21.32h-1.97c-.55,0-.99.44-.99.99v3.95c0,.55.44.99.99.99h1.97v1.97c0,.55.44.99.99.99h3.95c.55,0,.99-.44.99-.99v-1.97h1.97c.55,0,.99-.44.99-.99v-3.95c0-.55-.44-.99-.99-.99h-1.97v-1.97c0-.55-.44-.99-.99-.99h-3.95c-.55,0-.99.44-.99.99v1.97ZM44.69,23.29c.55,0,.99-.44.99-.99v-1.97h1.97v1.97c0,.55.44.99.99.99h1.97v1.97h-1.97c-.55,0-.99.44-.99.99v1.97h-1.97v-1.97c0-.55-.44-.99-.99-.99h-1.97v-1.97h1.97Z"/>
    <path class="st0" d="M30.87,37.11c0,.55.44.99.99.99s.99-.44.99-.99v-2.96c0-4.9-3.99-8.88-8.88-8.88-2.37,0-4.6.92-6.29,2.6-1.67,1.69-2.6,3.92-2.6,6.28v5.12c-1.15.41-1.97,1.49-1.97,2.78v3.64c-2.33,1.11-3.95,3.48-3.95,6.23,0,3.81,3.1,6.91,6.91,6.91s6.91-3.1,6.91-6.91c0-2.75-1.62-5.12-3.95-6.23v-3.64c0-1.29-.83-2.37-1.97-2.78v-5.12c0-1.84.72-3.58,2.02-4.89,1.31-1.3,3.05-2.02,4.89-2.02,3.81,0,6.91,3.1,6.91,6.91v2.96ZM20.99,51.92c0,2.72-2.21,4.94-4.94,4.94s-4.94-2.21-4.94-4.94,2.21-4.94,4.94-4.94,4.94,2.21,4.94,4.94ZM16.06,45.01c-.34,0-.66.03-.99.08v-3.04c0-.54.44-.99.99-.99s.99.44.99.99v3.04c-.32-.05-.65-.08-.99-.08Z"/>
    <circle class="st0" cx="31.85" cy="41.06" r=".99"/>
  </g>
</svg>