<?xml version="1.0" encoding="UTF-8"?>
<svg id="Capa_1" xmlns="http://www.w3.org/2000/svg" version="1.1" viewBox="0 0 72 72">
  <!-- Generator: Adobe Illustrator 29.8.1, SVG Export Plug-In . SVG Version: 2.1.1 Build 2)  -->
  <defs>
    <style>
      .st0 {
        fill: #fff;
      }

      .st1 {
        fill: #00c9ce;
      }

      .st2 {
        fill: #02669e;
      }
    </style>
  </defs>
  <circle class="st1" cx="36" cy="36" r="35.81"/>
  <g>
    <circle class="st2" cx="42.65" cy="41.95" r="14.32"/>
    <g>
      <path class="st0" d="M57.11,23.19c-3.1-9.67-8.1-13.24-15.16-15.87-7.78-2.89-22.02.14-27.54,11.66-5.81,12.12-.63,23.3,7.07,29,2.9,2.14,5.39,2.68,7.31,2.59,1.3-.06,2.34-.42,3.06-.77,2.59-1.25,4.39-3.92,4.48-6.64v-.26c.26-3.99,3.67-7.12,7.75-7.13,1.26,0,2.51.16,3.73.32,1.81.24,3.53.46,5.05.11,1.58-.36,3.54-1.03,4.64-2.96,1.22-2.14,1.08-5.43-.4-10.06ZM56.07,32.43c-.62,1.08-1.68,1.73-3.57,2.17-1.23.28-2.8.08-4.46-.14-1.27-.17-2.58-.34-3.94-.33-4.97.01-9.08,3.83-9.38,8.68,0,.1-.01.2-.01.3-.07,2.09-1.53,4.23-3.55,5.2-2.51,1.21-5.59.62-8.67-1.66-7.16-5.29-11.96-15.68-6.57-26.95,3.73-7.79,11.75-11.4,18.61-11.74,2.54-.13,4.91.19,6.86.92,6.77,2.52,11.25,5.75,14.16,14.82,1.32,4.11,1.5,7.05.54,8.73Z"/>
      <path class="st0" d="M26.06,32.84c-3.28.16-5.81,2.96-5.65,6.24s2.96,5.81,6.24,5.65,5.81-2.96,5.65-6.24-2.96-5.81-6.24-5.65ZM26.57,43.08c-2.37.12-4.39-1.71-4.5-4.08-.12-2.37,1.71-4.39,4.08-4.5s4.39,1.71,4.5,4.08-1.71,4.39-4.08,4.5Z"/>
      <path class="st0" d="M29.54,23.73c-.16-3.28-2.96-5.81-6.24-5.65-3.28.16-5.81,2.96-5.65,6.24s2.96,5.81,6.24,5.65,5.81-2.96,5.65-6.24ZM19.3,24.24c-.12-2.37,1.71-4.39,4.08-4.5s4.39,1.71,4.5,4.08-1.71,4.39-4.08,4.5-4.39-1.71-4.5-4.08Z"/>
      <path class="st0" d="M42.54,15.71c-.16-3.11-2.81-5.51-5.92-5.36s-5.51,2.81-5.36,5.92,2.81,5.51,5.92,5.36,5.51-2.81,5.36-5.92ZM37.1,19.97c-2.2.11-4.07-1.59-4.18-3.79s1.59-4.07,3.79-4.18,4.07,1.59,4.18,3.79-1.59,4.07-3.79,4.18Z"/>
      <path class="st0" d="M47.06,20.08c-3.28.16-5.81,2.96-5.65,6.24s2.96,5.81,6.24,5.65,5.81-2.96,5.65-6.24-2.96-5.81-6.24-5.65ZM47.57,30.32c-2.37.12-4.39-1.71-4.5-4.08s1.71-4.39,4.08-4.5,4.39,1.71,4.5,4.08-1.71,4.39-4.08,4.5Z"/>
      <path class="st0" d="M25.67,35.71c-.45.05-.78.47-.72.92.05.45.45.78.92.72,0,0,1.08-.1,1.6.43.29.29.38.78.29,1.45-.06.45.25.87.71.93.05,0,.1,0,.16,0,.39-.02.72-.31.78-.71.17-1.2-.09-2.16-.75-2.83-1.09-1.11-2.79-.94-2.98-.91Z"/>
      <path class="st0" d="M25.13,23.07c.29.29.38.78.29,1.45-.06.45.25.87.71.93.05,0,.1,0,.15,0,.39-.02.72-.31.78-.71.17-1.2-.09-2.16-.75-2.83-1.09-1.11-2.79-.93-2.98-.91-.45.05-.78.47-.72.92.05.45.45.77.92.72.01,0,1.08-.1,1.6.43Z"/>
      <path class="st0" d="M36.31,12.84c-.45.05-.77.46-.72.92.05.45.44.77.92.73.3-.03,1.17-.02,1.61.43.28.29.38.78.29,1.44-.06.45.25.87.71.93.05,0,.1,0,.15,0,.39-.02.72-.31.78-.71.17-1.2-.09-2.16-.75-2.83-1.09-1.1-2.79-.93-2.98-.91Z"/>
      <path class="st0" d="M47.16,23.28c-.45.05-.78.47-.72.92.05.45.45.77.92.72.01,0,1.08-.1,1.6.43.29.29.38.78.29,1.45-.06.45.25.87.71.93.05,0,.1,0,.15,0,.39-.02.72-.31.78-.71.17-1.2-.09-2.16-.75-2.83-1.09-1.11-2.79-.94-2.98-.91Z"/>
    </g>
    <g>
      <path class="st0" d="M48.83,39.61c-6.2,0-11.24,5.04-11.24,11.24s5.04,11.24,11.24,11.24,11.24-5.04,11.24-11.24-5.04-11.24-11.24-11.24ZM58.76,48.92l-9.5,1.19c-.21-3.3,1.37-6.47,4.16-8.28,2.73,1.39,4.74,3.99,5.34,7.08ZM45.83,51.68l2.45-.31c.64,3.53,3.04,6.44,6.35,7.74-1.62,1.14-3.59,1.82-5.71,1.84-1.56-2.86-2.62-6.05-3.09-9.27ZM52.21,41.32c-2.77,2.09-4.31,5.45-4.06,8.94l-2.45.31c-.34-3.19-.13-6.38.63-9.51.8-.21,1.64-.33,2.51-.33,1.18,0,2.31.21,3.37.59ZM45.08,41.46c-.66,3.05-.83,6.15-.5,9.25l-1.48.19c-.41-1.9-1.63-3.55-3.34-4.49,1.1-2.24,2.99-4.01,5.32-4.94ZM40.37,56.36c-.74-1.13-1.25-2.42-1.49-3.8l3.25-.41c.04,1.59-.6,3.12-1.76,4.21ZM39.32,47.44c1.34.78,2.31,2.08,2.66,3.59l-3.23.41c-.01-.2-.03-.39-.03-.59,0-1.2.22-2.34.6-3.41ZM41.03,57.27c1.48-1.33,2.29-3.26,2.21-5.26l1.48-.19c.46,3.17,1.43,6.21,2.9,9.06-2.64-.32-4.98-1.65-6.59-3.61ZM55.66,58.29c-3.24-1.02-5.63-3.73-6.26-7.05l9.5-1.2c.02.27.04.54.04.81,0,2.94-1.27,5.59-3.29,7.44Z"/>
      <path class="st0" d="M39.45,59.44l-3.37,3.37c-.22.22-.22.58,0,.79.22.22.58.22.79,0l3.37-3.37c.22-.22.22-.58,0-.79s-.58-.22-.79,0Z"/>
      <path class="st0" d="M39.05,64.06l-2.43,2.7c-.21.23-.19.59.04.79.11.1.24.14.38.14.15,0,.31-.06.42-.19l2.43-2.7c.21-.23.19-.59-.04-.79s-.59-.19-.79.04Z"/>
      <path class="st0" d="M41.67,61.15l-1.12,1.25c-.21.23-.19.59.04.79.23.21.59.19.79-.04l1.12-1.25c.21-.23.19-.59-.04-.79-.23-.21-.59-.19-.79.04Z"/>
      <path class="st0" d="M33.15,61.35l-.98.88c-.23.21-.25.56-.04.79.19.22.56.25.79.04l.98-.88c.23-.21.25-.56.04-.79-.21-.23-.56-.25-.79-.04Z"/>
      <path class="st0" d="M38.58,57.21c-.21-.23-.56-.25-.79-.04l-2.97,2.67c-.23.21-.25.56-.04.79.21.23.56.25.79.04l2.97-2.67c.23-.21.25-.56.04-.79Z"/>
    </g>
  </g>
</svg>