<?xml version="1.0" encoding="UTF-8"?>
<svg id="Capa_1" xmlns="http://www.w3.org/2000/svg" version="1.1" viewBox="0 0 72 72">
  <!-- Generator: Adobe Illustrator 29.8.1, SVG Export Plug-In . SVG Version: 2.1.1 Build 2)  -->
  <defs>
    <style>
      .st0 {
        fill: #00c9ce;
      }

      .st1 {
        fill: none;
        stroke: #fff;
        stroke-linecap: round;
        stroke-linejoin: round;
        stroke-width: 1.5px;
      }

      .st2 {
        fill: #02669e;
      }
    </style>
  </defs>
  <circle class="st0" cx="36" cy="36" r="35.81"/>
  <circle class="st2" cx="43.11" cy="34.61" r="13.75"/>
  <g>
    <g>
      <polyline class="st1" points="28.85 26.32 21.59 26.32 21.59 48.24 21.59 61.62 50.78 61.62 50.78 54.33"/>
      <polyline class="st1" points="37.03 54.33 58.04 54.33 58.04 19.02 28.85 19.02 28.85 46.15"/>
      <polyline class="st1" points="21.59 48.24 15.19 48.24 15.19 12.93 44.37 12.93 44.37 19.03"/>
    </g>
    <polygon class="st1" points="37.03 54.33 28.85 46.15 37.03 46.15 37.03 54.33"/>
    <path class="st1" d="M37.17,31.17l-1.62-1.62,2.71-2.71,1.61,1.62c.51-.3,1.07-.54,1.66-.68v-2.28h3.83v2.28c.59.15,1.15.39,1.66.68l1.61-1.62,2.71,2.71-1.62,1.62c.3.51.52,1.07.67,1.65h2.3v3.83h-2.3c-.15.59-.39,1.15-.67,1.66l1.62,1.61-2.71,2.71-1.61-1.62c-.51.3-1.07.54-1.66.68v2.28h-3.83v-2.28c-.59-.15-1.15-.39-1.66-.68l-1.61,1.62-2.71-2.71,1.62-1.61c-.3-.51-.54-1.07-.68-1.66h-2.28v-3.83h2.28c.15-.58.39-1.13.68-1.65Z"/>
    <circle class="st1" cx="43.44" cy="34.73" r="3.73"/>
  </g>
</svg>