<?xml version="1.0" encoding="UTF-8"?>
<svg id="Capa_1" xmlns="http://www.w3.org/2000/svg" version="1.1" viewBox="0 0 72 72">
  <!-- Generator: Adobe Illustrator 29.8.1, SVG Export Plug-In . SVG Version: 2.1.1 Build 2)  -->
  <defs>
    <style>
      .st0 {
        fill: #fff;
      }

      .st1 {
        fill: #00c9ce;
      }

      .st2 {
        fill: #02669e;
      }
    </style>
  </defs>
  <circle class="st1" cx="36" cy="36" r="35.81"/>
  <g>
    <circle class="st2" cx="34.1" cy="40.74" r="15.64"/>
    <g>
      <path class="st0" d="M55.77,37.08c.71,0,1.3-.58,1.3-1.3v-16.88h1.3c.71,0,1.3-.58,1.3-1.3v-5.19c0-.71-.58-1.3-1.3-1.3h-15.58c-.71,0-1.3.58-1.3,1.3s.58,1.3,1.3,1.3h14.28v2.6H18.12v-2.6h19.47c.71,0,1.3-.58,1.3-1.3s-.58-1.3-1.3-1.3h-20.77c-.71,0-1.3.58-1.3,1.3v5.19c0,.71.58,1.3,1.3,1.3h1.3v10.88c-2.32.96-3.97,3.28-3.97,6,0,1.71.75,4.28,2.08,6.26l-4.45,3.64c-.92.74-1.44,1.86-1.44,3.04v10.44c0,.71.58,1.3,1.3,1.3h46.74c.71,0,1.3-.58,1.3-1.3v-5.19c0-.71-.58-1.3-1.3-1.3h-1.3v-11.68c0-.71-.58-1.3-1.3-1.3s-1.3.58-1.3,1.3v11.68h-23.37v-2.62l4.65-2.97c1.51-.95,2.14-2.83,1.67-4.5l4.76-3.09c.61-.39.78-1.19.39-1.79-.39-.61-1.19-.78-1.79-.39l-4.83,3.13c-.39-.29-.83-.51-1.3-.62-1-.25-2.03-.08-2.9.48l-4.91,3.12-1.88-1.54c1.23-1.95,1.95-4.4,1.95-6.06,0-3.52-2.77-6.37-6.21-6.48v-10.4h33.75v16.88c0,.71.58,1.3,1.3,1.3ZM57.07,55.25v2.6h-25.96v-2.6h25.96ZM25.95,45.98c.43.36,1.04.39,1.51.09l5.71-3.62c.26-.17.56-.22.86-.14.32.08.6.3.78.62.39.68.19,1.54-.44,1.95l-5.26,3.35c-.38.23-.6.65-.6,1.09v8.53h-10.39v-5.19c0-.71-.58-1.3-1.3-1.3s-1.3.58-1.3,1.3v5.19h-2.6v-9.14c0-.4.17-.77.48-1.03l4.58-3.74c.75.57,1.61.92,2.54.92,1.01,0,1.93-.4,2.74-1.06l2.67,2.18ZM24.33,35.78c0,2.51-2.06,6.49-3.79,6.49s-3.79-3.99-3.79-6.49c0-2.14,1.7-3.89,3.79-3.89s3.79,1.75,3.79,3.89Z"/>
      <path class="st0" d="M50.58,21.5h-10.39c-.72,0-1.3.58-1.3,1.3s.58,1.3,1.3,1.3h10.39c.72,0,1.3-.58,1.3-1.3s-.58-1.3-1.3-1.3Z"/>
      <path class="st0" d="M50.58,26.69h-12.98c-.72,0-1.3.58-1.3,1.3s.58,1.3,1.3,1.3h12.98c.72,0,1.3-.58,1.3-1.3s-.58-1.3-1.3-1.3Z"/>
      <path class="st0" d="M50.58,31.88h-15.58c-.72,0-1.3.58-1.3,1.3s.58,1.3,1.3,1.3h15.58c.72,0,1.3-.58,1.3-1.3s-.58-1.3-1.3-1.3Z"/>
    </g>
  </g>
</svg>