<?xml version="1.0" encoding="UTF-8"?>
<svg id="Capa_1" xmlns="http://www.w3.org/2000/svg" version="1.1" viewBox="0 0 72 72">
  <!-- Generator: Adobe Illustrator 29.8.1, SVG Export Plug-In . SVG Version: 2.1.1 Build 2)  -->
  <defs>
    <style>
      .st0 {
        fill: #fff;
      }

      .st1 {
        fill: #00c9ce;
      }

      .st2 {
        fill: #02669e;
      }
    </style>
  </defs>
  <circle class="st1" cx="36" cy="36" r="35.81"/>
  <g>
    <circle class="st2" cx="35.58" cy="22.07" r="14.6"/>
    <path class="st0" d="M57.47,40.32v-3.79h1.26c.69,0,1.26-.57,1.26-1.26v-7.58c0-.69-.57-1.26-1.26-1.26h-12.63v-5.2l2.99-1.2c.48-.19.8-.66.8-1.17s-.32-.99-.8-1.17l-12.63-5.05c-.3-.11-.63-.11-.93,0l-12.63,5.05c-.48.19-.8.66-.8,1.17s.32.99.8,1.17l2.99,1.2v5.2h-12.63c-.69,0-1.26.57-1.26,1.26v7.58c0,.69.57,1.26,1.26,1.26h1.26v3.79c0,.69.57,1.26,1.26,1.26v6.32c-.69,0-1.26.57-1.26,1.26v3.79h-1.26c-.69,0-1.26.57-1.26,1.26v5.05c0,.69.57,1.26,1.26,1.26h17.68c.69,0,1.26-.57,1.26-1.26s-.57-1.26-1.26-1.26H14.53v-2.53h42.95v2.53h-21.47c-.69,0-1.26.57-1.26,1.26s.57,1.26,1.26,1.26h22.74c.69,0,1.26-.57,1.26-1.26v-5.05c0-.69-.57-1.26-1.26-1.26h-1.26v-3.79c0-.69-.57-1.26-1.26-1.26v-6.32c.69,0,1.26-.57,1.26-1.26ZM36,15.15l9.23,3.69-9.23,3.69-9.23-3.69,9.23-3.69ZM43.58,22.23v4.51l-7.58,2.16-7.58-2.16v-4.51l7.11,2.84c.15.06.3.09.47.09s.32-.03.47-.09l7.11-2.84ZM22.11,52.95h-5.05v-2.53h5.05v2.53ZM18.32,47.89v-6.32h2.53v6.32h-2.53ZM22.11,39.05h-5.05v-2.53h5.05v2.53ZM34.74,52.95h-5.05v-3.79c0-2.08,1.71-3.79,3.79-3.79h1.26v7.58ZM42.32,52.95h-5.05v-7.58h1.26c2.08,0,3.79,1.71,3.79,3.79v3.79ZM54.95,52.95h-5.05v-2.53h5.05v2.53ZM51.16,47.89v-6.32h2.53v6.32h-2.53ZM54.95,39.05h-5.05v-2.53h5.05v2.53ZM36,34c-.69,0-1.26.57-1.26,1.26s.57,1.26,1.26,1.26h11.37v3.79c0,.69.57,1.26,1.26,1.26v6.32c-.69,0-1.26.57-1.26,1.26v3.79h-2.53v-3.79c0-3.49-2.83-6.32-6.32-6.32h-5.05c-3.49,0-6.32,2.83-6.32,6.32v3.79h-2.53v-3.79c0-.69-.57-1.26-1.26-1.26v-6.32c.69,0,1.26-.57,1.26-1.26v-3.79h6.32c.69,0,1.26-.57,1.26-1.26s-.57-1.26-1.26-1.26H14.53v-5.05h12.45l8.68,2.48c.1.04.23.05.34.05s.24-.01.34-.05l8.68-2.48h12.45v5.05h-21.47Z"/>
  </g>
</svg>